<?xml version="1.0" encoding="UTF-8" standalone="no"?>
<svg
   xmlns:dc="http://purl.org/dc/elements/1.1/"
   xmlns:cc="http://creativecommons.org/ns#"
   xmlns:rdf="http://www.w3.org/1999/02/22-rdf-syntax-ns#"
   xmlns:svg="http://www.w3.org/2000/svg"
   xmlns="http://www.w3.org/2000/svg"
   xmlns:sodipodi="http://sodipodi.sourceforge.net/DTD/sodipodi-0.dtd"
   xmlns:inkscape="http://www.inkscape.org/namespaces/inkscape"
   width="101.41367mm"
   height="67.918159mm"
   viewBox="0 0 101.41367 67.918159"
   version="1.1"
   id="svg8"
   inkscape:version="1.0 (1.0+r73)"
   sodipodi:docname="deut.svg">
  <defs
     id="defs2">
    <inkscape:path-effect
       effect="bspline"
       id="path-effect883"
       is_visible="true"
       lpeversion="1"
       weight="33.333333"
       steps="2"
       helper_size="0"
       apply_no_weight="true"
       apply_with_weight="true"
       only_selected="false" />
    <inkscape:path-effect
       effect="bspline"
       id="path-effect879"
       is_visible="true"
       lpeversion="1"
       weight="33.333333"
       steps="2"
       helper_size="0"
       apply_no_weight="true"
       apply_with_weight="true"
       only_selected="false" />
    <inkscape:path-effect
       effect="bspline"
       id="path-effect869"
       is_visible="true"
       lpeversion="1"
       weight="33.333333"
       steps="2"
       helper_size="0"
       apply_no_weight="true"
       apply_with_weight="true"
       only_selected="false" />
    <filter
       id="filter1508"
       style="color-interpolation-filters:sRGB;"
       inkscape:menu-tooltip="Gives a canvas like HSL sensitive transparency."
       inkscape:menu="Overlays"
       inkscape:label="Canvas Transparency">
      <feTurbulence
         id="feTurbulence1492"
         type="turbulence"
         baseFrequency="0.3"
         numOctaves="10"
         result="result1" />
      <feColorMatrix
         id="feColorMatrix1494"
         type="luminanceToAlpha"
         in="SourceGraphic"
         result="result0" />
      <feColorMatrix
         id="feColorMatrix1496"
         result="result2"
         values="1 0 0 0 0 0 1 0 0 0 0 0 1 0 0 0 0 0 0.4 0 " />
      <feComposite
         id="feComposite1498"
         in2="result1"
         operator="over"
         in="result2" />
      <feColorMatrix
         id="feColorMatrix1500"
         result="result91"
         values="1 0 0 0 0 0 1 0 0 0 0 0 1 0 0 0 0 0 10 -4 " />
      <feComposite
         id="feComposite1502"
         in2="result91"
         in="SourceGraphic"
         operator="out" />
      <feGaussianBlur
         id="feGaussianBlur1504"
         stdDeviation="0.7" />
      <feColorMatrix
         id="feColorMatrix1506"
         values="1 0 0 0 0 0 1 0 0 0 0 0 1 0 0 0 0 0 1 0 " />
    </filter>
    <filter
       id="filter1522"
       style="color-interpolation-filters:sRGB;"
       inkscape:menu-tooltip="Gives a pointillist HSL sensitive transparency"
       inkscape:menu="Overlays"
       inkscape:label="Dots Transparency">
      <feTurbulence
         id="feTurbulence1510"
         seed="50"
         type="fractalNoise"
         baseFrequency="1"
         numOctaves="3"
         result="result1" />
      <feColorMatrix
         id="feColorMatrix1512"
         type="luminanceToAlpha"
         in="SourceGraphic"
         result="result0" />
      <feColorMatrix
         id="feColorMatrix1514"
         result="result2"
         values="1 0 0 0 0 0 1 0 0 0 0 0 1 0 0 0 0 0 0.7 0 " />
      <feComposite
         id="feComposite1516"
         result="result3"
         in2="result2"
         operator="over"
         in="result1" />
      <feColorMatrix
         id="feColorMatrix1518"
         result="result91"
         values="1 0 0 0 0 0 1 0 0 0 0 0 1 0 0 0 0 0 5 -3.2 " />
      <feComposite
         id="feComposite1520"
         in2="result91"
         result="result4"
         in="SourceGraphic"
         operator="out" />
    </filter>
    <clipPath
       id="clipPath1546"
       clipPathUnits="userSpaceOnUse">
      <rect
         y="87.680588"
         x="48.071419"
         height="67.918159"
         width="101.41367"
         id="rect1548"
         style="opacity:0.99;fill:#44548e;fill-opacity:1;stroke:#44548e;stroke-width:0.504;stroke-linecap:round;stroke-opacity:1;paint-order:stroke fill markers" />
    </clipPath>
    <clipPath
       clipPathUnits="userSpaceOnUse"
       id="clipPath1501">
      <rect
         style="opacity:0.99;fill:#498086;stroke:#498086;stroke-width:1.173;stroke-linecap:round;paint-order:stroke fill markers"
         id="rect1503"
         width="111.40696"
         height="78.249763"
         x="168.98178"
         y="-183.69376" />
    </clipPath>
    <clipPath
       id="clipPath265"
       clipPathUnits="userSpaceOnUse">
      <rect
         y="-170.35165"
         x="161.39368"
         height="83.35276"
         width="117.06287"
         id="rect267"
         style="opacity:0.99;fill:#ffe136;stroke:#ffe136;stroke-width:1.173;stroke-linecap:round;paint-order:stroke fill markers" />
    </clipPath>
  </defs>
  <sodipodi:namedview
     id="base"
     pagecolor="#ffffff"
     bordercolor="#666666"
     borderopacity="1.0"
     inkscape:pageopacity="0.0"
     inkscape:pageshadow="2"
     inkscape:zoom="0.98994949"
     inkscape:cx="319.67621"
     inkscape:cy="204.25862"
     inkscape:document-units="mm"
     inkscape:current-layer="layer1"
     inkscape:document-rotation="0"
     showgrid="false"
     inkscape:window-width="1920"
     inkscape:window-height="1050"
     inkscape:window-x="0"
     inkscape:window-y="0"
     inkscape:window-maximized="1"
     fit-margin-top="0"
     fit-margin-left="0"
     fit-margin-right="0"
     fit-margin-bottom="0" />
  <metadata
     id="metadata5">
    <rdf:RDF>
      <cc:Work
         rdf:about="">
        <dc:format>image/svg+xml</dc:format>
        <dc:type
           rdf:resource="http://purl.org/dc/dcmitype/StillImage" />
        <dc:title></dc:title>
      </cc:Work>
    </rdf:RDF>
  </metadata>
  <g
     inkscape:label="Layer 1"
     inkscape:groupmode="layer"
     id="layer1"
     transform="translate(-45.903946,-42.411727)">
    <g
       aria-label="Pronatopia"
       id="text889"
       style="font-style:normal;font-variant:normal;font-weight:normal;font-stretch:normal;font-size:15.3046px;line-height:1.25;font-family:'Latin Modern Math';-inkscape-font-specification:'Latin Modern Math';text-align:center;letter-spacing:0px;word-spacing:0px;text-anchor:middle;fill:#000000;fill-opacity:1;stroke:#000000;stroke-width:0.873;stroke-miterlimit:4;stroke-dasharray:none"
       transform="translate(-0.44991947,-1.0984126)">
      <g
         id="g937"
         transform="translate(-1.7175526,2.8895441)"
         style="stroke-width:1.173;stroke-miterlimit:4;stroke-dasharray:none">
        <g
           id="g957"
           transform="translate(0,-47.059991)">
          <g
             inkscape:export-ydpi="50"
             inkscape:export-xdpi="50"
             inkscape:export-filename="/home/jorge/Pictures/pronat.png"
             clip-path="url(#clipPath1546)"
             id="g1542">
            <g
               transform="translate(2.1674721,-1.7911315)"
               id="g894"
               style="stroke:none;stroke-width:1.173;stroke-miterlimit:4;stroke-dasharray:none;filter:url(#filter1522)">
              <path
                 id="rect863"
                 style="opacity:0.99;fill:#989879;fill-opacity:1;stroke:#babaa4;stroke-width:1.173;stroke-linecap:round;stroke-miterlimit:4;stroke-dasharray:none;stroke-opacity:1;paint-order:stroke fill markers"
                 d="m 45.903946,89.471718 c 33.804558,0 67.609114,0 101.413674,0 0,22.639392 0,45.278772 0,67.918162 -33.80456,0 -67.609116,0 -101.413674,0 0,-22.63939 0,-45.27877 0,-67.918162 z" />
              <path
                 id="rect865"
                 style="opacity:0.99;fill:#4a4a91;fill-opacity:1;stroke:#919191;stroke-width:4.43339;stroke-linecap:round;stroke-miterlimit:4;stroke-dasharray:none;stroke-opacity:1;paint-order:stroke fill markers;filter:url(#filter1508)"
                 d="m 516.34961,414.25781 c -36.672,0.5779 -62.22836,31.14196 -82.7312,57.88627 -15.88785,21.75745 -37.73043,43.24176 -66.56122,43.31633 -37.17212,1.51495 -76.92253,-3.40869 -110.63976,16.06871 -30.45201,16.02497 -55.88926,39.69875 -80.55024,63.33026 126.97461,0 253.94922,0 380.92383,0 0,-56.7207 0,-113.44141 0,-170.16211 -12.3704,-6.65301 -26.32419,-10.71141 -40.44141,-10.43946 z"
                 transform="scale(0.26458333)" />
              <path
                 id="rect859"
                 style="opacity:0.99;fill:#77772b;fill-opacity:1;stroke:#77772b;stroke-width:1.173;stroke-linecap:round;stroke-miterlimit:4;stroke-dasharray:none;stroke-opacity:1;paint-order:stroke fill markers"
                 d="m 45.903946,89.471718 c 0,14.914162 0,29.828332 0,44.742492 9.270424,3.1937 19.352602,-2.34432 23.817301,-10.58736 3.487997,-5.4705 4.356144,-12.38999 1.953845,-18.46996 -2.44791,-6.314691 5.987554,-7.801497 9.969603,-9.924533 3.081652,-0.473026 7.942972,-7.005368 2.306221,-5.760639 -12.682323,0 -25.364647,0 -38.04697,0 z" />
            </g>
            <text
               id="text1570"
               y="103.90739"
               x="26.205061"
               style="font-style:normal;font-variant:normal;font-weight:normal;font-stretch:normal;font-size:11.2889px;line-height:1.25;font-family:'Latin Modern Math';-inkscape-font-specification:'Latin Modern Math';text-align:center;letter-spacing:0px;word-spacing:0px;text-anchor:middle;fill:#000000;fill-opacity:1;stroke:none;stroke-width:0.310356"
               xml:space="preserve"><tspan
                 style="stroke-width:0.310356"
                 y="103.90739"
                 x="26.205061"
                 id="tspan1568"
                 sodipodi:role="line" /></text>
            <path
               d="m 52.996947,117.3078 q 0,-0.18492 0.171711,-0.44909 0.171712,-0.26418 0.317007,-0.26418 0.171712,0 0.396258,-0.317 0.211337,-0.31701 1.294443,-0.43589 1.386903,-0.13208 1.822786,-0.13208 0.554762,0 1.360486,0.14529 2.311505,0.39626 3.249316,1.17557 0.93781,0.7661 0.93781,2.32471 0,1.3869 -0.475509,2.62851 -0.462301,1.24161 -1.201983,2.07375 -0.739681,0.83214 -1.558615,1.38691 -0.818933,0.54155 -1.59824,0.72647 -0.330215,0.0793 -0.488718,0.25096 -0.158504,0.18492 -0.171712,0.34343 -0.01321,0.1585 -0.132086,0.27738 -0.105669,0.13208 -0.356632,0.13208 -0.409467,0 -0.409467,-0.1585 0,-0.0925 -0.105669,-0.1585 -0.105669,-0.0661 -0.237755,-0.10567 -0.118877,-0.0396 -0.224546,-0.17171 -0.105669,-0.13209 -0.105669,-0.34343 0,-0.35663 0.250964,-0.44909 0.250963,-0.0925 0.250963,-1.12273 0,-0.54155 -0.06604,-1.09632 -0.06604,-0.56797 -0.224546,-1.7039 -0.145295,-1.14915 -0.277381,-2.53606 l -0.211337,-2.28508 -0.47551,0.0396 q -0.303798,0.0264 -0.581178,0.22455 -0.277381,0.18492 -0.449093,0.35663 -0.171711,0.17171 -0.264172,0.17171 -0.09246,0 -0.264172,-0.18492 -0.171711,-0.19813 -0.171711,-0.34342 z m 3.156855,0.0396 q 0,0.40947 0.369841,3.10402 0.383049,2.69456 0.383049,3.51349 0,0.26417 -0.02642,0.52835 l -0.105669,0.67364 h 0.713265 q 1.175565,0 2.668137,-1.66429 0.84535,-0.95102 1.135939,-1.91525 0.303798,-0.96422 0.303798,-2.35113 0,-0.58117 -0.09246,-0.80572 -0.07925,-0.22455 -0.383049,-0.56797 -0.303798,-0.33022 -0.686848,-0.48872 -0.383049,-0.1585 -1.254817,-0.33021 -1.585032,-0.26418 -2.390756,-0.26418 -0.369841,0 -0.501927,0.0925 -0.132086,0.0925 -0.132086,0.47551 z"
               style="font-size:13.2086px;line-height:1.25;font-family:Purisa;-inkscape-font-specification:Purisa;text-align:center;letter-spacing:0px;word-spacing:0px;text-anchor:middle;fill:#989879;fill-opacity:1;stroke:#989879;stroke-width:1.173;stroke-miterlimit:4;stroke-dasharray:none;stroke-opacity:1"
               id="path1697" />
            <path
               d="m 71.032877,123.33092 q 0.06604,0 0.06604,0.10567 0,0.23775 -0.356632,0.7661 -0.343424,0.52834 -0.739682,0.87176 -1.386903,1.2284 -2.773806,1.2284 -0.528344,0 -1.056688,-0.23775 -0.515135,-0.25096 -0.964228,-0.70006 -0.449092,-0.44909 -0.726473,-1.20198 -0.27738,-0.75289 -0.27738,-1.67749 0,-0.56797 0.132086,-0.96423 0.264172,-0.80572 1.122731,-1.70391 0.871767,-0.89818 1.637866,-0.89818 0.211338,0 0.634013,0.0396 0.634013,0.0528 0.884976,0.13209 0.264172,0.0793 0.594387,0.33021 0.422675,0.31701 0.726473,0.81894 0.317007,0.48872 0.317007,0.81893 0,0.42268 -0.330215,0.64722 -0.330215,0.21134 -1.281235,0.42268 -1.241608,0.27738 -2.430382,0.34342 l -1.2284,0.066 v 0.52835 q 0,0.97743 0.911394,1.8492 0.686847,0.66043 1.426528,0.66043 0.56797,0 1.201983,-0.34342 0.647221,-0.35663 1.096314,-0.77931 0.449092,-0.42267 0.858559,-0.7661 0.409466,-0.35663 0.554761,-0.35663 z m -2.126585,-3.2229 q -0.409466,-0.36984 -0.620804,-0.4623 -0.198129,-0.10567 -0.528344,-0.10567 -0.66043,0 -0.990645,0.13209 -0.317006,0.11887 -0.647221,0.50192 -1.003854,1.14915 -1.003854,1.5322 0,0.17171 0.317007,0.17171 1.201982,0 3.407818,-0.50192 0.66043,-0.15851 0.66043,-0.55476 0,-0.18492 -0.594387,-0.71327 z"
               style="font-size:13.2086px;line-height:1.25;font-family:Purisa;-inkscape-font-specification:Purisa;text-align:center;letter-spacing:0px;word-spacing:0px;text-anchor:middle;fill:#989879;fill-opacity:1;stroke:#989879;stroke-width:1.173;stroke-miterlimit:4;stroke-dasharray:none;stroke-opacity:1"
               id="path1699" />
            <path
               d="m 72.686428,121.52134 q 0,-2.47001 0.369841,-2.47001 0.06604,0 0.132086,0.0264 0.07925,0.0264 0.184921,0.19813 0.105668,0.1585 0.105668,0.44909 0,0.13209 -0.02642,0.44909 -0.02642,0.3038 -0.02642,0.68685 0,1.0699 0.118877,2.6021 0.118878,1.53219 0.250964,2.0077 0.132086,0.51514 0.449092,0.51514 0.303798,0 0.924602,-0.54155 0.766099,-0.67364 1.466155,-2.10017 0.713264,-1.42653 0.990645,-2.85306 0.264172,-1.40011 0.435884,-1.49257 0.132086,-0.0925 0.27738,-0.0925 0.317007,0 0.317007,0.36984 0,0.18492 -0.198129,1.54541 -0.184921,1.36048 -0.184921,1.95487 0,0.83214 0.330215,2.07375 0.343424,1.24161 0.343424,1.40011 0,0.13209 -0.105669,0.21134 -0.105669,0.0793 -0.18492,0.0925 -0.06604,0.0264 -0.105669,0.0264 -0.237755,0 -0.47551,-0.67364 -0.224546,-0.67364 -0.409466,-1.34728 -0.171712,-0.67364 -0.303798,-0.67364 -0.02642,0 -0.05284,0.0132 -0.02642,0.0132 -0.06604,0.0528 -0.02642,0.0264 -0.05283,0.0661 -0.02642,0.0396 -0.07925,0.10567 -0.03963,0.066 -0.07925,0.11887 -0.02642,0.0528 -0.09246,0.15851 -0.06604,0.10567 -0.105669,0.17171 -0.581179,0.91139 -1.294443,1.51899 -0.700056,0.60759 -1.188774,0.60759 -0.554761,0 -0.832142,-0.25096 -0.27738,-0.23776 -0.449092,-0.87177 -0.158503,-0.63401 -0.290589,-2.00771 -0.09246,-0.87176 -0.09246,-2.04733 z"
               style="font-size:13.2086px;line-height:1.25;font-family:Purisa;-inkscape-font-specification:Purisa;text-align:center;letter-spacing:0px;word-spacing:0px;text-anchor:middle;fill:#4f4f8e;fill-opacity:1;stroke:#4f4f8e;stroke-width:1.173;stroke-miterlimit:4;stroke-dasharray:none;stroke-opacity:1"
               id="path1701" />
            <path
               d="m 82.770782,116.99079 q 0,-0.48872 -0.09246,-1.24161 -0.09246,-0.75289 -0.09246,-1.25481 0,-0.25097 0.01321,-0.33022 0.03963,-0.21134 0.145295,-0.33021 0.118877,-0.13209 0.237754,-0.13209 0.158504,0 0.224547,0.14529 0.03963,0.0925 0.118877,0.97744 0.07925,0.88498 0.145295,1.73033 0.06604,0.84535 0.09246,0.87177 0.01321,0.0132 0.03963,0.0132 0.105668,0 0.607595,-0.10566 0.515136,-0.11888 0.845351,-0.11888 0.66043,0 0.66043,0.29059 0,0.29059 -1.452946,0.64722 l -0.66043,0.1585 0.07925,2.23226 q 0.06604,1.96808 0.250964,3.68519 0.18492,1.70391 0.18492,1.92846 0,0.40947 -0.303798,0.40947 -0.237755,0 -0.396258,-0.42268 -0.145294,-0.42267 -0.145294,-1.09631 0,-0.48872 -0.03963,-0.99065 -0.03963,-0.51513 -0.145295,-1.58503 -0.09246,-1.0831 -0.18492,-2.21904 -0.03963,-0.6076 -0.06604,-0.93781 -0.01321,-0.33022 -0.03963,-0.48872 -0.02642,-0.15851 -0.03963,-0.18492 -0.01321,-0.0396 -0.05283,-0.0396 -0.211338,0 -1.017062,0.1453 -0.805725,0.14529 -1.003854,0.14529 -0.383049,0 -0.383049,-0.31701 0,-0.22454 0.475509,-0.38305 0.488718,-0.1585 1.096314,-0.27738 0.607596,-0.13208 0.75289,-0.22454 0.145295,-0.10567 0.145295,-0.70006 z"
               style="font-size:13.2086px;line-height:1.25;font-family:Purisa;-inkscape-font-specification:Purisa;text-align:center;letter-spacing:0px;word-spacing:0px;text-anchor:middle;fill:#4f4f8e;fill-opacity:1;stroke:#4f4f8e;stroke-width:1.173;stroke-miterlimit:4;stroke-dasharray:none;stroke-opacity:1"
               id="path1703" />
            <path
               d="m 94.044734,123.33092 q 0.06604,0 0.06604,0.10567 0,0.23775 -0.356632,0.7661 -0.343424,0.52834 -0.739682,0.87176 -1.386903,1.2284 -2.773806,1.2284 -0.528344,0 -1.056688,-0.23775 -0.515135,-0.25096 -0.964228,-0.70006 -0.449092,-0.44909 -0.726473,-1.20198 -0.27738,-0.75289 -0.27738,-1.67749 0,-0.56797 0.132086,-0.96423 0.264172,-0.80572 1.122731,-1.70391 0.871767,-0.89818 1.637866,-0.89818 0.211338,0 0.634013,0.0396 0.634013,0.0528 0.884976,0.13209 0.264172,0.0793 0.594387,0.33021 0.422675,0.31701 0.726473,0.81894 0.317007,0.48872 0.317007,0.81893 0,0.42268 -0.330215,0.64722 -0.330215,0.21134 -1.281235,0.42268 -1.241608,0.27738 -2.430382,0.34342 l -1.2284,0.066 v 0.52835 q 0,0.97743 0.911394,1.8492 0.686847,0.66043 1.426528,0.66043 0.56797,0 1.201983,-0.34342 0.647221,-0.35663 1.096314,-0.77931 0.449092,-0.42267 0.858559,-0.7661 0.409466,-0.35663 0.554761,-0.35663 z m -2.126585,-3.2229 q -0.409466,-0.36984 -0.620804,-0.4623 -0.198129,-0.10567 -0.528344,-0.10567 -0.66043,0 -0.990645,0.13209 -0.317006,0.11887 -0.647221,0.50192 -1.003854,1.14915 -1.003854,1.5322 0,0.17171 0.317007,0.17171 1.201982,0 3.407818,-0.50192 0.66043,-0.15851 0.66043,-0.55476 0,-0.18492 -0.594387,-0.71327 z"
               style="font-size:13.2086px;line-height:1.25;font-family:Purisa;-inkscape-font-specification:Purisa;text-align:center;letter-spacing:0px;word-spacing:0px;text-anchor:middle;fill:#4f4f8e;fill-opacity:1;stroke:#4f4f8e;stroke-width:1.173;stroke-miterlimit:4;stroke-dasharray:none;stroke-opacity:1"
               id="path1705" />
            <path
               d="m 100.16279,119.75139 q 0.22455,0 0.39626,0.14529 0.17171,0.13209 0.17171,0.22455 0,0.1585 -0.50192,0.35663 -0.818937,0.33022 -1.677496,1.59824 -0.84535,1.25482 -1.030271,2.43039 -0.211337,1.33406 -0.343423,1.74353 -0.132086,0.42268 -0.343424,0.42268 -0.18492,0 -0.290589,-0.13209 -0.09246,-0.13209 -0.132086,-0.29059 -0.02642,-0.1585 -0.06604,-0.58118 -0.01321,-0.0793 -0.01321,-0.11888 -0.317006,-3.32856 -0.317006,-5.25702 0,-0.68685 0.05283,-0.84535 0.145295,-0.42267 0.369841,-0.42267 0.211338,0 0.211338,0.35663 0,0.59439 0.18492,1.91525 0.18492,1.32086 0.277381,1.32086 0.118877,0 0.488718,-0.72648 0.462301,-0.85856 1.2284,-1.49257 0.779307,-0.64722 1.334067,-0.64722 z"
               style="font-size:13.2086px;line-height:1.25;font-family:Purisa;-inkscape-font-specification:Purisa;text-align:center;letter-spacing:0px;word-spacing:0px;text-anchor:middle;fill:#4f4f8e;fill-opacity:1;stroke:#4f4f8e;stroke-width:1.173;stroke-miterlimit:4;stroke-dasharray:none;stroke-opacity:1"
               id="path1707" />
            <path
               d="m 106.41562,119.59289 q -0.6076,0 -1.29444,0.25096 -0.67364,0.25096 -1.20199,0.51513 -0.52834,0.25097 -0.76609,0.25097 -0.15851,0 -0.15851,-0.13209 0,-0.18492 0.0793,-0.317 0.0793,-0.13209 0.29059,-0.25097 0.21134,-0.11888 0.39626,-0.19813 0.19813,-0.0793 0.62081,-0.22454 0.42267,-0.15851 0.72647,-0.29059 0.71326,-0.27738 1.20198,-0.27738 0.87177,0 1.36049,0.95102 0.23775,0.4623 0.27738,0.85856 0.0396,0.38304 0.066,2.17941 0.0132,1.00386 0.0396,1.69071 0.0264,0.67363 0.0528,0.85855 l 0.0264,0.17172 q 0,0.18492 -0.17171,0.39625 -0.15851,0.21134 -0.23776,0.21134 -0.26417,0 -0.40946,-0.83214 -0.1453,-0.84535 -0.15851,-0.84535 -0.0396,0 -0.11888,0.14529 -0.26417,0.43589 -1.06989,0.96423 -0.79252,0.51514 -1.33407,0.51514 -0.33022,0 -0.77931,-0.11888 -0.43588,-0.13209 -0.63401,-0.27738 -0.1453,-0.11888 -0.25096,-0.47551 -0.0925,-0.35663 -0.0925,-0.72647 0,-0.55476 0.29058,-0.95102 0.3038,-0.40947 1.0699,-0.83214 0.83214,-0.48872 1.61145,-0.48872 0.31701,0 0.52834,0.10567 0.21134,0.10567 0.31701,0.22454 0.10567,0.10567 0.17171,0.10567 0.0528,0 0.25097,0.1453 0.19813,0.13208 0.21133,0.13208 0.0528,0 0.0528,-0.29059 0,-1.76995 -0.25097,-2.4568 -0.23775,-0.68684 -0.71326,-0.68684 z m 0.59439,4.09466 q 0,-0.0528 -0.0396,-0.11888 -0.0264,-0.0793 -0.13208,-0.17171 -0.0925,-0.10567 -0.25097,-0.18492 -0.14529,-0.0925 -0.40946,-0.14529 -0.26418,-0.0661 -0.59439,-0.0661 -0.56797,0 -1.00386,0.19813 -0.42267,0.19813 -0.63401,0.50193 -0.21134,0.3038 -0.317,0.56797 -0.0925,0.25096 -0.0925,0.44909 0,0.33022 0.0528,0.4491 0.066,0.11887 0.3038,0.25096 0.29059,0.14529 0.52834,0.14529 0.44909,0 1.10952,-0.317 0.67364,-0.33022 0.67364,-0.47551 0,-0.10567 0.39626,-0.50193 0.40947,-0.40947 0.40947,-0.58118 z"
               style="font-size:13.2086px;line-height:1.25;font-family:Purisa;-inkscape-font-specification:Purisa;text-align:center;letter-spacing:0px;word-spacing:0px;text-anchor:middle;fill:#4f4f8e;fill-opacity:1;stroke:#4f4f8e;stroke-width:1.173;stroke-miterlimit:4;stroke-dasharray:none;stroke-opacity:1"
               id="path1709" />
            <path
               d="m 110.65083,119.02492 q 0,-0.4491 0.26418,-0.4491 0.17171,0 0.25096,0.39626 0.0793,0.38305 0.29059,2.2983 0.23775,2.07375 0.27738,2.16621 0.0528,-0.0528 0.38305,-1.0699 0.3038,-0.95102 0.47551,-1.32086 0.18492,-0.38305 0.63401,-1.01706 0.96423,-1.33407 1.49257,-1.33407 0.34343,0 0.64722,0.4623 0.40947,0.6076 0.50193,1.20198 0.0925,0.59439 0.13209,2.81344 0.0264,1.42653 0.0264,1.6907 0,0.66043 -0.0528,0.96423 -0.0396,0.29058 -0.13209,0.35663 -0.0793,0.0792 -0.29058,0.0925 -0.11888,0 -0.15851,-0.10567 -0.0396,-0.0925 -0.0396,-0.44909 0,-0.19813 0.0264,-0.84535 0.0264,-0.66043 0.0264,-1.10953 0,-1.12273 -0.0925,-2.19262 -0.0793,-1.08311 -0.19813,-1.38691 -0.066,-0.17171 -0.21134,-0.35663 -0.14529,-0.18492 -0.27738,-0.18492 -0.27738,0 -0.88497,0.95102 -0.6076,0.93781 -1.04348,1.98129 -0.40947,1.00385 -0.55476,1.50578 -0.1453,0.50193 -0.22455,1.33407 -0.14529,1.34728 -0.21134,1.34728 -0.10567,0 -0.3038,-0.22455 -0.14529,-0.1453 -0.19812,-0.6208 -0.0528,-0.48872 -0.1453,-1.91525 -0.0925,-1.43974 -0.25096,-2.90589 -0.15851,-1.51899 -0.15851,-2.07375 z"
               style="font-size:13.2086px;line-height:1.25;font-family:Purisa;-inkscape-font-specification:Purisa;text-align:center;letter-spacing:0px;word-spacing:0px;text-anchor:middle;fill:#4f4f8e;fill-opacity:1;stroke:#4f4f8e;stroke-width:1.173;stroke-miterlimit:4;stroke-dasharray:none;stroke-opacity:1"
               id="path1711" />
            <path
               d="m 119.18545,120.24011 q 1.03027,-0.96423 1.73033,-1.26803 0.71326,-0.317 1.79637,-0.317 1.63786,0 2.04733,0.97743 0.25096,0.58118 0.25096,1.42653 0,1.40011 -0.6208,2.83985 -0.62081,1.42653 -1.5322,1.98129 -0.88498,0.54155 -1.86241,0.54155 -1.36049,0 -2.17942,-0.93781 -0.56797,-0.66043 -0.73968,-1.10952 -0.17172,-0.4623 -0.17172,-1.30765 0,-1.59824 1.28124,-2.82664 z m 2.12658,5.42873 q 1.10953,0 2.00771,-1.51899 0.91139,-1.53219 0.91139,-3.46065 0,-0.29059 -0.066,-0.43588 -0.066,-0.1453 -0.23775,-0.29059 -0.48872,-0.40947 -1.04348,-0.40947 -0.0925,0 -0.21134,0.0264 -0.10567,0.0132 -0.35663,0.0528 -0.25097,0.0264 -0.59439,0.066 -0.4623,0.0661 -0.73968,0.21134 -0.26417,0.13209 -0.67364,0.51514 -0.77931,0.73968 -1.10952,1.37369 -0.33022,0.62081 -0.33022,1.36049 0,1.09631 0.67364,1.79637 0.68685,0.70005 1.76995,0.71326 z"
               style="font-size:13.2086px;line-height:1.25;font-family:Purisa;-inkscape-font-specification:Purisa;text-align:center;letter-spacing:0px;word-spacing:0px;text-anchor:middle;fill:#757528;fill-opacity:1;stroke:#757528;stroke-width:1.173;stroke-miterlimit:4;stroke-dasharray:none;stroke-opacity:1"
               id="path1713" />
            <path
               d="m 126.91763,119.97594 q 0.36984,-0.33022 0.36984,-0.56797 0,-0.23776 0.1453,-0.56797 0.1585,-0.34343 0.44909,-0.34343 0.18492,0 0.31701,0.21134 0.14529,0.19813 0.3038,0.19813 0.11887,0 0.97743,-0.19813 0.85856,-0.21134 1.50578,-0.21134 0.54156,0 1.20199,0.1453 1.37369,0.317 1.37369,1.70391 0,1.05668 -0.81893,2.81343 -0.54156,1.16235 -1.32086,1.79637 -0.77931,0.6208 -1.66429,0.6208 -0.25096,0 -0.38305,-0.0264 l -0.60759,-0.0925 0.14529,0.71327 q 0.47551,2.24546 0.47551,2.81343 0,0.26417 -0.0925,0.34342 -0.0925,0.0925 -0.317,0.0925 -0.23776,0 -0.34343,-0.11887 -0.0925,-0.10567 -0.19813,-0.4623 -0.51513,-1.84921 -0.83214,-5.5212 -0.14529,-1.80958 -0.25096,-2.20584 -0.0925,-0.40946 -0.38305,-0.40946 -0.42268,0 -0.42268,-0.25097 0,-0.14529 0.36984,-0.4755 z m 1.96809,4.38525 q 0.19812,0 0.4623,0.17171 0.26417,0.15851 0.44909,0.15851 0.52834,0 1.21519,-0.67364 0.68685,-0.68685 1.16236,-1.65108 0.48871,-0.96423 0.48871,-1.71712 0,-0.40946 -0.18492,-0.73968 -0.17171,-0.33021 -0.30379,-0.36984 -0.22455,-0.0925 -0.77931,-0.0925 -1.2284,0 -2.17942,0.3038 l -0.88498,0.29059 0.0264,0.84535 q 0.0264,0.84535 0.1453,2.153 0.066,0.77931 0.14529,1.04348 0.0793,0.26417 0.23776,0.27738 z"
               style="font-size:13.2086px;line-height:1.25;font-family:Purisa;-inkscape-font-specification:Purisa;text-align:center;letter-spacing:0px;word-spacing:0px;text-anchor:middle;fill:#757528;fill-opacity:1;stroke:#757528;stroke-width:1.173;stroke-miterlimit:4;stroke-dasharray:none;stroke-opacity:1"
               id="path1715" />
            <path
               d="m 135.90341,118.64187 q 0.18492,-0.15851 0.317,-0.15851 0.27738,0 0.39626,0.88498 0.13209,0.87177 0.23776,3.36819 0.0528,1.16236 0.0528,2.10017 0,0.93781 -0.0793,1.03027 -0.1585,0.19813 -0.39626,0.19813 -0.33021,0 -0.40947,-0.27738 -0.066,-0.17171 -0.19812,-2.66814 -0.13209,-2.50963 -0.13209,-3.48707 0,-0.81893 0.21134,-0.99064 z m -0.0793,-3.10402 q 0,-0.18492 0.14529,-0.36985 0.1585,-0.18492 0.27738,-0.18492 0.13209,0 0.35663,0.18492 0.23776,0.17172 0.23776,0.4491 0,0.19813 -0.11888,0.34342 -0.10567,0.13209 -0.29059,0.13209 -0.21134,0 -0.40947,-0.15851 -0.19812,-0.1585 -0.19812,-0.39625 z"
               style="font-size:13.2086px;line-height:1.25;font-family:Purisa;-inkscape-font-specification:Purisa;text-align:center;letter-spacing:0px;word-spacing:0px;text-anchor:middle;fill:#757528;fill-opacity:1;stroke:#757528;stroke-width:1.173;stroke-miterlimit:4;stroke-dasharray:none;stroke-opacity:1"
               id="path1717" />
            <path
               d="m 142.84246,119.59289 q -0.60759,0 -1.29444,0.25096 -0.67364,0.25096 -1.20198,0.51513 -0.52835,0.25097 -0.7661,0.25097 -0.15851,0 -0.15851,-0.13209 0,-0.18492 0.0793,-0.317 0.0793,-0.13209 0.29059,-0.25097 0.21133,-0.11888 0.39625,-0.19813 0.19813,-0.0793 0.62081,-0.22454 0.42267,-0.15851 0.72647,-0.29059 0.71327,-0.27738 1.20198,-0.27738 0.87177,0 1.36049,0.95102 0.23775,0.4623 0.27738,0.85856 0.0396,0.38304 0.066,2.17941 0.0132,1.00386 0.0396,1.69071 0.0264,0.67363 0.0528,0.85855 l 0.0264,0.17172 q 0,0.18492 -0.17171,0.39625 -0.1585,0.21134 -0.23776,0.21134 -0.26417,0 -0.40946,-0.83214 -0.1453,-0.84535 -0.15851,-0.84535 -0.0396,0 -0.11887,0.14529 -0.26418,0.43589 -1.0699,0.96423 -0.79252,0.51514 -1.33407,0.51514 -0.33021,0 -0.77931,-0.11888 -0.43588,-0.13209 -0.63401,-0.27738 -0.14529,-0.11888 -0.25096,-0.47551 -0.0925,-0.35663 -0.0925,-0.72647 0,-0.55476 0.29059,-0.95102 0.30379,-0.40947 1.06989,-0.83214 0.83214,-0.48872 1.61145,-0.48872 0.31701,0 0.52835,0.10567 0.21133,0.10567 0.317,0.22454 0.10567,0.10567 0.17171,0.10567 0.0528,0 0.25097,0.1453 0.19813,0.13208 0.21134,0.13208 0.0528,0 0.0528,-0.29059 0,-1.76995 -0.25096,-2.4568 -0.23776,-0.68684 -0.71327,-0.68684 z m 0.59439,4.09466 q 0,-0.0528 -0.0396,-0.11888 -0.0264,-0.0793 -0.13208,-0.17171 -0.0925,-0.10567 -0.25097,-0.18492 -0.14529,-0.0925 -0.40946,-0.14529 -0.26417,-0.0661 -0.59439,-0.0661 -0.56797,0 -1.00385,0.19813 -0.42268,0.19813 -0.63402,0.50193 -0.21133,0.3038 -0.317,0.56797 -0.0925,0.25096 -0.0925,0.44909 0,0.33022 0.0528,0.4491 0.066,0.11887 0.3038,0.25096 0.29059,0.14529 0.52834,0.14529 0.4491,0 1.10953,-0.317 0.67363,-0.33022 0.67363,-0.47551 0,-0.10567 0.39626,-0.50193 0.40947,-0.40947 0.40947,-0.58118 z"
               style="font-size:13.2086px;line-height:1.25;font-family:Purisa;-inkscape-font-specification:Purisa;text-align:center;letter-spacing:0px;word-spacing:0px;text-anchor:middle;fill:#757528;fill-opacity:1;stroke:#757528;stroke-width:1.173;stroke-miterlimit:4;stroke-dasharray:none;stroke-opacity:1"
               id="path1719" />
          </g>
        </g>
      </g>
    </g>
  </g>
</svg>
