<?xml version="1.0" encoding="UTF-8" standalone="no"?>
<!-- Created with Inkscape (http://www.inkscape.org/) -->

<svg
   xmlns:dc="http://purl.org/dc/elements/1.1/"
   xmlns:cc="http://creativecommons.org/ns#"
   xmlns:rdf="http://www.w3.org/1999/02/22-rdf-syntax-ns#"
   xmlns:svg="http://www.w3.org/2000/svg"
   xmlns="http://www.w3.org/2000/svg"
   xmlns:sodipodi="http://sodipodi.sourceforge.net/DTD/sodipodi-0.dtd"
   xmlns:inkscape="http://www.inkscape.org/namespaces/inkscape"
   width="44.955738mm"
   height="80.917717mm"
   viewBox="0 0 44.955736 80.917717"
   version="1.1"
   id="svg8"
   inkscape:version="0.92.3 (2405546, 2018-03-11)"
   sodipodi:docname="err404.svg">
  <defs
     id="defs2">
    <inkscape:path-effect
       effect="bspline"
       id="path-effect1126"
       is_visible="true"
       weight="33.333333"
       steps="2"
       helper_size="0"
       apply_no_weight="true"
       apply_with_weight="true"
       only_selected="false" />
  </defs>
  <sodipodi:namedview
     id="base"
     pagecolor="#ffffff"
     bordercolor="#666666"
     borderopacity="1.0"
     inkscape:pageopacity="0.0"
     inkscape:pageshadow="2"
     inkscape:zoom="1.4"
     inkscape:cx="-95.177086"
     inkscape:cy="115.51603"
     inkscape:document-units="mm"
     inkscape:current-layer="g1424"
     showgrid="false"
     inkscape:window-width="1920"
     inkscape:window-height="1050"
     inkscape:window-x="0"
     inkscape:window-y="0"
     inkscape:window-maximized="1"
     fit-margin-top="0"
     fit-margin-left="0"
     fit-margin-right="0"
     fit-margin-bottom="0"
     showguides="false"
     units="mm" />
  <metadata
     id="metadata5">
    <rdf:RDF>
      <cc:Work
         rdf:about="">
        <dc:format>image/svg+xml</dc:format>
        <dc:type
           rdf:resource="http://purl.org/dc/dcmitype/StillImage" />
        <dc:title></dc:title>
      </cc:Work>
    </rdf:RDF>
  </metadata>
  <g
     inkscape:label="sans"
     inkscape:groupmode="layer"
     id="layer1"
     transform="translate(-165.19352,186.04151)"
     style="display:inline">
    <rect
       style="opacity:1;fill:#ffffff;fill-opacity:1;stroke:#ffffff;stroke-width:1.46404612;stroke-linecap:round;stroke-linejoin:miter;stroke-miterlimit:4;stroke-dasharray:none;stroke-dashoffset:0;stroke-opacity:1;paint-order:stroke fill markers"
       id="rect29"
       width="1.8040693"
       height="7.91994"
       x="70.553246"
       y="115.95624" />
    <rect
       style="opacity:1;fill:#ffffff;fill-opacity:1;stroke:#ffffff;stroke-width:1.44096947;stroke-linecap:round;stroke-linejoin:miter;stroke-miterlimit:4;stroke-dasharray:none;stroke-dashoffset:0;stroke-opacity:1;paint-order:stroke fill markers"
       id="rect31"
       width="5.4798884"
       height="12.851191"
       x="109.99183"
       y="116.70536" />
    <rect
       style="opacity:1;fill:#ffffff;fill-opacity:1;stroke:#ffffff;stroke-width:1.23808312;stroke-linecap:round;stroke-linejoin:miter;stroke-miterlimit:4;stroke-dasharray:none;stroke-dashoffset:0;stroke-opacity:1;paint-order:stroke fill markers"
       id="rect33"
       width="2.109097"
       height="13.484743"
       x="124.69981"
       y="115.10493" />
    <g
       id="g1226">
      <g
         id="g1244">
        <g
           id="g1273">
          <g
             transform="translate(-48.002976,0.37241416)"
             id="g1254">
            <g
               id="g1424"
               transform="matrix(0.72133653,0,0,1,35.812747,-0.26726953)">
              <g
                 id="g899">
                <path
                   style="fill:#ffffff;fill-opacity:1;stroke:#0e1111;stroke-width:0.89601582;stroke-linecap:butt;stroke-linejoin:miter;stroke-miterlimit:4;stroke-dasharray:none;stroke-opacity:1"
                   d="m 254.74895,-170.49657 c -0.23319,-2.79888 4.22847,-6.31803 8.67712,-9.32261 4.44864,-3.00459 8.8843,-5.49469 13.95655,-5.83721 5.07225,-0.34252 10.78127,1.46231 15.71578,3.65866 4.93451,2.19634 9.09459,4.7842 9.41868,7.53605 0.32408,2.75185 -3.18789,5.66781 -7.32402,8.50247 -4.13613,2.83465 -8.89616,5.58776 -14.05952,5.97732 -5.16337,0.38956 -10.72888,-1.58463 -15.97619,-3.61107 -5.2473,-2.02645 -10.17522,-4.10473 -10.4084,-6.90361 z"
                   id="path1124"
                   inkscape:connector-curvature="0"
                   inkscape:path-effect="#path-effect1126"
                   inkscape:original-d="m 250.05386,-169.77611 c 4.46188,-3.51937 8.92353,-7.03852 13.38493,-10.55741 4.43588,-2.49033 8.87153,-4.98043 13.30691,-7.47027 5.70926,1.80458 11.41828,3.60941 17.12704,5.41449 4.16034,2.58763 8.32043,5.17549 12.48028,7.7636 -3.51188,2.91585 -7.02385,5.83181 -10.53614,8.74808 -4.76,2.75298 -9.52002,5.50609 -14.28067,8.25966 -5.56594,-1.97466 -11.13145,-3.94884 -16.69791,-5.92304 -4.92813,-2.0787 -9.85605,-4.15697 -14.78444,-6.23511 z"
                   sodipodi:nodetypes="ccccccccc" />
                <path
                   transform="matrix(0.99677338,-0.08026727,0.15294192,0.98823518,0,0)"
                   style="opacity:1;fill:none;fill-opacity:1;stroke:#0e1111;stroke-width:0.30771855;stroke-linecap:round;stroke-linejoin:miter;stroke-miterlimit:4;stroke-dasharray:none;stroke-dashoffset:0;stroke-opacity:1;paint-order:stroke fill markers"
                   id="path1128"
                   sodipodi:type="arc"
                   sodipodi:cx="302.27676"
                   sodipodi:cy="-149.48383"
                   sodipodi:rx="8.8367281"
                   sodipodi:ry="5.6630378"
                   sodipodi:start="0"
                   sodipodi:end="6.2820683"
                   sodipodi:open="true"
                   d="m 311.11349,-149.48383 a 8.8367281,5.6630378 0 0 1 -8.83426,5.66304 8.8367281,5.6630378 0 0 1 -8.83919,-5.65987 8.8367281,5.6630378 0 0 1 8.82932,-5.6662 8.8367281,5.6630378 0 0 1 8.84413,5.65671" />
                <path
                   style="fill:#712514;fill-opacity:1;stroke:#0e1111;stroke-width:0.30730635;stroke-linecap:butt;stroke-linejoin:miter;stroke-miterlimit:4;stroke-dasharray:none;stroke-opacity:1"
                   d="m 264.11443,-174.82594 c 0,0 -1.17008,-1.91699 -0.55378,-2.77109 0.61646,-0.85413 3.67164,-0.99959 3.67164,-0.99959 l 10.77032,6.97639 z"
                   id="path1130"
                   inkscape:connector-curvature="0" />
                <path
                   inkscape:connector-curvature="0"
                   id="path1132"
                   d="m 291.92485,-177.88173 c 0,0 -0.56006,-3.17992 -1.52866,-4.27091 -0.96862,-1.09099 -3.91033,-1.54839 -3.91033,-1.54839 l -8.48325,12.0808 z"
                   style="fill:#3a44bf;fill-opacity:1;stroke:#0e1111;stroke-width:0.30730635;stroke-linecap:butt;stroke-linejoin:miter;stroke-miterlimit:4;stroke-dasharray:none;stroke-opacity:1"
                   sodipodi:nodetypes="ccccc" />
                <path
                   style="fill:#3a4475;fill-opacity:1;stroke:#0e1111;stroke-width:0.30730635;stroke-linecap:butt;stroke-linejoin:miter;stroke-miterlimit:4;stroke-dasharray:none;stroke-opacity:1"
                   d="m 270.16559,-165.67051 c 0,0 0.31639,1.50082 0.89294,2.42621 0.57672,0.92539 2.84983,1.42905 2.84983,1.42905 l 4.09428,-9.80499 z"
                   id="path1134"
                   inkscape:connector-curvature="0"
                   sodipodi:nodetypes="ccccc" />
                <path
                   inkscape:connector-curvature="0"
                   id="path1136"
                   d="m 276.65568,-177.47474 c 0,0 0.27043,-1.57802 2.0179,-1.66805 2.42593,-0.17563 3.05168,2.15486 3.05168,2.15486 l -3.72256,5.36769 z"
                   style="fill:#3bb477;fill-opacity:1;stroke:#0e1111;stroke-width:0.30730635;stroke-linecap:butt;stroke-linejoin:miter;stroke-miterlimit:4;stroke-dasharray:none;stroke-opacity:1"
                   sodipodi:nodetypes="ccccc" />
                <path
                   sodipodi:nodetypes="ccccc"
                   style="fill:#302514;fill-opacity:1;stroke:#0e1111;stroke-width:0.30730635;stroke-linecap:butt;stroke-linejoin:miter;stroke-miterlimit:4;stroke-dasharray:none;stroke-opacity:1"
                   d="m 283.4302,-166.48507 c 0.583,0.60947 2.73477,-1.02482 2.81902,-1.60786 0.19773,-2.17 -0.44383,-2.66561 -0.44383,-2.66561 l -7.8027,-0.8617 z"
                   id="path1138"
                   inkscape:connector-curvature="0" />
                <path
                   inkscape:connector-curvature="0"
                   id="path1140"
                   d="m 278.64944,-164.16462 c 0,0 0.88407,1.8882 2.87498,1.66407 2.78254,-0.24893 2.62541,-3.23393 2.62541,-3.23393 l -6.14713,-5.88576 z"
                   style="fill:#3b7682;fill-opacity:1;stroke:#0e1111;stroke-width:0.30730635;stroke-linecap:butt;stroke-linejoin:miter;stroke-miterlimit:4;stroke-dasharray:none;stroke-opacity:1"
                   sodipodi:nodetypes="ccccc" />
                <path
                   sodipodi:nodetypes="ccc"
                   inkscape:connector-curvature="0"
                   id="path879"
                   d="m 279.12365,-159.75107 v 24.9897 c 5.48669,9.37101 2.23876,19.49074 5.90265,29.11617"
                   style="fill:none;stroke:#000000;stroke-width:0.89601582;stroke-linecap:butt;stroke-linejoin:miter;stroke-miterlimit:4;stroke-dasharray:none;stroke-opacity:1" />
                <path
                   sodipodi:nodetypes="cc"
                   inkscape:connector-curvature="0"
                   id="path881"
                   d="m 279.12365,-134.76137 c -9.39543,11.91985 -8.77312,15.45635 -4.44624,29.39965"
                   style="fill:none;stroke:#000000;stroke-width:0.89601582;stroke-linecap:butt;stroke-linejoin:miter;stroke-miterlimit:4;stroke-dasharray:none;stroke-opacity:1" />
                <path
                   sodipodi:nodetypes="cccccsc"
                   inkscape:connector-curvature="0"
                   id="path883"
                   d="m 278.98471,-154.43909 c 0,0 0.0463,-0.56795 0.55578,-0.90203 0.50946,-0.33409 0.92631,-2.6393 1.20419,-2.90657 0.2779,-0.26727 1.15787,-0.33408 1.52839,-0.10022 0.37053,0.23386 2.31575,9.42126 2.87153,10.08943 0.55578,0.66818 2.13049,4.27631 6.39147,2.27179 4.26098,-2.00452 16.30287,-24.1879 16.30287,-24.1879"
                   style="fill:none;stroke:#000000;stroke-width:0.89601582;stroke-linecap:butt;stroke-linejoin:miter;stroke-miterlimit:4;stroke-dasharray:none;stroke-opacity:1" />
                <path
                   style="fill:none;stroke:#000000;stroke-width:0.89601582;stroke-linecap:butt;stroke-linejoin:miter;stroke-miterlimit:4;stroke-dasharray:none;stroke-opacity:1"
                   d="m 278.98471,-154.43909 c 0,0 -0.0514,-0.56736 -0.61731,-0.90109 -0.56587,-0.33374 -1.02887,-2.63654 -1.33752,-2.90354 -0.30866,-0.26699 -1.28606,-0.33373 -1.6976,-0.10011 -0.41156,0.23361 -2.57214,9.41142 -3.18946,10.07889 -0.61731,0.66749 -2.36636,4.27185 -7.0991,2.26942 -4.73274,-2.00242 -18.74964,-25.38168 -18.74964,-25.38168"
                   id="path885"
                   inkscape:connector-curvature="0"
                   sodipodi:nodetypes="cccccsc" />
              </g>
            </g>
          </g>
        </g>
      </g>
    </g>
    <flowRoot
       xml:space="preserve"
       id="flowRoot1294"
       style="font-style:normal;font-variant:normal;font-weight:normal;font-stretch:normal;font-size:15.39999962px;line-height:1.25;font-family:Dyuthi;-inkscape-font-specification:Dyuthi;text-align:center;letter-spacing:0px;word-spacing:0px;text-anchor:middle;fill:#000000;fill-opacity:1;stroke:none"><flowRegion
         id="flowRegion1296"><rect
           id="rect1298"
           width="410.12195"
           height="383.85797"
           x="-19.192898"
           y="-94.339256" /></flowRegion><flowPara
         id="flowPara1300" /></flowRoot>  </g>
  <g
     inkscape:groupmode="layer"
     id="layer2"
     inkscape:label="true"
     transform="translate(-165.19352,186.04151)"
     style="display:inline" />
</svg>
