<?xml version="1.0" encoding="UTF-8" standalone="no"?>
<!-- Created with Inkscape (http://www.inkscape.org/) -->

<svg
   xmlns:dc="http://purl.org/dc/elements/1.1/"
   xmlns:cc="http://creativecommons.org/ns#"
   xmlns:rdf="http://www.w3.org/1999/02/22-rdf-syntax-ns#"
   xmlns:svg="http://www.w3.org/2000/svg"
   xmlns="http://www.w3.org/2000/svg"
   xmlns:sodipodi="http://sodipodi.sourceforge.net/DTD/sodipodi-0.dtd"
   xmlns:inkscape="http://www.inkscape.org/namespaces/inkscape"
   width="134.76974mm"
   height="26.087885mm"
   viewBox="0 0 134.76974 26.087885"
   version="1.1"
   id="svg8"
   inkscape:version="0.92.3 (2405546, 2018-03-11)"
   sodipodi:docname="logo_git.svg">
  <defs
     id="defs2">
    <inkscape:path-effect
       effect="bspline"
       id="path-effect1126"
       is_visible="true"
       weight="33.333333"
       steps="2"
       helper_size="0"
       apply_no_weight="true"
       apply_with_weight="true"
       only_selected="false" />
    <inkscape:path-effect
       effect="bspline"
       id="path-effect1126-3"
       is_visible="true"
       weight="33.333333"
       steps="2"
       helper_size="0"
       apply_no_weight="true"
       apply_with_weight="true"
       only_selected="false" />
    <inkscape:path-effect
       only_selected="false"
       apply_with_weight="true"
       apply_no_weight="true"
       helper_size="0"
       steps="2"
       weight="33.333333"
       is_visible="true"
       id="path-effect59"
       effect="bspline" />
  </defs>
  <sodipodi:namedview
     id="base"
     pagecolor="#ffffff"
     bordercolor="#666666"
     borderopacity="1.0"
     inkscape:pageopacity="0.0"
     inkscape:pageshadow="2"
     inkscape:zoom="7.9195959"
     inkscape:cx="421.13546"
     inkscape:cy="22.225994"
     inkscape:document-units="mm"
     inkscape:current-layer="g1273"
     showgrid="false"
     inkscape:window-width="1920"
     inkscape:window-height="1050"
     inkscape:window-x="0"
     inkscape:window-y="0"
     inkscape:window-maximized="1"
     fit-margin-top="0"
     fit-margin-left="0"
     fit-margin-right="0"
     fit-margin-bottom="0"
     showguides="false" />
  <metadata
     id="metadata5">
    <rdf:RDF>
      <cc:Work
         rdf:about="">
        <dc:format>image/svg+xml</dc:format>
        <dc:type
           rdf:resource="http://purl.org/dc/dcmitype/StillImage" />
        <dc:title />
      </cc:Work>
    </rdf:RDF>
  </metadata>
  <g
     inkscape:label="sans"
     inkscape:groupmode="layer"
     id="layer1"
     transform="translate(-32.161053,-35.90556)"
     style="display:inline">
    <rect
       style="opacity:1;fill:#ffffff;fill-opacity:1;stroke:#ffffff;stroke-width:1.46404612;stroke-linecap:round;stroke-linejoin:miter;stroke-miterlimit:4;stroke-dasharray:none;stroke-dashoffset:0;stroke-opacity:1;paint-order:stroke fill markers"
       id="rect29"
       width="1.8040693"
       height="7.91994"
       x="70.553246"
       y="115.95624" />
    <rect
       style="opacity:1;fill:#ffffff;fill-opacity:1;stroke:#ffffff;stroke-width:1.44096947;stroke-linecap:round;stroke-linejoin:miter;stroke-miterlimit:4;stroke-dasharray:none;stroke-dashoffset:0;stroke-opacity:1;paint-order:stroke fill markers"
       id="rect31"
       width="5.4798884"
       height="12.851191"
       x="109.99183"
       y="116.70536" />
    <rect
       style="opacity:1;fill:#ffffff;fill-opacity:1;stroke:#ffffff;stroke-width:1.23808312;stroke-linecap:round;stroke-linejoin:miter;stroke-miterlimit:4;stroke-dasharray:none;stroke-dashoffset:0;stroke-opacity:1;paint-order:stroke fill markers"
       id="rect33"
       width="2.109097"
       height="13.484743"
       x="124.69981"
       y="115.10493" />
    <g
       id="g1226">
      <g
         id="g1244">
        <g
           id="g1273">
          <text
             xml:space="preserve"
             style="font-style:normal;font-variant:normal;font-weight:normal;font-stretch:normal;font-size:30.21628571px;line-height:1.25;font-family:Gargi;-inkscape-font-specification:Gargi;text-align:center;letter-spacing:0px;word-spacing:0px;text-anchor:middle;fill:#353335;fill-opacity:1;stroke:none;stroke-width:0;stroke-miterlimit:4;stroke-dasharray:none;stroke-opacity:1;"
             x="77.023407"
             y="60.481449"
             id="text1507"><tspan
               sodipodi:role="line"
               id="tspan1505"
               x="77.254913"
               y="60.481449"
               style="line-height:0.25;letter-spacing:0.46302068px;fill:#353335;stroke-width:0;stroke-miterlimit:4;stroke-dasharray:none;fill-opacity:1;stroke:none;stroke-opacity:1;">Dalted</tspan></text>
          <rect
             style="opacity:1;fill:#000000;fill-opacity:0;stroke:#000009;stroke-width:0;stroke-linecap:round;stroke-linejoin:miter;stroke-miterlimit:4;stroke-dasharray:none;stroke-dashoffset:0;stroke-opacity:1;paint-order:stroke fill markers"
             id="rect2147"
             width="43.845234"
             height="20.410715"
             x="24.129059"
             y="-2.7349761" />
          <g
             transform="matrix(1.0781597,0,0,1.1941545,-82.6844,243.89649)"
             style="display:inline"
             id="g1499">
            <path
               style="display:inline;fill:none;stroke:#353335;stroke-width:0.15469871;stroke-linecap:butt;stroke-linejoin:miter;stroke-miterlimit:4;stroke-dasharray:none;stroke-opacity:1"
               d="m 193.12885,-162.91491 c 0.15759,-2.35705 4.10252,-5.00036 7.97446,-7.21411 3.87194,-2.21374 7.6709,-3.99798 11.70959,-3.94283 4.03868,0.0552 8.31726,1.94953 11.93779,4.11923 3.62052,2.16971 6.58306,4.61476 6.50285,6.9386 -0.0802,2.32383 -3.20325,4.52654 -6.8082,6.61918 -3.60495,2.09265 -7.69158,4.07504 -11.8078,4.0531 -4.11623,-0.0219 -8.26107,-2.04831 -12.14881,-4.09697 -3.88773,-2.04866 -7.51746,-4.11915 -7.35988,-6.4762 z"
               id="path1124-6"
               inkscape:connector-curvature="0"
               inkscape:path-effect="#path-effect1126-3"
               inkscape:original-d="m 189.34128,-162.6285 c 3.94514,-2.64349 7.89007,-5.2868 11.83479,-7.92992 3.79915,-1.78441 7.59811,-3.56865 11.39682,-5.35269 4.2788,1.89418 8.55738,3.78855 12.83574,5.68311 2.96276,2.44487 5.9253,4.88993 8.88763,7.33517 -3.12295,2.20262 -6.24598,4.40533 -9.3693,6.60827 -4.0866,1.9823 -8.17323,3.9647 -12.26041,5.94744 -4.14512,-2.0268 -8.28997,-4.05316 -12.43557,-6.07961 -3.62985,-2.07087 -7.25958,-4.14136 -10.8897,-6.21177 z"
               sodipodi:nodetypes="ccccccccc" />
            <path
               style="display:inline;opacity:1;fill:none;fill-opacity:1;stroke:#353335;stroke-width:0.36399695;stroke-linecap:round;stroke-linejoin:miter;stroke-miterlimit:4;stroke-dasharray:none;stroke-dashoffset:0;stroke-opacity:1;paint-order:stroke fill markers"
               id="path1128-7"
               sodipodi:type="arc"
               sodipodi:cx="212.13432"
               sodipodi:cy="-162.48724"
               sodipodi:rx="7.0273466"
               sodipodi:ry="4.7398987"
               sodipodi:start="0"
               sodipodi:end="6.2820683"
               sodipodi:open="true"
               d="m 219.16167,-162.48724 a 7.0273466,4.7398987 0 0 1 -7.02538,4.73989 7.0273466,4.7398987 0 0 1 -7.02931,-4.73725 7.0273466,4.7398987 0 0 1 7.02146,-4.74254 7.0273466,4.7398987 0 0 1 7.03323,4.7346" />
            <path
               style="display:inline;fill:#712514;fill-opacity:1;stroke:#353335;stroke-width:0.15469871;stroke-linecap:butt;stroke-linejoin:miter;stroke-miterlimit:4;stroke-dasharray:none;stroke-opacity:1"
               d="m 201.1926,-165.82613 c 0,0 -0.68823,-1.68242 -0.0984,-2.3554 0.58993,-0.67297 3.01514,-0.58884 3.01514,-0.58884 l 7.63619,6.56146 z"
               id="path1130-5"
               inkscape:connector-curvature="0" />
            <path
               inkscape:connector-curvature="0"
               id="path1132-3"
               d="m 223.47985,-166.50898 c 0,0 -0.0535,-2.69782 -0.68372,-3.67571 -0.63023,-0.9779 -2.89251,-1.55868 -2.89251,-1.55868 l -8.15805,9.53446 z"
               style="display:inline;fill:#3a44bf;fill-opacity:1;stroke:#353335;stroke-width:0.15469871;stroke-linecap:butt;stroke-linejoin:miter;stroke-miterlimit:4;stroke-dasharray:none;stroke-opacity:1"
               sodipodi:nodetypes="ccccc" />
            <path
               style="display:inline;fill:#3a4475;fill-opacity:1;stroke:#353335;stroke-width:0.15469871;stroke-linecap:butt;stroke-linejoin:miter;stroke-miterlimit:4;stroke-dasharray:none;stroke-opacity:1"
               d="m 204.84437,-157.75972 c 0,0 0.0663,1.27678 0.40776,2.08974 0.34159,0.81296 2.07137,1.38741 2.07137,1.38741 l 4.42202,-7.92634 z"
               id="path1134-5"
               inkscape:connector-curvature="0"
               sodipodi:nodetypes="ccccc" />
            <path
               inkscape:connector-curvature="0"
               id="path1136-6"
               d="m 211.39809,-167.19711 c 0,0 0.40555,-1.30183 1.79353,-1.25943 1.93304,0.0165 2.14192,2.00818 2.14192,2.00818 l -3.58797,4.23945 z"
               style="display:inline;fill:#3bb477;fill-opacity:1;stroke:#353335;stroke-width:0.15469871;stroke-linecap:butt;stroke-linejoin:miter;stroke-miterlimit:4;stroke-dasharray:none;stroke-opacity:1"
               sodipodi:nodetypes="ccccc" />
            <path
               sodipodi:nodetypes="ccccc"
               style="display:inline;fill:#302514;fill-opacity:1;stroke:#353335;stroke-width:0.15469871;stroke-linecap:butt;stroke-linejoin:miter;stroke-miterlimit:4;stroke-dasharray:none;stroke-opacity:1"
               d="m 215.39618,-157.54758 c 0.38507,0.54911 2.27997,-0.67307 2.41747,-1.15513 0.42044,-1.80195 -0.0247,-2.25975 -0.0247,-2.25975 l -6.04342,-1.24645 z"
               id="path1138-2"
               inkscape:connector-curvature="0" />
            <path
               inkscape:connector-curvature="0"
               id="path1140-9"
               d="m 211.34598,-155.92851 c 0,0 0.46636,1.63909 2.06253,1.58571 2.22298,-0.0208 2.4632,-2.52841 2.4632,-2.52841 l -4.12614,-5.3377 z"
               style="display:inline;fill:#3b7682;fill-opacity:1;stroke:#353335;stroke-width:0.15469871;stroke-linecap:butt;stroke-linejoin:miter;stroke-miterlimit:4;stroke-dasharray:none;stroke-opacity:1"
               sodipodi:nodetypes="ccccc" />
            <path
               sodipodi:nodetypes="ccccccccc"
               inkscape:original-d="m 192.86889,-161.95908 c 2.30738,-2.54154 4.61447,-5.0828 6.92142,-7.62398 4.1738,-2.26117 8.34701,-4.52194 12.5203,-6.78267 4.65091,2.25505 9.30126,4.51017 13.95156,6.76562 1.73759,2.39228 3.47477,4.7846 5.21192,7.17745 -2.09641,2.00946 -4.19277,4.01886 -6.28965,6.02872 -4.23517,1.99636 -8.47012,3.99271 -12.70586,5.98954 -3.73792,-1.89665 -7.47555,-3.79281 -11.21404,-5.68903 -2.79845,-1.95555 -5.59686,-3.91067 -8.39565,-5.86565 z"
               inkscape:path-effect="#path-effect59"
               inkscape:connector-curvature="0"
               id="path57"
               d="m 195.42187,-162.25224 c -0.24563,-2.2484 2.06146,-4.78967 5.30187,-7.1908 3.2404,-2.40113 7.41361,-4.6619 11.82563,-4.66463 4.41201,-0.003 9.06236,2.25239 12.25624,4.57622 3.19387,2.32382 4.93105,4.71614 4.75156,6.91719 -0.1795,2.20105 -2.27586,4.21044 -5.44186,6.2136 -3.166,2.00316 -7.40095,3.99951 -11.38787,4.0497 -3.98692,0.0502 -7.72456,-1.84596 -10.99305,-3.77185 -3.26849,-1.9259 -6.0669,-3.88102 -6.31252,-6.12943 z"
               style="display:inline;fill:none;stroke:#353335;stroke-width:0.12771729;stroke-linecap:butt;stroke-linejoin:miter;stroke-miterlimit:4;stroke-dasharray:none;stroke-opacity:1" />
            <path
               style="display:inline;opacity:1;fill:#353335;fill-opacity:1;stroke:#353335;stroke-width:0.2876226;stroke-linecap:round;stroke-linejoin:miter;stroke-miterlimit:4;stroke-dasharray:none;stroke-dashoffset:0;stroke-opacity:1;paint-order:stroke fill markers"
               d="m 224.77897,-156.74403 c 1.61102,-1.07469 2.9302,-2.21358 3.68993,-3.18564 1.18809,-1.52014 1.46105,-2.9859 0.85955,-4.61571 -0.30447,-0.82499 -1.00718,-1.87481 -1.86436,-2.78527 -0.95671,-1.01618 -2.68452,-2.392 -4.06838,-3.23958 -0.1353,-0.0829 -0.23596,-0.15925 -0.2237,-0.16974 0.0346,-0.0296 1.68138,0.93496 2.56137,1.50022 1.18404,0.76057 1.91514,1.29556 2.76846,2.02584 1.12166,0.95991 1.68971,1.60186 2.16362,2.44508 0.36458,0.64871 0.4503,0.95616 0.4555,1.63381 0.004,0.5964 -0.0399,0.80534 -0.28179,1.32538 -0.51975,1.11718 -1.88761,2.43583 -3.95281,3.81061 -0.66228,0.44087 -2.17324,1.36674 -2.22656,1.36437 -0.0231,-0.001 0.0305,-0.0503 0.11917,-0.10937 z"
               id="path879-1"
               inkscape:connector-curvature="0" />
            <path
               style="display:inline;opacity:1;fill:#353335;fill-opacity:1;stroke:#353335;stroke-width:0.2876226;stroke-linecap:round;stroke-linejoin:miter;stroke-miterlimit:4;stroke-dasharray:none;stroke-dashoffset:0;stroke-opacity:1;paint-order:stroke fill markers"
               d="m 203.09689,-155.19632 c -0.0767,-0.0404 -0.55778,-0.28454 -1.06908,-0.54259 -2.17529,-1.09789 -4.19328,-2.21738 -5.40306,-2.99737 -2.41107,-1.5545 -3.48276,-2.87037 -3.38817,-4.16013 0.0339,-0.4624 0.12415,-0.74254 0.39829,-1.23654 0.71136,-1.28181 2.26021,-2.65535 4.90683,-4.35144 1.30888,-0.83879 3.89861,-2.3443 3.95281,-2.29792 0.0119,0.0101 -0.18443,0.15371 -0.43611,0.31911 -1.56319,1.02732 -3.31415,2.43986 -4.36813,3.52387 -1.03778,1.06734 -1.66778,1.95283 -2.04643,2.87633 -0.23012,0.56124 -0.30032,0.9104 -0.29852,1.48474 0.002,0.662 0.13407,1.12381 0.5001,1.74984 0.88698,1.51698 2.71818,2.96392 6.50776,5.14221 0.5113,0.29389 0.93835,0.54117 0.94899,0.5495 0.0576,0.045 -0.0854,0.004 -0.20528,-0.0596 z"
               id="path881-2"
               inkscape:connector-curvature="0" />
            <path
               style="display:inline;opacity:1;fill:#353335;fill-opacity:1;stroke:#353335;stroke-width:0.00486988;stroke-linecap:round;stroke-linejoin:miter;stroke-miterlimit:4;stroke-dasharray:none;stroke-dashoffset:0;stroke-opacity:1;paint-order:stroke fill markers"
               d="m 202.63283,-170.83679 c -7.1e-4,-0.001 -0.007,-0.0102 -0.0144,-0.0202 -0.007,-0.0101 -0.0136,-0.019 -0.0145,-0.0198 -7.1e-4,-8.4e-4 -0.001,-0.002 -7.1e-4,-0.002 0.002,-0.001 0.2365,-0.12709 0.32833,-0.17584 0.17063,-0.0906 0.38309,-0.20189 0.38397,-0.20113 2.6e-4,2.3e-4 -0.004,0.003 -0.01,0.006 -0.16262,0.0965 -0.45731,0.27822 -0.64722,0.39906 -0.0238,0.0151 -0.0241,0.0153 -0.0256,0.0134 z"
               id="path902"
               inkscape:connector-curvature="0" />
            <path
               style="display:inline;opacity:1;fill:#353335;fill-opacity:1;stroke:#353335;stroke-width:0.00486988;stroke-linecap:round;stroke-linejoin:miter;stroke-miterlimit:4;stroke-dasharray:none;stroke-dashoffset:0;stroke-opacity:1;paint-order:stroke fill markers"
               d="m 223.02229,-170.79508 c -0.0114,-0.007 -0.11083,-0.0673 -0.15349,-0.0929 -0.22998,-0.13829 -0.47831,-0.28272 -0.70339,-0.40911 -0.0195,-0.0109 -0.0351,-0.0201 -0.0349,-0.0203 0.001,-0.001 0.33946,0.17275 0.52321,0.26947 0.12621,0.0664 0.39839,0.21177 0.40436,0.21591 7.1e-4,6e-4 -10e-4,0.004 -0.009,0.0121 -0.008,0.009 -0.0114,0.0132 -0.0149,0.0199 -0.002,0.005 -0.005,0.009 -0.005,0.009 -2.6e-4,0 -0.004,-0.002 -0.006,-0.004 z"
               id="path904"
               inkscape:connector-curvature="0" />
            <path
               sodipodi:nodetypes="cccscsscccssscccccccccsccccccccccccccccccsscc"
               style="display:inline;opacity:1;fill:#353335;fill-opacity:1;stroke:#353335;stroke-width:0.0779181;stroke-linecap:round;stroke-linejoin:miter;stroke-miterlimit:4;stroke-dasharray:none;stroke-dashoffset:0;stroke-opacity:1;paint-order:stroke fill markers"
               d="m 212.16564,-152.28039 c -0.0402,-0.003 -0.18668,-0.012 -0.32537,-0.0203 -0.82471,-0.0495 -1.83543,-0.2101 -2.76075,-0.43872 -2.08392,-0.51488 -4.30607,-1.34649 -7.22741,-2.92645 l -0.57444,-0.31799 -0.0143,-0.23654 c -0.009,-0.14511 0.001,-0.16838 -0.003,-0.23308 -2.4e-4,-0.004 0.14946,0.0835 0.3213,0.18549 0.5406,0.32096 1.7143,0.96581 2.00243,1.12182 1.78851,0.96834 3.45133,1.68239 4.85616,2.08532 1.78913,0.51315 3.46999,0.72196 4.99444,0.62045 2.73514,-0.18213 5.91664,-1.27382 9.24866,-3.17359 2.34398,-1.33643 4.25531,-2.77811 5.37408,-4.05357 0.81394,-0.92794 1.27888,-1.85993 1.39486,-2.79604 0.0323,-0.26049 0.0236,-0.82075 -0.0164,-1.06928 -0.14447,-0.89568 -0.51263,-1.6985 -1.22555,-2.67247 -0.27669,-0.378 -0.56351,-0.9114 -0.94685,-1.21688 l -0.1747,-0.14998 0.60914,0.006 0.58675,0.0114 c 0.15019,0.10301 -0.86021,-0.48502 0.46408,0.37236 0.89192,0.85941 1.57603,1.48193 2.0122,2.21803 0.88967,1.50144 0.75047,2.81296 -0.45579,4.29425 -0.55875,0.68614 -1.43964,1.47081 -2.52844,2.25225 -1.5897,1.14094 -4.36495,2.77056 -6.45992,3.79326 -2.58008,1.25951 -4.8062,1.9821 -6.92345,2.24731 -0.55724,0.0698 -0.92307,0.0927 -1.56059,0.0977 -0.32658,0.003 -0.62674,0.002 -0.667,-4.9e-4 z m -7.87397,-2.34959 c 0,-0.003 -0.0531,-0.0322 -0.11795,-0.0651 -0.0649,-0.0328 -0.25241,-0.13135 -0.41677,-0.21896 -0.22963,-0.1224 -0.302,-0.15491 -0.31249,-0.14038 -0.008,0.0104 -0.008,0.0235 -0.002,0.0291 0.0101,0.009 0.83321,0.3984 0.84492,0.40009 0.002,3.4e-4 0.004,-0.002 0.004,-0.005 z m 20.24935,-1.92126 c -0.003,-0.007 -0.0128,-0.0155 -0.0221,-0.0182 -0.009,-0.003 -0.14796,0.0786 -0.30809,0.18056 -0.16012,0.10197 -0.36618,0.23118 -0.4579,0.28714 -0.0917,0.056 -0.16675,0.10447 -0.16675,0.1078 0,0.003 0.21602,-0.11769 0.48004,-0.26896 0.26402,-0.15126 0.47769,-0.28103 0.47483,-0.28837 z"
               id="path906"
               inkscape:connector-curvature="0" />
            <rect
               y="-170.8768"
               x="202.60396"
               height="0.0028037322"
               width="0.0095499307"
               id="rect1041"
               style="opacity:1;fill:#353335;fill-opacity:1;stroke:#353335;stroke-width:0.10327898;stroke-linecap:round;stroke-linejoin:miter;stroke-miterlimit:4;stroke-dasharray:none;stroke-dashoffset:0;stroke-opacity:1;paint-order:stroke fill markers" />
            <rect
               y="-170.80565"
               x="223.02953"
               height="0.0022971837"
               width="0.053123448"
               id="rect1043"
               style="opacity:1;fill:#353335;fill-opacity:1;stroke:#353335;stroke-width:0.04723714;stroke-linecap:round;stroke-linejoin:miter;stroke-miterlimit:4;stroke-dasharray:none;stroke-dashoffset:0;stroke-opacity:1;paint-order:stroke fill markers" />
          </g>
        </g>
      </g>
    </g>
    <flowRoot
       xml:space="preserve"
       id="flowRoot1294"
       style="font-style:normal;font-variant:normal;font-weight:normal;font-stretch:normal;font-size:15.39999962px;line-height:1.25;font-family:Dyuthi;-inkscape-font-specification:Dyuthi;text-align:center;letter-spacing:0px;word-spacing:0px;text-anchor:middle;fill:#000000;fill-opacity:1;stroke:none"><flowRegion
         id="flowRegion1296"><rect
           id="rect1298"
           width="410.12195"
           height="383.85797"
           x="-19.192898"
           y="-94.339256" /></flowRegion><flowPara
         id="flowPara1300" /></flowRoot>  </g>
  <g
     inkscape:groupmode="layer"
     id="layer2"
     inkscape:label="true"
     transform="translate(-32.161053,-35.90556)"
     style="display:inline" />
</svg>
