<?xml version="1.0" encoding="UTF-8" standalone="no"?>
<svg
   xmlns:dc="http://purl.org/dc/elements/1.1/"
   xmlns:cc="http://creativecommons.org/ns#"
   xmlns:rdf="http://www.w3.org/1999/02/22-rdf-syntax-ns#"
   xmlns:svg="http://www.w3.org/2000/svg"
   xmlns="http://www.w3.org/2000/svg"
   xmlns:sodipodi="http://sodipodi.sourceforge.net/DTD/sodipodi-0.dtd"
   xmlns:inkscape="http://www.inkscape.org/namespaces/inkscape"
   width="101.41367mm"
   height="67.918159mm"
   viewBox="0 0 101.41367 67.918159"
   version="1.1"
   id="svg8"
   inkscape:version="1.0 (1.0+r73)"
   sodipodi:docname="orig.svg">
  <defs
     id="defs2">
    <inkscape:path-effect
       effect="bspline"
       id="path-effect883"
       is_visible="true"
       lpeversion="1"
       weight="33.333333"
       steps="2"
       helper_size="0"
       apply_no_weight="true"
       apply_with_weight="true"
       only_selected="false" />
    <inkscape:path-effect
       effect="bspline"
       id="path-effect879"
       is_visible="true"
       lpeversion="1"
       weight="33.333333"
       steps="2"
       helper_size="0"
       apply_no_weight="true"
       apply_with_weight="true"
       only_selected="false" />
    <inkscape:path-effect
       effect="bspline"
       id="path-effect869"
       is_visible="true"
       lpeversion="1"
       weight="33.333333"
       steps="2"
       helper_size="0"
       apply_no_weight="true"
       apply_with_weight="true"
       only_selected="false" />
    <filter
       id="filter1508"
       style="color-interpolation-filters:sRGB;"
       inkscape:menu-tooltip="Gives a canvas like HSL sensitive transparency."
       inkscape:menu="Overlays"
       inkscape:label="Canvas Transparency">
      <feTurbulence
         id="feTurbulence1492"
         type="turbulence"
         baseFrequency="0.3"
         numOctaves="10"
         result="result1" />
      <feColorMatrix
         id="feColorMatrix1494"
         type="luminanceToAlpha"
         in="SourceGraphic"
         result="result0" />
      <feColorMatrix
         id="feColorMatrix1496"
         result="result2"
         values="1 0 0 0 0 0 1 0 0 0 0 0 1 0 0 0 0 0 0.4 0 " />
      <feComposite
         id="feComposite1498"
         in2="result1"
         operator="over"
         in="result2" />
      <feColorMatrix
         id="feColorMatrix1500"
         result="result91"
         values="1 0 0 0 0 0 1 0 0 0 0 0 1 0 0 0 0 0 10 -4 " />
      <feComposite
         id="feComposite1502"
         in2="result91"
         in="SourceGraphic"
         operator="out" />
      <feGaussianBlur
         id="feGaussianBlur1504"
         stdDeviation="0.7" />
      <feColorMatrix
         id="feColorMatrix1506"
         values="1 0 0 0 0 0 1 0 0 0 0 0 1 0 0 0 0 0 1 0 " />
    </filter>
    <filter
       id="filter1522"
       style="color-interpolation-filters:sRGB;"
       inkscape:menu-tooltip="Gives a pointillist HSL sensitive transparency"
       inkscape:menu="Overlays"
       inkscape:label="Dots Transparency">
      <feTurbulence
         id="feTurbulence1510"
         seed="50"
         type="fractalNoise"
         baseFrequency="1"
         numOctaves="3"
         result="result1" />
      <feColorMatrix
         id="feColorMatrix1512"
         type="luminanceToAlpha"
         in="SourceGraphic"
         result="result0" />
      <feColorMatrix
         id="feColorMatrix1514"
         result="result2"
         values="1 0 0 0 0 0 1 0 0 0 0 0 1 0 0 0 0 0 0.7 0 " />
      <feComposite
         id="feComposite1516"
         result="result3"
         in2="result2"
         operator="over"
         in="result1" />
      <feColorMatrix
         id="feColorMatrix1518"
         result="result91"
         values="1 0 0 0 0 0 1 0 0 0 0 0 1 0 0 0 0 0 5 -3.2 " />
      <feComposite
         id="feComposite1520"
         in2="result91"
         result="result4"
         in="SourceGraphic"
         operator="out" />
    </filter>
    <clipPath
       id="clipPath1546"
       clipPathUnits="userSpaceOnUse">
      <rect
         y="87.680588"
         x="48.071419"
         height="67.918159"
         width="101.41367"
         id="rect1548"
         style="opacity:0.99;fill:#44548e;fill-opacity:1;stroke:#44548e;stroke-width:0.504;stroke-linecap:round;stroke-opacity:1;paint-order:stroke fill markers" />
    </clipPath>
  </defs>
  <sodipodi:namedview
     id="base"
     pagecolor="#ffffff"
     bordercolor="#666666"
     borderopacity="1.0"
     inkscape:pageopacity="0.0"
     inkscape:pageshadow="2"
     inkscape:zoom="1.4"
     inkscape:cx="139.61401"
     inkscape:cy="170.60072"
     inkscape:document-units="mm"
     inkscape:current-layer="g1542"
     inkscape:document-rotation="0"
     showgrid="false"
     inkscape:window-width="1920"
     inkscape:window-height="1050"
     inkscape:window-x="0"
     inkscape:window-y="0"
     inkscape:window-maximized="1"
     fit-margin-top="0"
     fit-margin-left="0"
     fit-margin-right="0"
     fit-margin-bottom="0" />
  <metadata
     id="metadata5">
    <rdf:RDF>
      <cc:Work
         rdf:about="">
        <dc:format>image/svg+xml</dc:format>
        <dc:type
           rdf:resource="http://purl.org/dc/dcmitype/StillImage" />
        <dc:title></dc:title>
      </cc:Work>
    </rdf:RDF>
  </metadata>
  <g
     inkscape:label="Layer 1"
     inkscape:groupmode="layer"
     id="layer1"
     transform="translate(-45.903946,-42.411727)">
    <g
       aria-label="Pronatopia"
       id="text889"
       style="font-style:normal;font-variant:normal;font-weight:normal;font-stretch:normal;font-size:15.3046px;line-height:1.25;font-family:'Latin Modern Math';-inkscape-font-specification:'Latin Modern Math';text-align:center;letter-spacing:0px;word-spacing:0px;text-anchor:middle;fill:#000000;fill-opacity:1;stroke:#000000;stroke-width:0.873;stroke-miterlimit:4;stroke-dasharray:none"
       transform="translate(-0.44991947,-1.0984126)">
      <g
         id="g937"
         transform="translate(-1.7175526,2.8895441)"
         style="stroke-width:1.173;stroke-miterlimit:4;stroke-dasharray:none">
        <g
           id="g957"
           transform="translate(0,-47.059991)">
          <g
             inkscape:export-ydpi="50"
             inkscape:export-xdpi="50"
             inkscape:export-filename="/home/jorge/Pictures/pronat.png"
             clip-path="url(#clipPath1546)"
             id="g1542">
            <g
               transform="translate(2.1674721,-1.7911315)"
               id="g894"
               style="stroke:none;filter:url(#filter1522)">
              <path
                 id="rect863"
                 style="opacity:0.99;fill:#3cb477;fill-opacity:0.992157;stroke:none;stroke-width:0.504;stroke-linecap:round;stroke-opacity:0.992157;paint-order:stroke fill markers"
                 d="m 45.903946,89.471718 c 33.804558,0 67.609114,0 101.413674,0 0,22.639392 0,45.278772 0,67.918162 -33.80456,0 -67.609116,0 -101.413674,0 0,-22.63939 0,-45.27877 0,-67.918162 z" />
              <path
                 id="rect865"
                 style="opacity:0.99;fill:#454a91;fill-opacity:0.992157;stroke:none;stroke-width:1.90488;stroke-linecap:round;stroke-opacity:0.992157;paint-order:stroke fill markers;filter:url(#filter1508)"
                 d="m 516.34961,414.25781 c -36.672,0.5779 -62.22836,31.14196 -82.7312,57.88627 -15.88785,21.75745 -37.73043,43.24176 -66.56122,43.31633 -37.17212,1.51495 -76.92253,-3.40869 -110.63976,16.06871 -30.45201,16.02497 -55.88926,39.69875 -80.55024,63.33026 126.97461,0 253.94922,0 380.92383,0 0,-56.7207 0,-113.44141 0,-170.16211 -12.3704,-6.65301 -26.32419,-10.71141 -40.44141,-10.43946 z"
                 transform="scale(0.26458333)" />
              <path
                 id="rect859"
                 style="opacity:0.99;fill:#ba2f33;fill-opacity:1;stroke:none;stroke-width:0.504;stroke-linecap:round;stroke-opacity:0.992157;paint-order:stroke fill markers"
                 d="m 45.903946,89.471718 c 0,14.914162 0,29.828332 0,44.742492 9.270424,3.1937 19.352602,-2.34432 23.817301,-10.58736 3.487997,-5.4705 4.356144,-12.38999 1.953845,-18.46996 -2.44791,-6.314691 5.987554,-7.801497 9.969603,-9.924533 3.081652,-0.473026 7.942972,-7.005368 2.306221,-5.760639 -12.682323,0 -25.364647,0 -38.04697,0 z" />
            </g>
            <text
               id="text1570"
               y="103.90739"
               x="26.205061"
               style="font-style:normal;font-variant:normal;font-weight:normal;font-stretch:normal;font-size:11.2889px;line-height:1.25;font-family:'Latin Modern Math';-inkscape-font-specification:'Latin Modern Math';text-align:center;letter-spacing:0px;word-spacing:0px;text-anchor:middle;fill:#000000;fill-opacity:1;stroke:none;stroke-width:0.310356"
               xml:space="preserve"><tspan
                 style="stroke-width:0.310356"
                 y="103.90739"
                 x="26.205061"
                 id="tspan1568"
                 sodipodi:role="line" /></text>
            <path
               d="m 69.633557,118.85462 c -0.157798,3.41858 -0.993793,7.22615 -3.557495,9.64512 -1.952365,1.44486 -5.319979,1.2287 -6.460999,-1.29642 -2.697031,-3.834 -1.662751,-9.97611 2.602425,-12.20463 1.992909,-1.31163 5.345807,-3.28732 6.671953,0.0591 0.581297,1.17215 0.740164,2.50348 0.744116,3.79684 z m -1.162062,-0.40144 c 0.04597,-3.90286 -4.132544,-3.94851 -6.411975,-1.89454 -2.816768,2.69799 -3.139515,7.65002 -0.523423,10.60473 2.846024,2.50598 5.72639,-1.80682 6.057249,-4.40263 0.22669,-1.44889 0.717388,-2.84884 0.878149,-4.30756 z"
               style="font-size:21.1284px;line-height:1.25;font-family:Purisa;-inkscape-font-specification:Purisa;text-align:center;letter-spacing:0px;word-spacing:0px;text-anchor:middle;fill:#3cb577;fill-opacity:1;stroke:#3cb677;stroke-width:1.04949;stroke-miterlimit:4;stroke-dasharray:none;stroke-opacity:0.996078"
               id="path1590" />
            <path
               d="m 79.380022,118.57996 c 2.379328,0.94892 -2.581764,2.00088 -2.577665,3.71859 -2.191121,1.71298 -0.920076,6.58332 -3.211517,7.1414 -0.751604,-3.22922 -0.707901,-6.6679 -0.845137,-9.99373 -0.251329,-2.54609 1.540053,-2.0911 1.129706,0.18454 0.122888,1.44605 0.448785,5.12845 1.598166,2.03427 0.90054,-1.37489 2.197247,-2.84205 3.906447,-3.08507 z"
               style="font-size:21.1284px;line-height:1.25;font-family:Purisa;-inkscape-font-specification:Purisa;text-align:center;letter-spacing:0px;word-spacing:0px;text-anchor:middle;fill:#44548e;fill-opacity:1;stroke:#44548e;stroke-width:1.04949;stroke-miterlimit:4;stroke-dasharray:none;stroke-opacity:1"
               id="path1592" />
            <path
               d="m 84.142167,116.80517 c 2.162436,0.088 1.028111,4.68773 1.521244,6.5498 -0.198606,1.40694 1.02611,6.19798 -1.331093,4.88066 -0.306594,-3.61606 -0.604401,-7.2706 -0.443696,-10.89697 l 0.105642,-0.33145 0.147899,-0.20204 z M 84.015396,111.84 c 1.625637,-3.23074 2.378214,3.31545 0,0 z"
               style="font-size:21.1284px;line-height:1.25;font-family:Purisa;-inkscape-font-specification:Purisa;text-align:center;letter-spacing:0px;word-spacing:0px;text-anchor:middle;fill:#44548e;fill-opacity:1;stroke:#44548e;stroke-width:1.04949;stroke-miterlimit:4;stroke-dasharray:none;stroke-opacity:1"
               id="path1594" />
            <path
               d="m 98.411099,132.84163 c 2.408591,-1.31436 0.167091,-5.30992 0.390875,-7.70395 -0.180118,-2.66291 -2.456645,2.24059 -4.215116,2.18943 -2.995781,1.58322 -6.183424,-1.58039 -5.451122,-4.62712 1.058515,-3.88455 4.933262,-7.0452 9.063754,-6.36691 4.35284,0.36394 1.291689,4.69583 2.04451,7.23846 0.22138,3.14678 0.45498,6.29269 0.68139,9.43911 -1.63142,1.87978 -4.260705,0.74246 -6.164217,-0.0898 -2.472673,-0.24503 -3.247589,-3.70093 -0.522928,-3.95102 -1.355069,3.02923 2.279679,2.98772 4.172854,3.87179 z m -8.028792,-9.5923 c -0.31238,4.33571 4.830504,3.59458 6.343802,0.76591 1.514848,-1.79855 4.330421,-7.65053 -0.274669,-6.60791 -2.783079,0.50174 -5.511738,3.06972 -6.069133,5.842 z"
               style="font-size:21.1284px;line-height:1.25;font-family:Purisa;-inkscape-font-specification:Purisa;text-align:center;letter-spacing:0px;word-spacing:0px;text-anchor:middle;fill:#44548e;fill-opacity:1;stroke:#44548e;stroke-width:1.04949;stroke-miterlimit:4;stroke-dasharray:none;stroke-opacity:1"
               id="path1596" />
            <path
               d="m 110.97127,117.41789 c 1.02188,-2.00016 1.1356,2.75955 1.28884,3.59183 0.19138,1.50384 0.32044,5.05459 1.05642,1.75366 0.72895,-2.06313 2.32293,-6.51491 4.95064,-5.45773 1.86131,2.43661 0.99842,5.72145 1.29283,8.5636 0.70218,1.39559 -1.09682,4.87406 -1.0564,1.76423 0.107,-2.78389 0.1612,-5.61607 -0.39081,-8.35629 -1.73758,-2.28284 -3.21978,2.88612 -4.02364,4.21313 -1.33339,1.53942 -0.50389,5.90295 -1.91344,5.94963 -0.82033,-3.32477 -0.57213,-6.89926 -1.10528,-10.31033 -0.0472,-0.56958 -0.0938,-1.14002 -0.0992,-1.71173 z"
               style="font-size:21.1284px;line-height:1.25;font-family:Purisa;-inkscape-font-specification:Purisa;text-align:center;letter-spacing:0px;word-spacing:0px;text-anchor:middle;fill:#44548e;fill-opacity:1;stroke:#44548e;stroke-width:1.04949;stroke-miterlimit:4;stroke-dasharray:none;stroke-opacity:1"
               id="path1600" />
            <path
               d="m 129.03902,118.32641 c -1.64484,-0.63587 -5.01162,2.79196 -5.34548,0.90853 2.13103,-1.50538 6.64931,-3.48236 7.65376,0.24825 0.39752,2.8991 0.20979,5.9014 0.36969,8.80526 -1.6621,2.41546 -0.82332,-4.07061 -2.32411,-1.05113 -1.75002,2.43403 -7.10965,2.12482 -5.90011,-1.74838 1.08595,-3.19151 5.6785,-2.76075 7.08856,-2.13397 -0.18563,-1.52512 0.3582,-4.46159 -1.54231,-5.02856 z m 0.95078,6.54981 c -1.45229,-2.34521 -6.00422,-0.78562 -5.53566,2.09171 1.53558,2.3469 4.68212,-0.33672 5.53566,-2.09171 z"
               style="font-size:21.1284px;line-height:1.25;font-family:Purisa;-inkscape-font-specification:Purisa;text-align:center;letter-spacing:0px;word-spacing:0px;text-anchor:middle;fill:#dca91d;fill-opacity:1;stroke:#dca91d;stroke-width:1.04949;stroke-miterlimit:4;stroke-dasharray:none;stroke-opacity:1"
               id="path1602" />
            <path
               d="m 135.20093,111.96677 c -0.46079,-1.09683 0.61235,-5.73311 1.12177,-2.56686 0.46898,6.30134 0.96341,12.61486 1.25517,18.92024 -2.31296,0.20382 -1.07456,-4.47995 -1.67938,-6.21738 -0.18927,-3.3809 -0.6615,-6.74832 -0.69756,-10.136 z"
               style="font-size:21.1284px;line-height:1.25;font-family:Purisa;-inkscape-font-specification:Purisa;text-align:center;letter-spacing:0px;word-spacing:0px;text-anchor:middle;fill:#dca91d;fill-opacity:1;stroke:#dca91d;stroke-width:1.04949;stroke-miterlimit:4;stroke-dasharray:none;stroke-opacity:1"
               id="path1604" />
            <path
               id="path1623"
               style="font-size:21.1284px;line-height:1.25;font-family:Purisa;-inkscape-font-specification:Purisa;text-align:center;letter-spacing:0px;word-spacing:0px;text-anchor:middle;fill:#44548e;fill-opacity:1;stroke:#44548e;stroke-width:1.04949;stroke-miterlimit:4;stroke-dasharray:none;stroke-opacity:1"
               d="m 105.77908,116.80517 c 2.16244,0.088 1.02811,4.68773 1.52125,6.5498 -0.19861,1.40694 1.02611,6.19798 -1.3311,4.88066 -0.30659,-3.61606 -0.6044,-7.2706 -0.44369,-10.89697 l 0.10564,-0.33145 0.1479,-0.20204 z M 105.65231,111.84 c 1.62564,-3.23074 2.37822,3.31545 0,0 z" />
          </g>
        </g>
      </g>
    </g>
  </g>
</svg>
