<?xml version="1.0" encoding="UTF-8" standalone="no"?>
<svg
   xmlns:dc="http://purl.org/dc/elements/1.1/"
   xmlns:cc="http://creativecommons.org/ns#"
   xmlns:rdf="http://www.w3.org/1999/02/22-rdf-syntax-ns#"
   xmlns:svg="http://www.w3.org/2000/svg"
   xmlns="http://www.w3.org/2000/svg"
   xmlns:sodipodi="http://sodipodi.sourceforge.net/DTD/sodipodi-0.dtd"
   xmlns:inkscape="http://www.inkscape.org/namespaces/inkscape"
   width="101.41367mm"
   height="67.918159mm"
   viewBox="0 0 101.41367 67.918159"
   version="1.1"
   id="svg8"
   inkscape:version="1.0 (1.0+r73)"
   sodipodi:docname="pronat.svg">
  <defs
     id="defs2">
    <inkscape:path-effect
       effect="bspline"
       id="path-effect883"
       is_visible="true"
       lpeversion="1"
       weight="33.333333"
       steps="2"
       helper_size="0"
       apply_no_weight="true"
       apply_with_weight="true"
       only_selected="false" />
    <inkscape:path-effect
       effect="bspline"
       id="path-effect879"
       is_visible="true"
       lpeversion="1"
       weight="33.333333"
       steps="2"
       helper_size="0"
       apply_no_weight="true"
       apply_with_weight="true"
       only_selected="false" />
    <inkscape:path-effect
       effect="bspline"
       id="path-effect869"
       is_visible="true"
       lpeversion="1"
       weight="33.333333"
       steps="2"
       helper_size="0"
       apply_no_weight="true"
       apply_with_weight="true"
       only_selected="false" />
    <filter
       id="filter1508"
       style="color-interpolation-filters:sRGB;"
       inkscape:menu-tooltip="Gives a canvas like HSL sensitive transparency."
       inkscape:menu="Overlays"
       inkscape:label="Canvas Transparency">
      <feTurbulence
         id="feTurbulence1492"
         type="turbulence"
         baseFrequency="0.3"
         numOctaves="10"
         result="result1" />
      <feColorMatrix
         id="feColorMatrix1494"
         type="luminanceToAlpha"
         in="SourceGraphic"
         result="result0" />
      <feColorMatrix
         id="feColorMatrix1496"
         result="result2"
         values="1 0 0 0 0 0 1 0 0 0 0 0 1 0 0 0 0 0 0.4 0 " />
      <feComposite
         id="feComposite1498"
         in2="result1"
         operator="over"
         in="result2" />
      <feColorMatrix
         id="feColorMatrix1500"
         result="result91"
         values="1 0 0 0 0 0 1 0 0 0 0 0 1 0 0 0 0 0 10 -4 " />
      <feComposite
         id="feComposite1502"
         in2="result91"
         in="SourceGraphic"
         operator="out" />
      <feGaussianBlur
         id="feGaussianBlur1504"
         stdDeviation="0.7" />
      <feColorMatrix
         id="feColorMatrix1506"
         values="1 0 0 0 0 0 1 0 0 0 0 0 1 0 0 0 0 0 1 0 " />
    </filter>
    <filter
       id="filter1522"
       style="color-interpolation-filters:sRGB;"
       inkscape:menu-tooltip="Gives a pointillist HSL sensitive transparency"
       inkscape:menu="Overlays"
       inkscape:label="Dots Transparency">
      <feTurbulence
         id="feTurbulence1510"
         seed="50"
         type="fractalNoise"
         baseFrequency="1"
         numOctaves="3"
         result="result1" />
      <feColorMatrix
         id="feColorMatrix1512"
         type="luminanceToAlpha"
         in="SourceGraphic"
         result="result0" />
      <feColorMatrix
         id="feColorMatrix1514"
         result="result2"
         values="1 0 0 0 0 0 1 0 0 0 0 0 1 0 0 0 0 0 0.7 0 " />
      <feComposite
         id="feComposite1516"
         result="result3"
         in2="result2"
         operator="over"
         in="result1" />
      <feColorMatrix
         id="feColorMatrix1518"
         result="result91"
         values="1 0 0 0 0 0 1 0 0 0 0 0 1 0 0 0 0 0 5 -3.2 " />
      <feComposite
         id="feComposite1520"
         in2="result91"
         result="result4"
         in="SourceGraphic"
         operator="out" />
    </filter>
    <clipPath
       id="clipPath1546"
       clipPathUnits="userSpaceOnUse">
      <rect
         y="87.680588"
         x="48.071419"
         height="67.918159"
         width="101.41367"
         id="rect1548"
         style="opacity:0.99;fill:#44548e;fill-opacity:1;stroke:#44548e;stroke-width:0.504;stroke-linecap:round;stroke-opacity:1;paint-order:stroke fill markers" />
    </clipPath>
    <clipPath
       clipPathUnits="userSpaceOnUse"
       id="clipPath121">
      <rect
         style="opacity:0.99;fill:#436d9e;stroke:#436d9e;stroke-width:1.173;stroke-linecap:round;paint-order:stroke fill markers"
         id="rect123"
         width="121.16169"
         height="82.259987"
         x="-35.035927"
         y="-189.9751" />
    </clipPath>
  </defs>
  <sodipodi:namedview
     id="base"
     pagecolor="#ffffff"
     bordercolor="#666666"
     borderopacity="1.0"
     inkscape:pageopacity="0.0"
     inkscape:pageshadow="2"
     inkscape:zoom="0.98994952"
     inkscape:cx="-73.832437"
     inkscape:cy="55.991351"
     inkscape:document-units="mm"
     inkscape:current-layer="g1542"
     inkscape:document-rotation="0"
     showgrid="false"
     inkscape:window-width="1920"
     inkscape:window-height="1050"
     inkscape:window-x="0"
     inkscape:window-y="0"
     inkscape:window-maximized="1"
     fit-margin-top="0"
     fit-margin-left="0"
     fit-margin-right="0"
     fit-margin-bottom="0" />
  <metadata
     id="metadata5">
    <rdf:RDF>
      <cc:Work
         rdf:about="">
        <dc:format>image/svg+xml</dc:format>
        <dc:type
           rdf:resource="http://purl.org/dc/dcmitype/StillImage" />
        <dc:title></dc:title>
      </cc:Work>
    </rdf:RDF>
  </metadata>
  <g
     sodipodi:insensitive="true"
     style="display:inline"
     inkscape:label="Layer 1"
     inkscape:groupmode="layer"
     id="layer1"
     transform="translate(-45.903946,-42.411727)">
    <g
       id="g140">
      <g
         style="font-style:normal;font-variant:normal;font-weight:normal;font-stretch:normal;font-size:15.3046px;line-height:1.25;font-family:'Latin Modern Math';-inkscape-font-specification:'Latin Modern Math';text-align:center;letter-spacing:0px;word-spacing:0px;text-anchor:middle;fill:#000000;fill-opacity:1;stroke:#000000;stroke-width:1.173;stroke-miterlimit:4;stroke-dasharray:none"
         inkscape:export-ydpi="50"
         inkscape:export-xdpi="50"
         inkscape:export-filename="/home/jorge/Pictures/pronat.png"
         clip-path="url(#clipPath1546)"
         id="g1542"
         transform="translate(-2.1674728,-45.268869)">
        <g
           id="g430">
          <path
             id="rect863"
             style="opacity:0.99;fill:#ff86b1;fill-opacity:1;stroke:#79ee88;stroke-width:0.504;stroke-linecap:round;stroke-opacity:1;paint-order:stroke fill markers;filter:url(#filter1522)"
             d="m 48.071418,87.680586 c 33.804558,0 67.609112,0 101.413672,0 0,22.639394 0,45.278774 0,67.918164 -33.80456,0 -67.609114,0 -101.413672,0 0,-22.63939 0,-45.27877 0,-67.918164 z" />
          <path
             id="rect865"
             style="opacity:0.99;fill:#c5cf8e;fill-opacity:1;stroke:#c5cf8e;stroke-width:1.90488;stroke-linecap:round;stroke-opacity:1;paint-order:stroke fill markers;filter:url(#filter1508)"
             d="m 516.34961,414.25781 c -36.672,0.5779 -62.22836,31.14196 -82.7312,57.88627 -15.88785,21.75745 -37.73043,43.24176 -66.56122,43.31633 -37.17212,1.51495 -76.92253,-3.40869 -110.63976,16.06871 -30.45201,16.02497 -55.88926,39.69875 -80.55024,63.33026 126.97461,0 253.94922,0 380.92383,0 0,-56.7207 0,-113.44141 0,-170.16211 -12.3704,-6.65301 -26.32419,-10.71141 -40.44141,-10.43946 z"
             transform="matrix(0.26458333,0,0,0.26458333,2.1674721,-1.7911315)" />
          <path
             id="rect859"
             style="opacity:0.99;fill:#ffe13b;fill-opacity:1;stroke:#ffe13b;stroke-width:0.504;stroke-linecap:round;stroke-opacity:1;paint-order:stroke fill markers;filter:url(#filter1522)"
             d="m 48.071418,87.680586 c 0,14.914164 0,29.828334 0,44.742494 9.270424,3.1937 19.352602,-2.34432 23.817301,-10.58736 3.487997,-5.4705 4.356144,-12.38999 1.953845,-18.46996 -2.44791,-6.314693 5.987554,-7.801499 9.969603,-9.924535 3.081652,-0.473026 7.942972,-7.005368 2.306221,-5.760639 -12.682323,0 -25.364647,0 -38.04697,0 z" />
          <path
             id="path896"
             style="font-style:normal;font-variant:normal;font-weight:normal;font-stretch:normal;font-family:Purisa;-inkscape-font-specification:Purisa;fill:#ff3179;fill-opacity:1;stroke:#ff3179;stroke-width:1.173;stroke-miterlimit:4;stroke-dasharray:none;stroke-opacity:1"
             d="m 57.636844,114.78241 c 3.308305,-1.77697 7.697163,1.82232 4.664948,4.97872 -1.533853,2.25702 -6.199044,1.33998 -4.537392,5.19407 0.591686,1.74348 -0.74389,4.0586 -1.254488,1.20276 -0.07612,-3.03476 -0.292712,-6.087 -0.509166,-9.04938 -2.941839,0.86967 0.660944,-3.14869 1.636098,-2.32617 z m 3.336403,1.14784 c -3.570246,-2.48072 -5.678585,5.59111 -1.657281,4.59075 1.645395,-0.49121 4.71333,-3.72581 1.657281,-4.59075 z" />
          <path
             id="path898"
             style="font-style:normal;font-variant:normal;font-weight:normal;font-stretch:normal;font-family:Purisa;-inkscape-font-specification:Purisa;fill:#ff3179;fill-opacity:1;stroke:#ff3179;stroke-width:1.173;stroke-miterlimit:4;stroke-dasharray:none;stroke-opacity:1"
             d="m 70.428094,119.51153 c -0.206729,2.27205 -3.998,3.56217 -3.142091,6.54628 -1.783201,3.2838 -1.243245,-2.84393 -1.693328,-4.11971 -0.553878,-1.41378 0.983728,-4.67931 0.836892,-1.5659 0.149804,4.13983 1.654498,0.14107 3.308526,-0.67973 z" />
          <path
             id="path900"
             style="font-style:normal;font-variant:normal;font-weight:normal;font-stretch:normal;font-family:Purisa;-inkscape-font-specification:Purisa;fill:#c5cf8e;fill-opacity:1;stroke:#c5cf8e;stroke-width:1.173;stroke-miterlimit:4;stroke-dasharray:none;stroke-opacity:1"
             d="m 74.376268,120.0778 c 2.133141,-3.37554 8.526056,-1.82881 6.572297,2.67159 -0.126493,3.83265 -5.85319,6.4976 -7.697409,2.39063 -0.731207,-1.69097 -0.322253,-3.87335 1.125112,-5.06222 z m 2.46404,6.29019 c 3.846792,-0.42294 4.964925,-8.76005 -0.155434,-6.75312 -3.072208,1.04707 -3.91867,6.65491 0.155434,6.75312 z" />
          <path
             id="path902"
             style="font-style:normal;font-variant:normal;font-weight:normal;font-stretch:normal;font-family:Purisa;-inkscape-font-specification:Purisa;fill:#c5cf8e;fill-opacity:1;stroke:#c5cf8e;stroke-width:1.173;stroke-miterlimit:4;stroke-dasharray:none;stroke-opacity:1"
             d="m 82.792121,118.66977 c 1.630779,-0.1806 0.442391,7.44166 2.045672,2.95965 0.137891,-2.41236 3.999167,-4.5964 4.036541,-0.90952 -0.122345,1.70689 1.057543,5.37677 -0.5943,5.97174 -0.496152,-1.88595 1.232296,-7.27928 -1.683518,-6.6485 -1.825795,1.59316 -1.874971,6.61153 -3.035517,6.82817 -0.476852,-2.70846 -0.463968,-5.47394 -0.768878,-8.20154 z" />
          <path
             id="path904"
             style="font-style:normal;font-variant:normal;font-weight:normal;font-stretch:normal;font-family:Purisa;-inkscape-font-specification:Purisa;fill:#c5cf8e;fill-opacity:1;stroke:#c5cf8e;stroke-width:1.173;stroke-miterlimit:4;stroke-dasharray:none;stroke-opacity:1"
             d="m 95.952247,119.32787 c -1.315806,0.13616 -5.495598,1.95566 -2.519015,-0.23796 3.878492,-2.10373 5.140518,3.02075 4.511033,5.84017 0.06357,1.76487 -0.658094,2.10784 -1.307457,0.66829 -1.850741,2.04567 -6.37046,1.57759 -4.272933,-1.85711 1.46755,-2.29789 5.87178,0.7082 4.614006,-2.86424 -0.06578,-0.62674 -0.329892,-1.38356 -1.025634,-1.54915 z m 0.688707,4.74443 c -1.944211,-3.6005 -6.233821,3.44608 -1.714109,1.80596 0.788213,-0.35442 1.249825,-1.12202 1.714109,-1.80596 z" />
          <path
             id="path906"
             style="font-style:normal;font-variant:normal;font-weight:normal;font-stretch:normal;font-family:Purisa;-inkscape-font-specification:Purisa;fill:#c5cf8e;fill-opacity:1;stroke:#c5cf8e;stroke-width:1.173;stroke-miterlimit:4;stroke-dasharray:none;stroke-opacity:1"
             d="m 103.58896,116.31287 c -0.75621,-1.37211 0.46088,-5.4893 0.6899,-1.91295 -0.51165,2.14559 0.96612,2.65375 2.51836,2.46195 -1.45943,0.59613 -3.107,1.44938 -2.16598,3.61405 -0.0851,1.89619 0.86373,5.91206 0.1207,6.46892 -2.306,-2.45124 1.4073,-9.23412 -3.31676,-8.60262 -2.113341,-0.64917 3.04206,-0.72375 2.15378,-2.02935 z" />
          <path
             id="path908"
             style="font-style:normal;font-variant:normal;font-weight:normal;font-stretch:normal;font-family:Purisa;-inkscape-font-specification:Purisa;fill:#c5cf8e;fill-opacity:1;stroke:#c5cf8e;stroke-width:1.173;stroke-miterlimit:4;stroke-dasharray:none;stroke-opacity:1"
             d="m 110.1621,120.0778 c 2.13313,-3.37554 8.52607,-1.82881 6.57227,2.67158 -0.12649,3.83265 -5.85317,6.49761 -7.69738,2.39063 -0.73121,-1.69096 -0.32226,-3.87334 1.12511,-5.06221 z m 2.46404,6.29019 c 3.84678,-0.42294 4.96493,-8.76005 -0.15542,-6.75312 -3.0722,1.04707 -3.91867,6.65489 0.15542,6.75312 z" />
          <path
             id="path910"
             style="font-style:normal;font-variant:normal;font-weight:normal;font-stretch:normal;font-family:Purisa;-inkscape-font-specification:Purisa;fill:#ffe136;fill-opacity:1;stroke:#ffe136;stroke-width:1.173;stroke-miterlimit:4;stroke-dasharray:none;stroke-opacity:1"
             d="m 119.52448,119.7717 c 0.79242,-2.47955 4.54218,-1.37608 6.51252,-1.43198 2.63279,2.45284 -0.0771,8.35653 -3.74048,7.79943 -0.99392,0.23491 0.96741,5.59172 -0.9249,3.86038 -1.51962,-2.926 0.009,-7.35743 -2.22758,-9.58386 l 0.009,-0.26215 z m 2.28038,5.08113 c 3.45174,1.73871 6.63221,-6.45224 1.78095,-5.67772 -3.70722,-0.14109 -2.36648,3.5827 -1.78095,5.67772 z" />
          <path
             id="path912"
             style="font-style:normal;font-variant:normal;font-weight:normal;font-stretch:normal;font-family:Purisa;-inkscape-font-specification:Purisa;fill:#ffe136;fill-opacity:1;stroke:#ffe136;stroke-width:1.173;stroke-miterlimit:4;stroke-dasharray:none;stroke-opacity:1"
             d="m 130.24932,118.22594 c 1.91293,2.06675 1.18256,6.41987 0.71355,8.33918 -1.68223,-1.91572 -0.62414,-5.8989 -0.71355,-8.33918 z m -0.0918,-3.59658 c 1.53625,-2.32285 1.18059,2.34103 0,0 z" />
          <path
             id="path914"
             style="font-style:normal;font-variant:normal;font-weight:normal;font-stretch:normal;font-family:Purisa;-inkscape-font-specification:Purisa;fill:#ffe136;fill-opacity:1;stroke:#ffe136;stroke-width:1.173;stroke-miterlimit:4;stroke-dasharray:none;stroke-opacity:1"
             d="m 140.68459,119.32787 c -1.31579,0.13616 -5.4956,1.95566 -2.51904,-0.23796 3.87849,-2.10374 5.14051,3.02076 4.51098,5.84017 0.0635,1.76486 -0.65813,2.10785 -1.30747,0.66829 -1.85074,2.04567 -6.37046,1.57758 -4.27293,-1.85711 1.46755,-2.29788 5.87186,0.70821 4.61395,-2.86431 -0.0658,-0.62665 -0.3298,-1.38349 -1.02549,-1.54908 z m 0.68871,4.74443 c -1.94419,-3.60049 -6.23382,3.44608 -1.71412,1.80596 0.78823,-0.35441 1.24981,-1.12204 1.71412,-1.80596 z" />
        </g>
      </g>
    </g>
  </g>
</svg>
