<?xml version="1.0" encoding="UTF-8" standalone="no"?>
<svg
   xmlns:dc="http://purl.org/dc/elements/1.1/"
   xmlns:cc="http://creativecommons.org/ns#"
   xmlns:rdf="http://www.w3.org/1999/02/22-rdf-syntax-ns#"
   xmlns:svg="http://www.w3.org/2000/svg"
   xmlns="http://www.w3.org/2000/svg"
   xmlns:sodipodi="http://sodipodi.sourceforge.net/DTD/sodipodi-0.dtd"
   xmlns:inkscape="http://www.inkscape.org/namespaces/inkscape"
   sodipodi:docname="tea418.svg"
   inkscape:version="1.0 (1.0+r73+1)"
   id="svg8"
   version="1.1"
   viewBox="0 0 98.0709 83.497841"
   height="83.497841mm"
   width="98.0709mm">
  <defs
     id="defs2">
    <inkscape:path-effect
       lpeversion="1"
       is_visible="true"
       id="path-effect1537"
       effect="spiro" />
    <inkscape:path-effect
       lpeversion="1"
       is_visible="true"
       id="path-effect1417"
       effect="spiro" />
    <inkscape:path-effect
       lpeversion="0"
       effect="bspline"
       id="path-effect1126"
       is_visible="true"
       weight="33.333333"
       steps="2"
       helper_size="0"
       apply_no_weight="true"
       apply_with_weight="true"
       only_selected="false" />
  </defs>
  <sodipodi:namedview
     fit-margin-bottom="0"
     fit-margin-right="0"
     fit-margin-left="0"
     fit-margin-top="0"
     inkscape:window-maximized="1"
     inkscape:window-y="0"
     inkscape:window-x="0"
     inkscape:window-height="1050"
     inkscape:window-width="1920"
     showgrid="false"
     inkscape:document-rotation="0"
     inkscape:current-layer="layer1"
     inkscape:document-units="mm"
     inkscape:cy="102.94473"
     inkscape:cx="126.75392"
     inkscape:zoom="1.979899"
     inkscape:pageshadow="2"
     inkscape:pageopacity="0.0"
     borderopacity="1.0"
     bordercolor="#666666"
     pagecolor="#ffffff"
     id="base" />
  <metadata
     id="metadata5">
    <rdf:RDF>
      <cc:Work
         rdf:about="">
        <dc:format>image/svg+xml</dc:format>
        <dc:type
           rdf:resource="http://purl.org/dc/dcmitype/StillImage" />
        <dc:title></dc:title>
      </cc:Work>
    </rdf:RDF>
  </metadata>
  <g
     transform="translate(-57.199419,-81.364502)"
     inkscape:label="Layer 3"
     id="layer6"
     inkscape:groupmode="layer" />
  <g
     transform="translate(-57.199419,-81.364502)"
     id="layer1"
     inkscape:groupmode="layer"
     inkscape:label="Layer 1">
    <g
       id="g1826">
      <g
         id="g1317"
         style="stroke:#0e1111;stroke-width:0.1;stroke-miterlimit:4;stroke-dasharray:none;stroke-opacity:1">
        <g
           id="g1521">
          <g
             id="g1462">
            <g
               id="g1660">
              <g
                 id="g1469"
                 style="stroke:#0e1111;stroke-width:0.1;stroke-miterlimit:4;stroke-dasharray:none;stroke-opacity:1">
                <path
                   style="fill:none;stroke:#0e1111;stroke-width:0.1;stroke-linecap:butt;stroke-linejoin:miter;stroke-miterlimit:4;stroke-dasharray:none;stroke-opacity:1"
                   d="m 133.25887,115.33367 c 0.54034,0 0.79893,0.3496 1.25625,0.58047 0.25646,0.12946 1.23532,0.005 1.49091,-0.0921 1.96432,-0.79703 3.52805,-5.0054 6.14768,-5.55962 1.42777,-0.70798 2.90511,-0.57033 4.54188,-0.57033 0.38847,0 0.89883,0.0937 1.2738,0 0.13031,-0.0326 0.61248,-0.003 0.70048,-0.0943 0.1741,-0.17973 1.22814,-0.56766 1.50297,-0.70111 0.15217,-0.0739 0.53909,0 0.70742,0 0.53702,0 1.31371,-0.0654 1.55313,0.17295 0.62291,0.61996 1.22562,2.81901 1.67513,3.7124 0.71041,1.32913 0.86835,2.70912 0.86635,4.30275 0.23201,0.69601 0.4957,3.45542 -0.22096,3.82147 0,0 -0.6298,2.64994 -0.6298,3.35997 0,0.71002 0.5888,2.57612 0.33984,3.22335 -0.24896,0.64722 -4.42947,1.64965 -4.62993,2.99404 -0.26508,1.77778 -14.06528,8.13758 -16.88322,9.25187 -1.59384,0.63025 -10.08715,4.19505 -10.08715,4.19505"
                   id="path357"
                   sodipodi:nodetypes="cccsssscsccscssssc" />
                <path
                   style="fill:none;stroke:#0e1111;stroke-width:0.1;stroke-linecap:butt;stroke-linejoin:miter;stroke-miterlimit:4;stroke-dasharray:none;stroke-opacity:1"
                   d="m 60.642949,109.97542 c 3.639026,3.42276 8.952759,0.32834 13.042728,1.69166 4.77515,1.59172 9.929542,1.99715 15.119048,2.64584 9.951489,0.67289 20.530635,0.60493 29.671135,0.56696 4.21882,0 14.388,-0.10353 16.23733,-3.79967 1.33956,-2.6773 -12.33071,-3.32319 -14.05837,-3.61113 -6.23116,-1.03853 -12.73121,-0.34997 -19.01833,-1.04854 -7.05035,-0.78337 -14.213282,-1.06156 -21.173631,-1.06156 -4.437348,0 -10.807593,-0.58488 -15.088671,0.27134 -0.573881,0.11477 -9.848193,2.62279 -7.841387,3.82153 0.796533,0.47581 2.113902,0.38205 3.110148,0.52357 z"
                   id="path325"
                   sodipodi:nodetypes="csccssssssc" />
                <path
                   style="fill:none;stroke:#0e1111;stroke-width:0.1;stroke-linecap:butt;stroke-linejoin:miter;stroke-miterlimit:4;stroke-dasharray:none;stroke-opacity:1"
                   d="m 60.642949,109.97542 c 0,0 2.668638,5.35285 3.520752,8.42718 0.852115,3.07432 6.499008,23.50753 7.191433,24.54413 0.692423,1.03659 5.323666,7.47719 10.443104,9.68297"
                   id="path329" />
                <path
                   style="fill:none;stroke:#0e1111;stroke-width:0.1;stroke-linecap:butt;stroke-linejoin:miter;stroke-miterlimit:4;stroke-dasharray:none;stroke-opacity:1"
                   d="m 110.09275,154.95159 c -1.87245,1.10462 -8.946,1.33865 -13.55331,1.49173 -4.607311,0.15307 -14.741204,-3.81362 -14.741204,-3.81362 2e-6,0 -1.506164,2.54635 -1.049075,3.46899 0.457088,0.92265 -1.925282,1.39108 1.728726,4.01386 3.654009,2.62278 9.92676,5.95899 19.114763,4.21745 9.188,-1.74154 11.73317,-4.82214 12.08502,-6.10646 0.35185,-1.28431 -0.49605,-4.61398 -0.49605,-4.61398 0,0 8.69893,-2.73225 14.0417,-20.00082 5.34276,-17.26858 7.38046,-22.3702 7.38046,-22.3702"
                   id="path331" />
                <path
                   id="path343"
                   style="fill:none;stroke:#0e1111;stroke-width:0.1;stroke-linecap:butt;stroke-linejoin:miter;stroke-miterlimit:4;stroke-dasharray:none;stroke-opacity:1"
                   d="m 129.21413,127.68898 c 0.60266,-1.45207 1.89637,-2.47712 3.24904,-3.19926 0.7433,-1.30688 1.92662,-2.69683 3.54704,-2.71219 1.47406,-0.52819 2.96242,-0.91664 4.52115,-1.05145 1.46231,-0.33434 2.70816,-1.33439 3.06449,-2.83071 0.12561,-1.41787 0.33253,-3.10779 1.89853,-3.70364 1.39149,-0.15978 2.41614,0.16053 3.75879,0.73461 0.7294,0.9872 1.69887,1.63343 1.70015,2.87769 -0.11087,1.44688 0.17273,2.90979 -0.10292,4.34629 -1.06595,1.81595 -1.72042,3.89636 -3.23044,5.42208 -1.591,1.82741 -3.50516,3.52566 -5.88901,4.18654 -1.3747,0.74782 -2.83706,1.2733 -4.29895,1.84487 -3.73119,2.26942 -8.60588,3.26169 -11.79759,4.87951"
                   sodipodi:nodetypes="ccccccccccccc" />
              </g>
              <g
                 id="g1594">
                <g
                   id="g1541"
                   style="stroke:#11d01c;stroke-width:0.08;stroke-miterlimit:4;stroke-dasharray:none;stroke-opacity:1">
                  <path
                     inkscape:original-d="m 94.643711,122.74039 c -3.528401,0.065 -7.057064,0.12966 -10.585995,0.19409 -3.528927,0.0644 -1.51426,-2.9397 -2.271789,-4.40994 -0.757528,-1.47025 -3.211869,2.01744 -4.818202,3.02576 -1.606331,1.00833 -3.687236,3.18365 -5.53125,4.77508 -1.844016,1.59143 -0.57232,-4.89633 -0.858877,-7.34489"
                     inkscape:path-effect="#path-effect1537"
                     id="path1535"
                     d="m 94.643711,122.74039 c -0.382157,1.07579 -1.098796,2.03008 -2.025365,2.69704 -0.926569,0.66696 -2.058988,1.04363 -3.200444,1.06456 -1.141457,0.0209 -2.286922,-0.31398 -3.237317,-0.94653 -0.950395,-0.63254 -1.701534,-1.55993 -2.122869,-2.62098 -0.314853,-0.7929 -0.446731,-1.64698 -0.73147,-2.45119 -0.142369,-0.4021 -0.324278,-0.79332 -0.576463,-1.13735 -0.252184,-0.34403 -0.577665,-0.64026 -0.963856,-0.8214 -0.474196,-0.22242 -1.024081,-0.26147 -1.536341,-0.15228 -0.512259,0.10919 -0.987866,0.36087 -1.397086,0.68778 -0.81844,0.65382 -1.362155,1.58241 -1.884775,2.49026 -0.636884,1.10634 -1.280142,2.22806 -2.173661,3.13979 -0.446759,0.45586 -0.95489,0.85586 -1.522682,1.14743 -0.567792,0.29158 -1.196802,0.47279 -1.834907,0.48786 -0.914495,0.0216 -1.832888,-0.30936 -2.523379,-0.90935 -0.690491,-0.59999 -1.146392,-1.4632 -1.252634,-2.37176 -0.106243,-0.90856 0.138201,-1.85367 0.671636,-2.59678 0.533435,-0.74311 1.350692,-1.27703 2.2455,-1.467"
                     style="fill:none;stroke:#11d01c;stroke-width:0.08;stroke-linecap:butt;stroke-linejoin:miter;stroke-miterlimit:4;stroke-dasharray:none;stroke-opacity:1" />
                  <path
                     inkscape:original-d="m 79.594714,128.36681 c -0.779446,1.84264 -1.55916,3.68501 -2.339139,5.52712 -0.779975,1.84212 1.920391,2.10458 2.880188,3.15646 0.9598,1.0519 3.870905,-2.49271 5.805961,-3.73946 1.935054,-1.24676 3.209952,0.47476 4.814531,0.71174 1.604579,0.23699 1.553882,3.28802 2.330428,4.93163 0.776545,1.64361 4.836459,-2.32038 7.254297,-3.48096 2.41783,-1.16059 2.14188,0.97623 3.21242,1.46395 1.07055,0.48771 1.60048,-0.65679 2.40032,-0.98559 0.79984,-0.32879 -3.13219,-3.58834 -4.69868,-5.38291 -1.566487,-1.79457 -5.603512,0.72983 -8.405667,1.09434 -2.802157,0.36452 -2.578914,-1.77003 -3.868766,-2.65545 -1.289854,-0.88542 -2.378657,3.50173 -3.568383,5.2522 -1.189725,1.75047 -2.350889,2.75752 -3.526731,4.13588 -1.17584,1.37836 -3.451072,2.89133 -5.177007,4.3366 -1.725933,1.44526 1.92424,2.77617 2.885964,4.16385 0.961726,1.38769 3.436987,-1.75475 5.155083,-2.63252 1.718096,-0.87778 2.322248,0.51164 3.482975,0.76706 1.160724,0.25543 3.866864,4.70239 5.799899,7.05319 1.933036,2.35079 3.136041,0.59274 4.703662,0.88871 1.567621,0.29598 -0.137419,-3.6948 -0.206525,-5.5426 -0.06911,-1.84781 3.177116,0.40974 4.765276,0.61421 1.58817,0.20447 2.34943,0.0827 3.52375,0.12369 1.17432,0.041 7.87722,-5.45333 11.81543,-8.1804 3.93821,-2.72706 -2.62867,-1.63821 -3.9434,-2.45771 -1.31473,-0.8195 -0.74338,-2.92191 -1.11547,-4.38327 -0.37209,-1.46135 3.75444,-0.46546 5.63125,-0.69858 1.87683,-0.23313 1.43498,-3.99999 2.15207,-6.00038 0.7171,-2.00039 -1.1414,-2.18146 -1.7125,-3.27258 -0.5711,-1.09113 -3.37242,0.46292 -5.05902,0.69398 -1.68661,0.23107 -5.95036,1.84176 -8.92593,2.76225 -2.97557,0.92048 -0.34101,-2.563 -0.51192,-3.84489 -0.1709,-1.28189 -2.64414,-2.71979 -3.9666,-4.08009 -1.322471,-1.36029 -2.837523,0.9881 -4.256679,1.48175 -1.419156,0.49365 -1.521129,1.70184 -2.28209,2.55236"
                     inkscape:path-effect="#path-effect1417"
                     id="path1415"
                     d="m 79.594714,128.36681 c -0.872785,0.59597 -1.569316,1.44678 -1.981218,2.42006 -0.411902,0.97328 -0.537735,2.06562 -0.357921,3.10706 0.130209,0.75414 0.424485,1.49036 0.919054,2.07438 0.494569,0.58402 1.199701,1.00527 1.961134,1.08208 0.58958,0.0595 1.187842,-0.0865 1.72048,-0.34623 0.532639,-0.25969 1.004799,-0.62923 1.440494,-1.03087 0.87139,-0.80327 1.627123,-1.7553 2.644987,-2.36236 0.76772,-0.45787 1.678136,-0.69836 2.56603,-0.595 0.887894,0.10336 1.743926,0.56888 2.248501,1.30674 0.264324,0.38653 0.427918,0.83349 0.547246,1.28629 0.119329,0.45281 0.196856,0.91555 0.304862,1.37119 0.108007,0.45565 0.248419,0.9085 0.48313,1.31369 0.234711,0.4052 0.570789,0.76257 0.99519,0.96046 0.321592,0.14995 0.684238,0.2035 1.037998,0.17593 0.353761,-0.0276 0.698881,-0.13437 1.01746,-0.29062 0.637158,-0.3125 1.160367,-0.81323 1.652344,-1.32468 0.491976,-0.51145 0.969309,-1.04633 1.550917,-1.45298 0.290803,-0.20332 0.607001,-0.37324 0.945023,-0.48117 0.338021,-0.10792 0.698622,-0.15271 1.050555,-0.10744 0.58798,0.0756 1.11352,0.39271 1.61472,0.70932 0.5012,0.31662 1.01474,0.6469 1.5977,0.75463 0.44792,0.0828 0.91904,0.0261 1.33898,-0.15032 0.41994,-0.17645 0.788,-0.4709 1.06134,-0.83527 0.45594,-0.60779 0.63885,-1.40338 0.53766,-2.15641 -0.10119,-0.75302 -0.47656,-1.45914 -1.01313,-1.99708 -0.53656,-0.53795 -1.22835,-0.9108 -1.96206,-1.10817 -0.73371,-0.19737 -1.50822,-0.22312 -2.26115,-0.12125 -1.440771,0.19492 -2.775957,0.84136 -4.169797,1.25491 -0.696919,0.20678 -1.416732,0.35635 -2.143679,0.35753 -0.726948,0.001 -1.46414,-0.15203 -2.092191,-0.5181 -0.689755,-0.40203 -1.20995,-1.03245 -1.788381,-1.58273 -0.289215,-0.27514 -0.597754,-0.53377 -0.945063,-0.73056 -0.34731,-0.19678 -0.736313,-0.33033 -1.135322,-0.34216 -0.572027,-0.017 -1.134372,0.22064 -1.572133,0.58924 -0.43776,0.36861 -0.758817,0.86059 -0.992654,1.38291 -0.467676,1.04465 -0.601199,2.20856 -1.003596,3.28005 -0.648012,1.7255 -1.976976,3.13811 -3.526731,4.13588 -0.969214,0.624 -2.028347,1.10095 -2.984575,1.74468 -0.956228,0.64372 -1.83139,1.4972 -2.192432,2.59192 -0.310987,0.94294 -0.194653,2.02945 0.35609,2.85561 0.275371,0.41308 0.653336,0.7583 1.093157,0.98856 0.43982,0.23027 0.940878,0.34434 1.436717,0.31968 0.487695,-0.0243 0.962065,-0.18014 1.398399,-0.39934 0.436334,-0.2192 0.837987,-0.50093 1.230953,-0.79078 0.785932,-0.5797 1.576644,-1.21224 2.525731,-1.4424 0.593754,-0.14399 1.221947,-0.11949 1.815142,0.0268 0.593194,0.14627 1.152834,0.41156 1.667833,0.74027 1.291388,0.82426 2.292175,2.0305 3.170507,3.28574 0.878333,1.25524 1.658853,2.58206 2.629392,3.76745 0.599901,0.7327 1.309801,1.43285 2.214632,1.71216 0.452415,0.13966 0.945811,0.16539 1.399679,0.0305 0.453868,-0.13486 0.863727,-0.43771 1.089351,-0.85398 0.229751,-0.42388 0.257411,-0.93316 0.178054,-1.40872 -0.07936,-0.47557 -0.258145,-0.92775 -0.424165,-1.38041 -0.166019,-0.45266 -0.321722,-0.91639 -0.351533,-1.39761 -0.0149,-0.24061 0.0023,-0.48428 0.0646,-0.71716 0.0623,-0.23288 0.170544,-0.45489 0.326517,-0.6387 0.278611,-0.32834 0.698285,-0.51823 1.125687,-0.57075 0.427399,-0.0525 0.862649,0.0232 1.271419,0.15862 0.81754,0.27083 1.54444,0.77496 2.36817,1.02634 1.13074,0.34507 2.3433,0.18846 3.52375,0.12369 1.51066,-0.0829 3.02595,-0.01 4.53779,-0.0669 1.51184,-0.0573 3.0412,-0.25157 4.43436,-0.84154 1.39315,-0.58998 2.64777,-1.61319 3.27566,-2.98967 0.31395,-0.68824 0.46462,-1.4549 0.40002,-2.2086 -0.0646,-0.7537 -0.34864,-1.49216 -0.8324,-2.07372 -0.49848,-0.59925 -1.18322,-1.0122 -1.8787,-1.36419 -0.69547,-0.35198 -1.41907,-0.65678 -2.0647,-1.09352 -0.71544,-0.48397 -1.3385,-1.15154 -1.60654,-1.97267 -0.13401,-0.41056 -0.17549,-0.85392 -0.0969,-1.27859 0.0786,-0.42466 0.27999,-0.82921 0.58794,-1.13201 0.34625,-0.34046 0.81239,-0.54089 1.28959,-0.63079 0.4772,-0.0899 0.968,-0.0758 1.45178,-0.0339 0.48379,0.0419 0.96545,0.11135 1.45064,0.13124 0.48519,0.0199 0.97869,-0.0112 1.43924,-0.16513 0.55175,-0.18443 1.03872,-0.5426 1.40842,-0.99178 0.36969,-0.44919 0.62478,-0.98684 0.77555,-1.54873 0.30153,-1.12377 0.18961,-2.31763 -0.0319,-3.45987 -0.12027,-0.62019 -0.27372,-1.23882 -0.54031,-1.81156 -0.26659,-0.57274 -0.65312,-1.10094 -1.17219,-1.46102 -0.74807,-0.51894 -1.7227,-0.64683 -2.61675,-0.47485 -0.89406,0.17198 -1.71511,0.62097 -2.44227,1.16883 -1.42914,1.07675 -2.55657,2.55271 -4.11957,3.42385 -0.7815,0.43556 -1.67634,0.70774 -2.56791,0.63314 -0.44578,-0.0373 -0.88604,-0.16184 -1.27639,-0.38033 -0.39035,-0.2185 -0.72959,-0.53222 -0.96206,-0.91441 -0.33986,-0.55874 -0.43809,-1.23114 -0.4594,-1.88478 -0.0213,-0.65363 0.0267,-1.31094 -0.0525,-1.96011 -0.12399,-1.01585 -0.56995,-1.99432 -1.27644,-2.73472 -0.70649,-0.7404 -1.6728,-1.23445 -2.69016,-1.34537 -0.76622,-0.0835 -1.547694,0.0466 -2.26874,0.31897 -0.721045,0.27234 -1.384094,0.68377 -1.987939,1.16278 -0.898466,0.71272 -1.673955,1.58005 -2.28209,2.55236"
                     style="fill:none;stroke:#11d01c;stroke-width:0.08;stroke-linecap:butt;stroke-linejoin:miter;stroke-miterlimit:4;stroke-dasharray:none;stroke-opacity:1" />
                </g>
                <g
                   id="g1343">
                  <path
                     id="path1325"
                     d="m 78.658396,127.04151 c -0.727519,-0.20902 -1.384739,-0.52141 -2.063326,-0.79284 -1.123466,-0.44939 -1.215954,-1.26057 -1.41741,-2.26786 -0.04555,-0.22776 -0.123159,-0.62271 -0.04725,-0.85044 0.21086,-0.63259 1.309568,-0.70156 1.727594,-0.28354 0.426972,0.42698 0.669412,0.93325 0.992188,1.41741 0.245044,0.36757 0.787484,1.17241 0.433718,1.7005 -0.197906,0.29543 -1.654755,0.20041 -1.962687,0.0464 -0.753594,-0.3768 -0.952913,-1.60988 -0.613902,-2.31001 0.265033,-0.54733 1.280935,0.21633 1.490236,0.42564 0.293727,0.29372 0.750613,0.9411 0.483502,1.28882 -0.03171,0.0413 -0.247234,0.0638 -0.311488,0.0962 -0.403643,0.20345 -0.895078,-0.0939 -1.084472,-0.37797 -0.154633,-0.23196 -0.28348,-0.25154 -0.28348,-0.53824 0,-0.0393 0,-0.15736 0,-0.11802 0,0.0356 -0.01333,-0.12546 0.135269,-0.2018 0.100007,-0.0514 0.678113,-0.0445 0.770059,0 0.339188,0.16409 0.139353,0.86741 0.20551,0.86741 0.05865,0 -0.417362,-0.0601 -0.606579,-0.34445"
                     style="fill:none;stroke:#fe5d90;stroke-width:0.264583px;stroke-linecap:butt;stroke-linejoin:miter;stroke-opacity:1" />
                  <path
                     id="path1327"
                     d="m 79.877268,126.29287 c -0.802814,-0.77955 -1.168598,0.96058 -1.039437,1.60639 0.132908,0.66454 3.02572,0.75977 1.937129,-1.41741 -0.1938,-0.3876 -1.21946,-0.16984 -1.464657,-0.0472 -0.299974,0.14999 -0.425222,0.86361 -0.425222,1.18118 0,0.0225 -0.02455,0.35342 0,0.37798 0.223755,0.22375 2.031621,0.0263 2.031621,-0.85045 0,-0.0701 0.03734,-0.27376 0,-0.33073 -0.255746,-0.39012 -1.306761,0.0538 -1.557615,0.13798 -0.204928,0.0688 -0.197435,0.41177 -0.236236,0.56697 -0.02768,0.11072 -0.182472,0.38582 -0.09449,0.51972 0.09347,0.14225 0.22153,0.0945 0.373893,0.0945 0.930481,0 1.181174,-0.29729 1.181174,-1.18118 0,-0.45532 -0.708705,0.0746 -0.708705,0.61422 0,0.23146 0.326033,0.40223 0.467347,0.1399 0.126923,-0.23562 -1.053015,-0.69118 -0.748549,0.24879 0.110078,0.33984 1.875894,-0.0708 1.414169,-0.99427 -0.08246,-0.16492 -1.234083,-0.14033 -1.417412,-0.0945 -0.263576,0.0659 -0.59313,1.14651 -0.442931,1.21072 0.146711,0.0627 0.451948,0 0.611576,0 1.517949,0 0.132646,-1.948 -0.0945,-1.03944 -0.225269,0.90108 0.828088,0.45339 0.572688,-0.3128 -0.247737,-0.74321 -1.491689,0.51271 -1.086681,0.94494 0.01921,0.0205 0.402088,0 0.416793,0 0.246089,0 0.762622,0.0918 0.992188,0 0.431146,-0.17246 0.475667,-1.51191 3.7e-5,-1.51191 -0.644531,0 -1.046859,0.0732 -1.228424,0.70871 -0.06934,0.24269 -0.09449,0.50326 -0.09449,0.75595 0,0.0473 0.03204,0.17647 0,0.14174 -0.208912,-0.22643 -0.385424,-0.48073 -0.578136,-0.7211"
                     style="fill:none;stroke:#f7ff07;stroke-width:0.1;stroke-linecap:butt;stroke-linejoin:miter;stroke-miterlimit:4;stroke-dasharray:none;stroke-opacity:1" />
                  <path
                     style="fill:none;stroke:#fe5d90;stroke-width:0.264583px;stroke-linecap:butt;stroke-linejoin:miter;stroke-opacity:1"
                     d="m 78.658398,127.04157 c -0.727519,0.20902 -1.384739,0.52141 -2.063326,0.79284 -1.123466,0.44939 -1.215954,1.26057 -1.41741,2.26786 -0.04555,0.22776 -0.123159,0.62271 -0.04725,0.85044 0.21086,0.63259 1.309568,0.70156 1.727594,0.28354 0.426972,-0.42698 0.669412,-0.93325 0.992188,-1.41741 0.245044,-0.36757 0.787484,-1.17241 0.433718,-1.7005 -0.197906,-0.29543 -1.654755,-0.20041 -1.962687,-0.0464 -0.753594,0.3768 -0.952913,1.60988 -0.613902,2.31001 0.265033,0.54733 1.280935,-0.21633 1.490236,-0.42564 0.293727,-0.29372 0.750613,-0.9411 0.483502,-1.28882 -0.03171,-0.0413 -0.247234,-0.0638 -0.311488,-0.0962 -0.403643,-0.20345 -0.895078,0.0939 -1.084472,0.37797 -0.154633,0.23196 -0.28348,0.25154 -0.28348,0.53824 0,0.0393 0,0.15736 0,0.11802 0,-0.0356 -0.01333,0.12546 0.135269,0.2018 0.100007,0.0514 0.678113,0.0445 0.770059,0 0.339188,-0.16409 0.139353,-0.86741 0.20551,-0.86741 0.05865,0 -0.417362,0.0601 -0.606579,0.34445"
                     id="path1329" />
                  <path
                     id="path1331"
                     d="m 79.877268,126.29287 c 0.550153,-0.51991 0.990374,-1.09934 1.468391,-1.6522 0.791399,-0.91532 0.500854,-1.67831 0.216993,-2.66555 -0.06419,-0.22322 -0.176711,-0.60968 -0.348764,-0.77707 -0.477928,-0.46499 -1.485495,-0.0215 -1.66473,0.54189 -0.183065,0.57542 -0.165798,1.13648 -0.230044,1.71481 -0.04877,0.43906 -0.160789,1.40315 0.396057,1.70967 0.311516,0.17147 1.561841,-0.58227 1.764588,-0.86054 0.496228,-0.68091 0.10673,-1.86772 -0.516053,-2.33382 -0.486873,-0.36437 -1.038342,0.78067 -1.128078,1.06274 -0.125941,0.39584 -0.234314,1.18076 0.162694,1.36688 0.04714,0.0221 0.248907,-0.0569 0.320864,-0.0577 0.451993,-0.005 0.751872,-0.49464 0.789578,-0.83397 0.03077,-0.27707 0.136219,-0.35366 0.0045,-0.60831 -0.01806,-0.0349 -0.0723,-0.13977 -0.05422,-0.10483 0.01636,0.0316 -0.0458,-0.11755 -0.212863,-0.11709 -0.112442,3e-4 -0.622749,0.27203 -0.68397,0.3538 -0.225879,0.30159 0.274753,0.83447 0.215992,0.86486 -0.05209,0.0269 0.343091,-0.24513 0.380511,-0.58463"
                     style="fill:none;stroke:#fe5d90;stroke-width:0.264583px;stroke-linecap:butt;stroke-linejoin:miter;stroke-opacity:1" />
                  <path
                     style="fill:none;stroke:#fe5d90;stroke-width:0.264583px;stroke-linecap:butt;stroke-linejoin:miter;stroke-opacity:1"
                     d="m 81.07492,127.35386 c 0.753312,0.0741 1.479426,0.0263 2.210282,0.0243 1.210005,-0.003 1.595245,-0.72303 2.154116,-1.58494 0.126359,-0.19489 0.344212,-0.53334 0.357671,-0.77301 0.0374,-0.66576 -0.958317,-1.13525 -1.501108,-0.90091 -0.554382,0.23933 -0.966501,0.62044 -1.445129,0.95136 -0.363366,0.25123 -1.164478,0.79917 -1.030503,1.42053 0.07495,0.3476 1.464084,0.79677 1.807112,0.76723 0.839446,-0.0722 1.479636,-1.14475 1.422843,-1.92056 -0.04441,-0.6065 -1.270386,-0.27151 -1.542142,-0.15419 -0.381373,0.16464 -1.044869,0.59778 -0.924886,1.01952 0.01425,0.0501 0.206237,0.15053 0.254048,0.20431 0.300299,0.33785 0.866575,0.24295 1.147413,0.0488 0.229299,-0.15855 0.356282,-0.12921 0.46206,-0.39568 0.01449,-0.0365 0.05806,-0.14626 0.04355,-0.1097 -0.01312,0.0331 0.05867,-0.11168 -0.05128,-0.23747 -0.07399,-0.0847 -0.613856,-0.29154 -0.715734,-0.2841 -0.375803,0.0274 -0.449547,0.75481 -0.511032,0.7304 -0.05448,-0.0217 0.410087,0.0981 0.690866,-0.0964"
                     id="path1333" />
                  <path
                     id="path1335"
                     d="m 79.594716,128.36681 c 0.36552,0.66285 0.816108,1.23424 1.231634,1.83549 0.687687,0.99559 1.499297,0.90536 2.526172,0.8779 0.232185,-0.006 0.634506,-0.0183 0.839665,-0.14296 0.569902,-0.34619 0.392993,-1.43273 -0.107528,-1.7474 -0.511199,-0.32139 -1.058691,-0.44524 -1.60248,-0.65233 -0.412835,-0.15722 -1.318113,-0.50721 -1.754373,-0.0449 -0.24405,0.25862 0.172395,1.65791 0.390996,1.92391 0.534877,0.65099 1.781413,0.57126 2.388679,0.0851 0.474731,-0.38006 -0.495628,-1.20081 -0.746217,-1.35836 -0.351665,-0.2211 -1.084393,-0.52267 -1.364048,-0.18495 -0.03322,0.0401 -0.0073,0.25522 -0.02453,0.32509 -0.108402,0.43882 0.290492,0.85181 0.609547,0.97333 0.260528,0.0992 0.308255,0.22048 0.587782,0.15677 0.03829,-0.009 0.153427,-0.035 0.115078,-0.0262 -0.03471,0.008 0.125271,-0.0149 0.166684,-0.17674 0.02791,-0.10895 -0.107332,-0.67104 -0.171156,-0.7508 -0.235397,-0.29422 -0.876693,0.0569 -0.891393,-0.008 -0.01297,-0.0572 0.151374,0.39355 0.470685,0.51483"
                     style="fill:none;stroke:#fe5d90;stroke-width:0.264583px;stroke-linecap:butt;stroke-linejoin:miter;stroke-opacity:1" />
                  <path
                     style="fill:none;stroke:#fe5d90;stroke-width:0.264583px;stroke-linecap:butt;stroke-linejoin:miter;stroke-opacity:1"
                     d="m 69.442626,116.82434 c -0.247652,-0.71529 -0.370311,-1.43257 -0.538765,-2.14375 -0.278881,-1.17743 0.331351,-1.71982 1.039278,-2.46417 0.160072,-0.1683 0.438438,-0.45903 0.668371,-0.52798 0.63871,-0.19152 1.327303,0.6674 1.225939,1.24982 -0.103544,0.5949 -0.378115,1.08448 -0.588379,1.62706 -0.159633,0.41191 -0.505782,1.31865 -1.14125,1.33317 -0.355499,0.008 -1.116037,-1.23808 -1.167256,-1.57854 -0.125431,-0.83316 0.768395,-1.70568 1.536081,-1.83125 0.600147,-0.0982 0.560102,1.17212 0.509341,1.46374 -0.07122,0.40924 -0.337814,1.15541 -0.7759,1.13702 -0.05202,-0.002 -0.194436,-0.1655 -0.257906,-0.19941 -0.398649,-0.21307 -0.438218,-0.7861 -0.314858,-1.10445 0.100741,-0.25994 0.04262,-0.37658 0.277105,-0.54155 0.03214,-0.0226 0.128702,-0.0905 0.09653,-0.0679 -0.02912,0.0205 0.09494,-0.0831 0.242881,-0.005 0.09958,0.0522 0.426573,0.52901 0.443082,0.62981 0.06096,0.37183 -0.629255,0.61307 -0.591189,0.66718 0.03375,0.048 -0.190991,-0.37593 -0.0673,-0.6943"
                     id="path1523"
                     inkscape:transform-center-x="-1.658783"
                     inkscape:transform-center-y="-4.8683627" />
                  <path
                     style="fill:none;stroke:#f7ff07;stroke-width:0.1;stroke-linecap:butt;stroke-linejoin:miter;stroke-miterlimit:4;stroke-dasharray:none;stroke-opacity:1"
                     d="m 70.756248,117.39047 c 0.17565,-1.10515 -1.458037,-0.40307 -1.911914,0.0742 -0.467041,0.49107 1.119562,2.91184 2.273873,0.76878 0.2055,-0.38152 -0.562754,-1.09509 -0.804143,-1.22507 -0.295275,-0.15904 -0.950997,0.14913 -1.210731,0.33186 -0.0184,0.0129 -0.303181,0.18327 -0.309143,0.21748 -0.05425,0.31175 1.14746,1.67676 1.864537,1.17229 0.05733,-0.0403 0.245388,-0.12698 0.270498,-0.1903 0.171918,-0.43364 -0.795897,-1.03782 -1.009084,-1.19455 -0.174184,-0.12802 -0.450381,0.0754 -0.599642,0.13301 -0.106482,0.0411 -0.420546,0.0728 -0.479437,0.22176 -0.06256,0.1583 0.05018,0.23556 0.137844,0.36018 0.535388,0.76102 0.922781,0.795 1.645697,0.28642 0.372398,-0.26199 -0.468794,-0.53671 -0.910138,-0.22622 -0.189307,0.13318 -0.141381,0.49809 0.154484,0.46273 0.265739,-0.0318 -0.04059,-1.25894 -0.634187,-0.46908 -0.214611,0.28557 1.137273,1.49352 1.62689,0.58453 0.08744,-0.16233 -0.595303,-1.09007 -0.738272,-1.21364 -0.205557,-0.17766 -1.278988,0.17458 -1.245081,0.33437 0.03313,0.15606 0.260045,0.36964 0.351893,0.50019 0.87341,1.2415 1.669554,-1.01237 0.795764,-0.67537 -0.866593,0.33423 0.105653,0.93815 0.585351,0.28841 0.465312,-0.63025 -1.277636,-0.92502 -1.398112,-0.34507 -0.0057,0.0275 0.231357,0.32886 0.239818,0.34089 0.141597,0.20127 0.363722,0.67655 0.570893,0.81149 0.389128,0.25339 1.510255,-0.4809 1.236583,-0.8699 -0.370855,-0.52715 -0.662219,-0.81409 -1.28646,-0.59693 -0.238389,0.0829 -0.465975,0.21229 -0.672646,0.35769 -0.03869,0.0272 -0.125896,0.12774 -0.115926,0.0815 0.06499,-0.30115 0.171411,-0.59183 0.257121,-0.88776"
                     id="path1525"
                     inkscape:transform-center-x="-1.3494567"
                     inkscape:transform-center-y="-1.1576773" />
                  <path
                     id="path1527"
                     d="m 69.442578,116.82437 c -0.589559,-0.47475 -1.223213,-0.83253 -1.835661,-1.23136 -1.013977,-0.66029 -1.730642,-0.26919 -2.6704,0.14563 -0.212489,0.0938 -0.580166,0.25757 -0.722745,0.45069 -0.396057,0.53644 0.179717,1.47474 0.762135,1.57611 0.594893,0.10353 1.148458,0.0105 1.730165,-0.004 0.441624,-0.0111 1.412,-0.0305 1.640362,-0.62372 0.127754,-0.33185 -0.788215,-1.46871 -1.091357,-1.63194 -0.741786,-0.39955 -1.864984,0.14694 -2.242544,0.82705 -0.295154,0.53169 0.913967,0.92318 1.205587,0.97393 0.409234,0.0712 1.201601,0.0724 1.332302,-0.34613 0.01553,-0.0497 -0.09007,-0.23891 -0.100547,-0.31011 -0.06585,-0.44719 -0.591816,-0.67804 -0.933126,-0.66949 -0.27869,0.007 -0.368841,-0.0871 -0.603327,0.0778 -0.03214,0.0226 -0.128702,0.0905 -0.09653,0.0679 0.02912,-0.0205 -0.110281,0.0613 -0.08722,0.22675 0.0155,0.11137 0.353783,0.58022 0.443083,0.62982 0.329371,0.183 0.78962,-0.38513 0.827686,-0.33102 0.03375,0.048 -0.2893,-0.30677 -0.630737,-0.29791"
                     style="fill:none;stroke:#fe5d90;stroke-width:0.264583px;stroke-linecap:butt;stroke-linejoin:miter;stroke-opacity:1"
                     inkscape:transform-center-x="1.9195722"
                     inkscape:transform-center-y="-2.5846304" />
                  <path
                     style="fill:none;stroke:#fe5d90;stroke-width:0.264583px;stroke-linecap:butt;stroke-linejoin:miter;stroke-opacity:1"
                     d="m 70.756248,117.39047 c 0.741776,0.15081 1.468979,0.17746 2.196197,0.25031 1.203984,0.12061 1.660843,-0.55604 2.304957,-1.35625 0.145633,-0.18094 0.396968,-0.49533 0.434876,-0.73236 0.105312,-0.65844 -0.837152,-1.22733 -1.401067,-1.04975 -0.575958,0.18136 -1.024903,0.51831 -1.534875,0.79853 -0.38716,0.21274 -1.240125,0.67585 -1.170419,1.30765 0.039,0.35344 1.374892,0.94237 1.719142,0.94808 0.842427,0.0141 1.588983,-0.98737 1.611855,-1.76493 0.01787,-0.60785 -1.235944,-0.40005 -1.518277,-0.31114 -0.396215,0.12476 -1.100542,0.48775 -1.024332,0.91955 0.009,0.0513 0.189755,0.17084 0.231813,0.22923 0.264161,0.3668 0.837174,0.33033 1.136401,0.16592 0.244315,-0.13425 0.367631,-0.0921 0.500115,-0.34633 0.01815,-0.0349 0.07271,-0.13956 0.05454,-0.10466 -0.01643,0.0316 0.06979,-0.1051 -0.02671,-0.24147 -0.06494,-0.0918 -0.58081,-0.35281 -0.682914,-0.35584 -0.376633,-0.0112 -0.524407,0.70486 -0.583073,0.67429 -0.05197,-0.0271 0.397897,0.13956 0.697099,-0.0252"
                     id="path1529"
                     inkscape:transform-center-x="-4.5459772"
                     inkscape:transform-center-y="-3.0489541" />
                  <path
                     id="path1531"
                     d="m 70.5776,118.98049 c 0.372842,0.65875 0.829734,1.22513 1.251895,1.82173 0.698676,0.98791 1.509237,0.88869 2.535744,0.84985 0.232103,-0.009 0.634264,-0.0254 0.83803,-0.15225 0.566032,-0.35248 0.377095,-1.437 -0.126883,-1.7461 -0.514728,-0.31571 -1.063559,-0.43349 -1.609609,-0.63454 -0.414552,-0.15263 -1.323652,-0.49257 -1.754763,-0.0255 -0.24117,0.2613 0.190754,1.6559 0.412288,1.91946 0.542059,0.64502 1.787634,0.55149 2.389476,0.0586 0.470492,-0.38529 -0.508902,-1.19524 -0.761221,-1.35 -0.354093,-0.21719 -1.090118,-0.51063 -1.366014,-0.16983 -0.03278,0.0405 -0.0044,0.25529 -0.02093,0.32534 -0.103533,0.44 0.299913,0.84854 0.620295,0.96652 0.261611,0.0963 0.310679,0.21705 0.589483,0.15024 0.03819,-0.009 0.15303,-0.0367 0.11478,-0.0275 -0.03462,0.008 0.125098,-0.0163 0.164716,-0.17857 0.0267,-0.10926 -0.114761,-0.66981 -0.179465,-0.74886 -0.238643,-0.29159 -0.876009,0.0666 -0.891422,0.002 -0.0136,-0.057 0.155725,0.39185 0.47636,0.50958"
                     style="fill:none;stroke:#fe5d90;stroke-width:0.264583px;stroke-linecap:butt;stroke-linejoin:miter;stroke-opacity:1"
                     inkscape:transform-center-x="-4.3812749"
                     inkscape:transform-center-y="1.1543235" />
                  <path
                     style="fill:none;stroke:#fe5d90;stroke-width:0.264583px;stroke-linecap:butt;stroke-linejoin:miter;stroke-opacity:1"
                     d="m 68.897436,118.3527 c -0.331816,0.68035 -0.539882,1.37764 -0.792544,2.06345 -0.418587,1.13529 0.122201,1.74718 0.735512,2.57124 0.138504,0.18644 0.380054,0.50842 0.600057,0.60448 0.611057,0.26692 1.397926,-0.50295 1.367294,-1.09337 -0.03128,-0.60303 -0.245005,-1.12207 -0.388519,-1.68598 -0.108954,-0.42812 -0.34359,-1.36991 -0.972723,-1.46071 -0.351944,-0.0508 -1.256778,1.09494 -1.348554,1.42679 -0.22467,0.81203 0.557781,1.78568 1.304816,2.00262 0.583998,0.16959 0.69694,-1.0963 0.681612,-1.3919 -0.02151,-0.41484 -0.196466,-1.18765 -0.63359,-1.22205 -0.05191,-0.004 -0.21294,0.14088 -0.279999,0.16699 -0.421276,0.16383 -0.529534,0.72771 -0.445342,1.05858 0.06877,0.27016 -0.003,0.37898 0.209984,0.57094 0.02939,0.0261 0.116905,0.10534 0.08764,0.079 -0.02652,-0.0238 0.08427,0.0939 0.24046,0.0346 0.105167,-0.0399 0.487073,-0.4739 0.515583,-0.57199 0.105193,-0.36182 -0.550976,-0.68429 -0.506353,-0.73366 0.03932,-0.0435 -0.234779,0.35025 -0.150243,0.68119"
                     id="path1533"
                     inkscape:transform-center-x="-0.70043305"
                     inkscape:transform-center-y="1.888419" />
                </g>
                <g
                   id="g1357"
                   transform="rotate(66.226618,86.959566,152.36631)">
                  <path
                     style="fill:none;stroke:#fe5d90;stroke-width:0.264583px;stroke-linecap:butt;stroke-linejoin:miter;stroke-opacity:1"
                     d="m 78.658396,127.04151 c -0.727519,-0.20902 -1.384739,-0.52141 -2.063326,-0.79284 -1.123466,-0.44939 -1.215954,-1.26057 -1.41741,-2.26786 -0.04555,-0.22776 -0.123159,-0.62271 -0.04725,-0.85044 0.21086,-0.63259 1.309568,-0.70156 1.727594,-0.28354 0.426972,0.42698 0.669412,0.93325 0.992188,1.41741 0.245044,0.36757 0.787484,1.17241 0.433718,1.7005 -0.197906,0.29543 -1.654755,0.20041 -1.962687,0.0464 -0.753594,-0.3768 -0.952913,-1.60988 -0.613902,-2.31001 0.265033,-0.54733 1.280935,0.21633 1.490236,0.42564 0.293727,0.29372 0.750613,0.9411 0.483502,1.28882 -0.03171,0.0413 -0.247234,0.0638 -0.311488,0.0962 -0.403643,0.20345 -0.895078,-0.0939 -1.084472,-0.37797 -0.154633,-0.23196 -0.28348,-0.25154 -0.28348,-0.53824 0,-0.0393 0,-0.15736 0,-0.11802 0,0.0356 -0.01333,-0.12546 0.135269,-0.2018 0.100007,-0.0514 0.678113,-0.0445 0.770059,0 0.339188,0.16409 0.139353,0.86741 0.20551,0.86741 0.05865,0 -0.417362,-0.0601 -0.606579,-0.34445"
                     id="path1345" />
                  <path
                     style="fill:none;stroke:#f7ff07;stroke-width:0.1;stroke-linecap:butt;stroke-linejoin:miter;stroke-miterlimit:4;stroke-dasharray:none;stroke-opacity:1"
                     d="m 79.877268,126.29287 c -0.802814,-0.77955 -1.168598,0.96058 -1.039437,1.60639 0.132908,0.66454 3.02572,0.75977 1.937129,-1.41741 -0.1938,-0.3876 -1.21946,-0.16984 -1.464657,-0.0472 -0.299974,0.14999 -0.425222,0.86361 -0.425222,1.18118 0,0.0225 -0.02455,0.35342 0,0.37798 0.223755,0.22375 2.031621,0.0263 2.031621,-0.85045 0,-0.0701 0.03734,-0.27376 0,-0.33073 -0.255746,-0.39012 -1.306761,0.0538 -1.557615,0.13798 -0.204928,0.0688 -0.197435,0.41177 -0.236236,0.56697 -0.02768,0.11072 -0.182472,0.38582 -0.09449,0.51972 0.09347,0.14225 0.22153,0.0945 0.373893,0.0945 0.930481,0 1.181174,-0.29729 1.181174,-1.18118 0,-0.45532 -0.708705,0.0746 -0.708705,0.61422 0,0.23146 0.326033,0.40223 0.467347,0.1399 0.126923,-0.23562 -1.053015,-0.69118 -0.748549,0.24879 0.110078,0.33984 1.875894,-0.0708 1.414169,-0.99427 -0.08246,-0.16492 -1.234083,-0.14033 -1.417412,-0.0945 -0.263576,0.0659 -0.59313,1.14651 -0.442931,1.21072 0.146711,0.0627 0.451948,0 0.611576,0 1.517949,0 0.132646,-1.948 -0.0945,-1.03944 -0.225269,0.90108 0.828088,0.45339 0.572688,-0.3128 -0.247737,-0.74321 -1.491689,0.51271 -1.086681,0.94494 0.01921,0.0205 0.402088,0 0.416793,0 0.246089,0 0.762622,0.0918 0.992188,0 0.431146,-0.17246 0.475667,-1.51191 3.7e-5,-1.51191 -0.644531,0 -1.046859,0.0732 -1.228424,0.70871 -0.06934,0.24269 -0.09449,0.50326 -0.09449,0.75595 0,0.0473 0.03204,0.17647 0,0.14174 -0.208912,-0.22643 -0.385424,-0.48073 -0.578136,-0.7211"
                     id="path1347" />
                  <path
                     id="path1349"
                     d="m 78.658398,127.04157 c -0.727519,0.20902 -1.384739,0.52141 -2.063326,0.79284 -1.123466,0.44939 -1.215954,1.26057 -1.41741,2.26786 -0.04555,0.22776 -0.123159,0.62271 -0.04725,0.85044 0.21086,0.63259 1.309568,0.70156 1.727594,0.28354 0.426972,-0.42698 0.669412,-0.93325 0.992188,-1.41741 0.245044,-0.36757 0.787484,-1.17241 0.433718,-1.7005 -0.197906,-0.29543 -1.654755,-0.20041 -1.962687,-0.0464 -0.753594,0.3768 -0.952913,1.60988 -0.613902,2.31001 0.265033,0.54733 1.280935,-0.21633 1.490236,-0.42564 0.293727,-0.29372 0.750613,-0.9411 0.483502,-1.28882 -0.03171,-0.0413 -0.247234,-0.0638 -0.311488,-0.0962 -0.403643,-0.20345 -0.895078,0.0939 -1.084472,0.37797 -0.154633,0.23196 -0.28348,0.25154 -0.28348,0.53824 0,0.0393 0,0.15736 0,0.11802 0,-0.0356 -0.01333,0.12546 0.135269,0.2018 0.100007,0.0514 0.678113,0.0445 0.770059,0 0.339188,-0.16409 0.139353,-0.86741 0.20551,-0.86741 0.05865,0 -0.417362,0.0601 -0.606579,0.34445"
                     style="fill:none;stroke:#fe5d90;stroke-width:0.264583px;stroke-linecap:butt;stroke-linejoin:miter;stroke-opacity:1" />
                  <path
                     style="fill:none;stroke:#fe5d90;stroke-width:0.264583px;stroke-linecap:butt;stroke-linejoin:miter;stroke-opacity:1"
                     d="m 79.877268,126.29287 c 0.550153,-0.51991 0.990374,-1.09934 1.468391,-1.6522 0.791399,-0.91532 0.500854,-1.67831 0.216993,-2.66555 -0.06419,-0.22322 -0.176711,-0.60968 -0.348764,-0.77707 -0.477928,-0.46499 -1.485495,-0.0215 -1.66473,0.54189 -0.183065,0.57542 -0.165798,1.13648 -0.230044,1.71481 -0.04877,0.43906 -0.160789,1.40315 0.396057,1.70967 0.311516,0.17147 1.561841,-0.58227 1.764588,-0.86054 0.496228,-0.68091 0.10673,-1.86772 -0.516053,-2.33382 -0.486873,-0.36437 -1.038342,0.78067 -1.128078,1.06274 -0.125941,0.39584 -0.234314,1.18076 0.162694,1.36688 0.04714,0.0221 0.248907,-0.0569 0.320864,-0.0577 0.451993,-0.005 0.751872,-0.49464 0.789578,-0.83397 0.03077,-0.27707 0.136219,-0.35366 0.0045,-0.60831 -0.01806,-0.0349 -0.0723,-0.13977 -0.05422,-0.10483 0.01636,0.0316 -0.0458,-0.11755 -0.212863,-0.11709 -0.112442,3e-4 -0.622749,0.27203 -0.68397,0.3538 -0.225879,0.30159 0.274753,0.83447 0.215992,0.86486 -0.05209,0.0269 0.343091,-0.24513 0.380511,-0.58463"
                     id="path1351" />
                  <path
                     id="path1353"
                     d="m 81.07492,127.35386 c 0.753312,0.0741 1.479426,0.0263 2.210282,0.0243 1.210005,-0.003 1.595245,-0.72303 2.154116,-1.58494 0.126359,-0.19489 0.344212,-0.53334 0.357671,-0.77301 0.0374,-0.66576 -0.958317,-1.13525 -1.501108,-0.90091 -0.554382,0.23933 -0.966501,0.62044 -1.445129,0.95136 -0.363366,0.25123 -1.164478,0.79917 -1.030503,1.42053 0.07495,0.3476 1.464084,0.79677 1.807112,0.76723 0.839446,-0.0722 1.479636,-1.14475 1.422843,-1.92056 -0.04441,-0.6065 -1.270386,-0.27151 -1.542142,-0.15419 -0.381373,0.16464 -1.044869,0.59778 -0.924886,1.01952 0.01425,0.0501 0.206237,0.15053 0.254048,0.20431 0.300299,0.33785 0.866575,0.24295 1.147413,0.0488 0.229299,-0.15855 0.356282,-0.12921 0.46206,-0.39568 0.01449,-0.0365 0.05806,-0.14626 0.04355,-0.1097 -0.01312,0.0331 0.05867,-0.11168 -0.05128,-0.23747 -0.07399,-0.0847 -0.613856,-0.29154 -0.715734,-0.2841 -0.375803,0.0274 -0.449547,0.75481 -0.511032,0.7304 -0.05448,-0.0217 0.410087,0.0981 0.690866,-0.0964"
                     style="fill:none;stroke:#fe5d90;stroke-width:0.264583px;stroke-linecap:butt;stroke-linejoin:miter;stroke-opacity:1" />
                  <path
                     style="fill:none;stroke:#fe5d90;stroke-width:0.264583px;stroke-linecap:butt;stroke-linejoin:miter;stroke-opacity:1"
                     d="m 79.594716,128.36681 c 0.36552,0.66285 0.816108,1.23424 1.231634,1.83549 0.687687,0.99559 1.499297,0.90536 2.526172,0.8779 0.232185,-0.006 0.634506,-0.0183 0.839665,-0.14296 0.569902,-0.34619 0.392993,-1.43273 -0.107528,-1.7474 -0.511199,-0.32139 -1.058691,-0.44524 -1.60248,-0.65233 -0.412835,-0.15722 -1.318113,-0.50721 -1.754373,-0.0449 -0.24405,0.25862 0.172395,1.65791 0.390996,1.92391 0.534877,0.65099 1.781413,0.57126 2.388679,0.0851 0.474731,-0.38006 -0.495628,-1.20081 -0.746217,-1.35836 -0.351665,-0.2211 -1.084393,-0.52267 -1.364048,-0.18495 -0.03322,0.0401 -0.0073,0.25522 -0.02453,0.32509 -0.108402,0.43882 0.290492,0.85181 0.609547,0.97333 0.260528,0.0992 0.308255,0.22048 0.587782,0.15677 0.03829,-0.009 0.153427,-0.035 0.115078,-0.0262 -0.03471,0.008 0.125271,-0.0149 0.166684,-0.17674 0.02791,-0.10895 -0.107332,-0.67104 -0.171156,-0.7508 -0.235397,-0.29422 -0.876693,0.0569 -0.891393,-0.008 -0.01297,-0.0572 0.151374,0.39355 0.470685,0.51483"
                     id="path1355" />
                </g>
                <g
                   transform="rotate(66.226618,89.983855,135.83672)"
                   id="g1371">
                  <path
                     id="path1359"
                     d="m 78.658396,127.04151 c -0.727519,-0.20902 -1.384739,-0.52141 -2.063326,-0.79284 -1.123466,-0.44939 -1.215954,-1.26057 -1.41741,-2.26786 -0.04555,-0.22776 -0.123159,-0.62271 -0.04725,-0.85044 0.21086,-0.63259 1.309568,-0.70156 1.727594,-0.28354 0.426972,0.42698 0.669412,0.93325 0.992188,1.41741 0.245044,0.36757 0.787484,1.17241 0.433718,1.7005 -0.197906,0.29543 -1.654755,0.20041 -1.962687,0.0464 -0.753594,-0.3768 -0.952913,-1.60988 -0.613902,-2.31001 0.265033,-0.54733 1.280935,0.21633 1.490236,0.42564 0.293727,0.29372 0.750613,0.9411 0.483502,1.28882 -0.03171,0.0413 -0.247234,0.0638 -0.311488,0.0962 -0.403643,0.20345 -0.895078,-0.0939 -1.084472,-0.37797 -0.154633,-0.23196 -0.28348,-0.25154 -0.28348,-0.53824 0,-0.0393 0,-0.15736 0,-0.11802 0,0.0356 -0.01333,-0.12546 0.135269,-0.2018 0.100007,-0.0514 0.678113,-0.0445 0.770059,0 0.339188,0.16409 0.139353,0.86741 0.20551,0.86741 0.05865,0 -0.417362,-0.0601 -0.606579,-0.34445"
                     style="fill:none;stroke:#fe5d90;stroke-width:0.264583px;stroke-linecap:butt;stroke-linejoin:miter;stroke-opacity:1" />
                  <path
                     id="path1361"
                     d="m 79.877268,126.29287 c -0.802814,-0.77955 -1.168598,0.96058 -1.039437,1.60639 0.132908,0.66454 3.02572,0.75977 1.937129,-1.41741 -0.1938,-0.3876 -1.21946,-0.16984 -1.464657,-0.0472 -0.299974,0.14999 -0.425222,0.86361 -0.425222,1.18118 0,0.0225 -0.02455,0.35342 0,0.37798 0.223755,0.22375 2.031621,0.0263 2.031621,-0.85045 0,-0.0701 0.03734,-0.27376 0,-0.33073 -0.255746,-0.39012 -1.306761,0.0538 -1.557615,0.13798 -0.204928,0.0688 -0.197435,0.41177 -0.236236,0.56697 -0.02768,0.11072 -0.182472,0.38582 -0.09449,0.51972 0.09347,0.14225 0.22153,0.0945 0.373893,0.0945 0.930481,0 1.181174,-0.29729 1.181174,-1.18118 0,-0.45532 -0.708705,0.0746 -0.708705,0.61422 0,0.23146 0.326033,0.40223 0.467347,0.1399 0.126923,-0.23562 -1.053015,-0.69118 -0.748549,0.24879 0.110078,0.33984 1.875894,-0.0708 1.414169,-0.99427 -0.08246,-0.16492 -1.234083,-0.14033 -1.417412,-0.0945 -0.263576,0.0659 -0.59313,1.14651 -0.442931,1.21072 0.146711,0.0627 0.451948,0 0.611576,0 1.517949,0 0.132646,-1.948 -0.0945,-1.03944 -0.225269,0.90108 0.828088,0.45339 0.572688,-0.3128 -0.247737,-0.74321 -1.491689,0.51271 -1.086681,0.94494 0.01921,0.0205 0.402088,0 0.416793,0 0.246089,0 0.762622,0.0918 0.992188,0 0.431146,-0.17246 0.475667,-1.51191 3.7e-5,-1.51191 -0.644531,0 -1.046859,0.0732 -1.228424,0.70871 -0.06934,0.24269 -0.09449,0.50326 -0.09449,0.75595 0,0.0473 0.03204,0.17647 0,0.14174 -0.208912,-0.22643 -0.385424,-0.48073 -0.578136,-0.7211"
                     style="fill:none;stroke:#f7ff07;stroke-width:0.1;stroke-linecap:butt;stroke-linejoin:miter;stroke-miterlimit:4;stroke-dasharray:none;stroke-opacity:1" />
                  <path
                     style="fill:none;stroke:#fe5d90;stroke-width:0.264583px;stroke-linecap:butt;stroke-linejoin:miter;stroke-opacity:1"
                     d="m 78.658398,127.04157 c -0.727519,0.20902 -1.384739,0.52141 -2.063326,0.79284 -1.123466,0.44939 -1.215954,1.26057 -1.41741,2.26786 -0.04555,0.22776 -0.123159,0.62271 -0.04725,0.85044 0.21086,0.63259 1.309568,0.70156 1.727594,0.28354 0.426972,-0.42698 0.669412,-0.93325 0.992188,-1.41741 0.245044,-0.36757 0.787484,-1.17241 0.433718,-1.7005 -0.197906,-0.29543 -1.654755,-0.20041 -1.962687,-0.0464 -0.753594,0.3768 -0.952913,1.60988 -0.613902,2.31001 0.265033,0.54733 1.280935,-0.21633 1.490236,-0.42564 0.293727,-0.29372 0.750613,-0.9411 0.483502,-1.28882 -0.03171,-0.0413 -0.247234,-0.0638 -0.311488,-0.0962 -0.403643,-0.20345 -0.895078,0.0939 -1.084472,0.37797 -0.154633,0.23196 -0.28348,0.25154 -0.28348,0.53824 0,0.0393 0,0.15736 0,0.11802 0,-0.0356 -0.01333,0.12546 0.135269,0.2018 0.100007,0.0514 0.678113,0.0445 0.770059,0 0.339188,-0.16409 0.139353,-0.86741 0.20551,-0.86741 0.05865,0 -0.417362,0.0601 -0.606579,0.34445"
                     id="path1363" />
                  <path
                     id="path1365"
                     d="m 79.877268,126.29287 c 0.550153,-0.51991 0.990374,-1.09934 1.468391,-1.6522 0.791399,-0.91532 0.500854,-1.67831 0.216993,-2.66555 -0.06419,-0.22322 -0.176711,-0.60968 -0.348764,-0.77707 -0.477928,-0.46499 -1.485495,-0.0215 -1.66473,0.54189 -0.183065,0.57542 -0.165798,1.13648 -0.230044,1.71481 -0.04877,0.43906 -0.160789,1.40315 0.396057,1.70967 0.311516,0.17147 1.561841,-0.58227 1.764588,-0.86054 0.496228,-0.68091 0.10673,-1.86772 -0.516053,-2.33382 -0.486873,-0.36437 -1.038342,0.78067 -1.128078,1.06274 -0.125941,0.39584 -0.234314,1.18076 0.162694,1.36688 0.04714,0.0221 0.248907,-0.0569 0.320864,-0.0577 0.451993,-0.005 0.751872,-0.49464 0.789578,-0.83397 0.03077,-0.27707 0.136219,-0.35366 0.0045,-0.60831 -0.01806,-0.0349 -0.0723,-0.13977 -0.05422,-0.10483 0.01636,0.0316 -0.0458,-0.11755 -0.212863,-0.11709 -0.112442,3e-4 -0.622749,0.27203 -0.68397,0.3538 -0.225879,0.30159 0.274753,0.83447 0.215992,0.86486 -0.05209,0.0269 0.343091,-0.24513 0.380511,-0.58463"
                     style="fill:none;stroke:#fe5d90;stroke-width:0.264583px;stroke-linecap:butt;stroke-linejoin:miter;stroke-opacity:1" />
                  <path
                     style="fill:none;stroke:#fe5d90;stroke-width:0.264583px;stroke-linecap:butt;stroke-linejoin:miter;stroke-opacity:1"
                     d="m 81.07492,127.35386 c 0.753312,0.0741 1.479426,0.0263 2.210282,0.0243 1.210005,-0.003 1.595245,-0.72303 2.154116,-1.58494 0.126359,-0.19489 0.344212,-0.53334 0.357671,-0.77301 0.0374,-0.66576 -0.958317,-1.13525 -1.501108,-0.90091 -0.554382,0.23933 -0.966501,0.62044 -1.445129,0.95136 -0.363366,0.25123 -1.164478,0.79917 -1.030503,1.42053 0.07495,0.3476 1.464084,0.79677 1.807112,0.76723 0.839446,-0.0722 1.479636,-1.14475 1.422843,-1.92056 -0.04441,-0.6065 -1.270386,-0.27151 -1.542142,-0.15419 -0.381373,0.16464 -1.044869,0.59778 -0.924886,1.01952 0.01425,0.0501 0.206237,0.15053 0.254048,0.20431 0.300299,0.33785 0.866575,0.24295 1.147413,0.0488 0.229299,-0.15855 0.356282,-0.12921 0.46206,-0.39568 0.01449,-0.0365 0.05806,-0.14626 0.04355,-0.1097 -0.01312,0.0331 0.05867,-0.11168 -0.05128,-0.23747 -0.07399,-0.0847 -0.613856,-0.29154 -0.715734,-0.2841 -0.375803,0.0274 -0.449547,0.75481 -0.511032,0.7304 -0.05448,-0.0217 0.410087,0.0981 0.690866,-0.0964"
                     id="path1367" />
                  <path
                     id="path1369"
                     d="m 79.594716,128.36681 c 0.36552,0.66285 0.816108,1.23424 1.231634,1.83549 0.687687,0.99559 1.499297,0.90536 2.526172,0.8779 0.232185,-0.006 0.634506,-0.0183 0.839665,-0.14296 0.569902,-0.34619 0.392993,-1.43273 -0.107528,-1.7474 -0.511199,-0.32139 -1.058691,-0.44524 -1.60248,-0.65233 -0.412835,-0.15722 -1.318113,-0.50721 -1.754373,-0.0449 -0.24405,0.25862 0.172395,1.65791 0.390996,1.92391 0.534877,0.65099 1.781413,0.57126 2.388679,0.0851 0.474731,-0.38006 -0.495628,-1.20081 -0.746217,-1.35836 -0.351665,-0.2211 -1.084393,-0.52267 -1.364048,-0.18495 -0.03322,0.0401 -0.0073,0.25522 -0.02453,0.32509 -0.108402,0.43882 0.290492,0.85181 0.609547,0.97333 0.260528,0.0992 0.308255,0.22048 0.587782,0.15677 0.03829,-0.009 0.153427,-0.035 0.115078,-0.0262 -0.03471,0.008 0.125271,-0.0149 0.166684,-0.17674 0.02791,-0.10895 -0.107332,-0.67104 -0.171156,-0.7508 -0.235397,-0.29422 -0.876693,0.0569 -0.891393,-0.008 -0.01297,-0.0572 0.151374,0.39355 0.470685,0.51483"
                     style="fill:none;stroke:#fe5d90;stroke-width:0.264583px;stroke-linecap:butt;stroke-linejoin:miter;stroke-opacity:1" />
                </g>
                <g
                   id="g1385"
                   transform="rotate(66.226618,69.985432,140.26698)">
                  <path
                     style="fill:none;stroke:#fe5d90;stroke-width:0.264583px;stroke-linecap:butt;stroke-linejoin:miter;stroke-opacity:1"
                     d="m 78.658396,127.04151 c -0.727519,-0.20902 -1.384739,-0.52141 -2.063326,-0.79284 -1.123466,-0.44939 -1.215954,-1.26057 -1.41741,-2.26786 -0.04555,-0.22776 -0.123159,-0.62271 -0.04725,-0.85044 0.21086,-0.63259 1.309568,-0.70156 1.727594,-0.28354 0.426972,0.42698 0.669412,0.93325 0.992188,1.41741 0.245044,0.36757 0.787484,1.17241 0.433718,1.7005 -0.197906,0.29543 -1.654755,0.20041 -1.962687,0.0464 -0.753594,-0.3768 -0.952913,-1.60988 -0.613902,-2.31001 0.265033,-0.54733 1.280935,0.21633 1.490236,0.42564 0.293727,0.29372 0.750613,0.9411 0.483502,1.28882 -0.03171,0.0413 -0.247234,0.0638 -0.311488,0.0962 -0.403643,0.20345 -0.895078,-0.0939 -1.084472,-0.37797 -0.154633,-0.23196 -0.28348,-0.25154 -0.28348,-0.53824 0,-0.0393 0,-0.15736 0,-0.11802 0,0.0356 -0.01333,-0.12546 0.135269,-0.2018 0.100007,-0.0514 0.678113,-0.0445 0.770059,0 0.339188,0.16409 0.139353,0.86741 0.20551,0.86741 0.05865,0 -0.417362,-0.0601 -0.606579,-0.34445"
                     id="path1373" />
                  <path
                     style="fill:none;stroke:#f7ff07;stroke-width:0.1;stroke-linecap:butt;stroke-linejoin:miter;stroke-miterlimit:4;stroke-dasharray:none;stroke-opacity:1"
                     d="m 79.877268,126.29287 c -0.802814,-0.77955 -1.168598,0.96058 -1.039437,1.60639 0.132908,0.66454 3.02572,0.75977 1.937129,-1.41741 -0.1938,-0.3876 -1.21946,-0.16984 -1.464657,-0.0472 -0.299974,0.14999 -0.425222,0.86361 -0.425222,1.18118 0,0.0225 -0.02455,0.35342 0,0.37798 0.223755,0.22375 2.031621,0.0263 2.031621,-0.85045 0,-0.0701 0.03734,-0.27376 0,-0.33073 -0.255746,-0.39012 -1.306761,0.0538 -1.557615,0.13798 -0.204928,0.0688 -0.197435,0.41177 -0.236236,0.56697 -0.02768,0.11072 -0.182472,0.38582 -0.09449,0.51972 0.09347,0.14225 0.22153,0.0945 0.373893,0.0945 0.930481,0 1.181174,-0.29729 1.181174,-1.18118 0,-0.45532 -0.708705,0.0746 -0.708705,0.61422 0,0.23146 0.326033,0.40223 0.467347,0.1399 0.126923,-0.23562 -1.053015,-0.69118 -0.748549,0.24879 0.110078,0.33984 1.875894,-0.0708 1.414169,-0.99427 -0.08246,-0.16492 -1.234083,-0.14033 -1.417412,-0.0945 -0.263576,0.0659 -0.59313,1.14651 -0.442931,1.21072 0.146711,0.0627 0.451948,0 0.611576,0 1.517949,0 0.132646,-1.948 -0.0945,-1.03944 -0.225269,0.90108 0.828088,0.45339 0.572688,-0.3128 -0.247737,-0.74321 -1.491689,0.51271 -1.086681,0.94494 0.01921,0.0205 0.402088,0 0.416793,0 0.246089,0 0.762622,0.0918 0.992188,0 0.431146,-0.17246 0.475667,-1.51191 3.7e-5,-1.51191 -0.644531,0 -1.046859,0.0732 -1.228424,0.70871 -0.06934,0.24269 -0.09449,0.50326 -0.09449,0.75595 0,0.0473 0.03204,0.17647 0,0.14174 -0.208912,-0.22643 -0.385424,-0.48073 -0.578136,-0.7211"
                     id="path1375" />
                  <path
                     id="path1377"
                     d="m 78.658398,127.04157 c -0.727519,0.20902 -1.384739,0.52141 -2.063326,0.79284 -1.123466,0.44939 -1.215954,1.26057 -1.41741,2.26786 -0.04555,0.22776 -0.123159,0.62271 -0.04725,0.85044 0.21086,0.63259 1.309568,0.70156 1.727594,0.28354 0.426972,-0.42698 0.669412,-0.93325 0.992188,-1.41741 0.245044,-0.36757 0.787484,-1.17241 0.433718,-1.7005 -0.197906,-0.29543 -1.654755,-0.20041 -1.962687,-0.0464 -0.753594,0.3768 -0.952913,1.60988 -0.613902,2.31001 0.265033,0.54733 1.280935,-0.21633 1.490236,-0.42564 0.293727,-0.29372 0.750613,-0.9411 0.483502,-1.28882 -0.03171,-0.0413 -0.247234,-0.0638 -0.311488,-0.0962 -0.403643,-0.20345 -0.895078,0.0939 -1.084472,0.37797 -0.154633,0.23196 -0.28348,0.25154 -0.28348,0.53824 0,0.0393 0,0.15736 0,0.11802 0,-0.0356 -0.01333,0.12546 0.135269,0.2018 0.100007,0.0514 0.678113,0.0445 0.770059,0 0.339188,-0.16409 0.139353,-0.86741 0.20551,-0.86741 0.05865,0 -0.417362,0.0601 -0.606579,0.34445"
                     style="fill:none;stroke:#fe5d90;stroke-width:0.264583px;stroke-linecap:butt;stroke-linejoin:miter;stroke-opacity:1" />
                  <path
                     style="fill:none;stroke:#fe5d90;stroke-width:0.264583px;stroke-linecap:butt;stroke-linejoin:miter;stroke-opacity:1"
                     d="m 79.877268,126.29287 c 0.550153,-0.51991 0.990374,-1.09934 1.468391,-1.6522 0.791399,-0.91532 0.500854,-1.67831 0.216993,-2.66555 -0.06419,-0.22322 -0.176711,-0.60968 -0.348764,-0.77707 -0.477928,-0.46499 -1.485495,-0.0215 -1.66473,0.54189 -0.183065,0.57542 -0.165798,1.13648 -0.230044,1.71481 -0.04877,0.43906 -0.160789,1.40315 0.396057,1.70967 0.311516,0.17147 1.561841,-0.58227 1.764588,-0.86054 0.496228,-0.68091 0.10673,-1.86772 -0.516053,-2.33382 -0.486873,-0.36437 -1.038342,0.78067 -1.128078,1.06274 -0.125941,0.39584 -0.234314,1.18076 0.162694,1.36688 0.04714,0.0221 0.248907,-0.0569 0.320864,-0.0577 0.451993,-0.005 0.751872,-0.49464 0.789578,-0.83397 0.03077,-0.27707 0.136219,-0.35366 0.0045,-0.60831 -0.01806,-0.0349 -0.0723,-0.13977 -0.05422,-0.10483 0.01636,0.0316 -0.0458,-0.11755 -0.212863,-0.11709 -0.112442,3e-4 -0.622749,0.27203 -0.68397,0.3538 -0.225879,0.30159 0.274753,0.83447 0.215992,0.86486 -0.05209,0.0269 0.343091,-0.24513 0.380511,-0.58463"
                     id="path1379" />
                  <path
                     id="path1381"
                     d="m 81.07492,127.35386 c 0.753312,0.0741 1.479426,0.0263 2.210282,0.0243 1.210005,-0.003 1.595245,-0.72303 2.154116,-1.58494 0.126359,-0.19489 0.344212,-0.53334 0.357671,-0.77301 0.0374,-0.66576 -0.958317,-1.13525 -1.501108,-0.90091 -0.554382,0.23933 -0.966501,0.62044 -1.445129,0.95136 -0.363366,0.25123 -1.164478,0.79917 -1.030503,1.42053 0.07495,0.3476 1.464084,0.79677 1.807112,0.76723 0.839446,-0.0722 1.479636,-1.14475 1.422843,-1.92056 -0.04441,-0.6065 -1.270386,-0.27151 -1.542142,-0.15419 -0.381373,0.16464 -1.044869,0.59778 -0.924886,1.01952 0.01425,0.0501 0.206237,0.15053 0.254048,0.20431 0.300299,0.33785 0.866575,0.24295 1.147413,0.0488 0.229299,-0.15855 0.356282,-0.12921 0.46206,-0.39568 0.01449,-0.0365 0.05806,-0.14626 0.04355,-0.1097 -0.01312,0.0331 0.05867,-0.11168 -0.05128,-0.23747 -0.07399,-0.0847 -0.613856,-0.29154 -0.715734,-0.2841 -0.375803,0.0274 -0.449547,0.75481 -0.511032,0.7304 -0.05448,-0.0217 0.410087,0.0981 0.690866,-0.0964"
                     style="fill:none;stroke:#fe5d90;stroke-width:0.264583px;stroke-linecap:butt;stroke-linejoin:miter;stroke-opacity:1" />
                  <path
                     style="fill:none;stroke:#fe5d90;stroke-width:0.264583px;stroke-linecap:butt;stroke-linejoin:miter;stroke-opacity:1"
                     d="m 79.594716,128.36681 c 0.36552,0.66285 0.816108,1.23424 1.231634,1.83549 0.687687,0.99559 1.499297,0.90536 2.526172,0.8779 0.232185,-0.006 0.634506,-0.0183 0.839665,-0.14296 0.569902,-0.34619 0.392993,-1.43273 -0.107528,-1.7474 -0.511199,-0.32139 -1.058691,-0.44524 -1.60248,-0.65233 -0.412835,-0.15722 -1.318113,-0.50721 -1.754373,-0.0449 -0.24405,0.25862 0.172395,1.65791 0.390996,1.92391 0.534877,0.65099 1.781413,0.57126 2.388679,0.0851 0.474731,-0.38006 -0.495628,-1.20081 -0.746217,-1.35836 -0.351665,-0.2211 -1.084393,-0.52267 -1.364048,-0.18495 -0.03322,0.0401 -0.0073,0.25522 -0.02453,0.32509 -0.108402,0.43882 0.290492,0.85181 0.609547,0.97333 0.260528,0.0992 0.308255,0.22048 0.587782,0.15677 0.03829,-0.009 0.153427,-0.035 0.115078,-0.0262 -0.03471,0.008 0.125271,-0.0149 0.166684,-0.17674 0.02791,-0.10895 -0.107332,-0.67104 -0.171156,-0.7508 -0.235397,-0.29422 -0.876693,0.0569 -0.891393,-0.008 -0.01297,-0.0572 0.151374,0.39355 0.470685,0.51483"
                     id="path1383" />
                </g>
                <g
                   transform="rotate(66.226618,103.6004,156.47456)"
                   id="g1399">
                  <path
                     id="path1387"
                     d="m 78.658396,127.04151 c -0.727519,-0.20902 -1.384739,-0.52141 -2.063326,-0.79284 -1.123466,-0.44939 -1.215954,-1.26057 -1.41741,-2.26786 -0.04555,-0.22776 -0.123159,-0.62271 -0.04725,-0.85044 0.21086,-0.63259 1.309568,-0.70156 1.727594,-0.28354 0.426972,0.42698 0.669412,0.93325 0.992188,1.41741 0.245044,0.36757 0.787484,1.17241 0.433718,1.7005 -0.197906,0.29543 -1.654755,0.20041 -1.962687,0.0464 -0.753594,-0.3768 -0.952913,-1.60988 -0.613902,-2.31001 0.265033,-0.54733 1.280935,0.21633 1.490236,0.42564 0.293727,0.29372 0.750613,0.9411 0.483502,1.28882 -0.03171,0.0413 -0.247234,0.0638 -0.311488,0.0962 -0.403643,0.20345 -0.895078,-0.0939 -1.084472,-0.37797 -0.154633,-0.23196 -0.28348,-0.25154 -0.28348,-0.53824 0,-0.0393 0,-0.15736 0,-0.11802 0,0.0356 -0.01333,-0.12546 0.135269,-0.2018 0.100007,-0.0514 0.678113,-0.0445 0.770059,0 0.339188,0.16409 0.139353,0.86741 0.20551,0.86741 0.05865,0 -0.417362,-0.0601 -0.606579,-0.34445"
                     style="fill:none;stroke:#fe5d90;stroke-width:0.264583px;stroke-linecap:butt;stroke-linejoin:miter;stroke-opacity:1" />
                  <path
                     id="path1389"
                     d="m 79.877268,126.29287 c -0.802814,-0.77955 -1.168598,0.96058 -1.039437,1.60639 0.132908,0.66454 3.02572,0.75977 1.937129,-1.41741 -0.1938,-0.3876 -1.21946,-0.16984 -1.464657,-0.0472 -0.299974,0.14999 -0.425222,0.86361 -0.425222,1.18118 0,0.0225 -0.02455,0.35342 0,0.37798 0.223755,0.22375 2.031621,0.0263 2.031621,-0.85045 0,-0.0701 0.03734,-0.27376 0,-0.33073 -0.255746,-0.39012 -1.306761,0.0538 -1.557615,0.13798 -0.204928,0.0688 -0.197435,0.41177 -0.236236,0.56697 -0.02768,0.11072 -0.182472,0.38582 -0.09449,0.51972 0.09347,0.14225 0.22153,0.0945 0.373893,0.0945 0.930481,0 1.181174,-0.29729 1.181174,-1.18118 0,-0.45532 -0.708705,0.0746 -0.708705,0.61422 0,0.23146 0.326033,0.40223 0.467347,0.1399 0.126923,-0.23562 -1.053015,-0.69118 -0.748549,0.24879 0.110078,0.33984 1.875894,-0.0708 1.414169,-0.99427 -0.08246,-0.16492 -1.234083,-0.14033 -1.417412,-0.0945 -0.263576,0.0659 -0.59313,1.14651 -0.442931,1.21072 0.146711,0.0627 0.451948,0 0.611576,0 1.517949,0 0.132646,-1.948 -0.0945,-1.03944 -0.225269,0.90108 0.828088,0.45339 0.572688,-0.3128 -0.247737,-0.74321 -1.491689,0.51271 -1.086681,0.94494 0.01921,0.0205 0.402088,0 0.416793,0 0.246089,0 0.762622,0.0918 0.992188,0 0.431146,-0.17246 0.475667,-1.51191 3.7e-5,-1.51191 -0.644531,0 -1.046859,0.0732 -1.228424,0.70871 -0.06934,0.24269 -0.09449,0.50326 -0.09449,0.75595 0,0.0473 0.03204,0.17647 0,0.14174 -0.208912,-0.22643 -0.385424,-0.48073 -0.578136,-0.7211"
                     style="fill:none;stroke:#f7ff07;stroke-width:0.1;stroke-linecap:butt;stroke-linejoin:miter;stroke-miterlimit:4;stroke-dasharray:none;stroke-opacity:1" />
                  <path
                     style="fill:none;stroke:#fe5d90;stroke-width:0.264583px;stroke-linecap:butt;stroke-linejoin:miter;stroke-opacity:1"
                     d="m 78.658398,127.04157 c -0.727519,0.20902 -1.384739,0.52141 -2.063326,0.79284 -1.123466,0.44939 -1.215954,1.26057 -1.41741,2.26786 -0.04555,0.22776 -0.123159,0.62271 -0.04725,0.85044 0.21086,0.63259 1.309568,0.70156 1.727594,0.28354 0.426972,-0.42698 0.669412,-0.93325 0.992188,-1.41741 0.245044,-0.36757 0.787484,-1.17241 0.433718,-1.7005 -0.197906,-0.29543 -1.654755,-0.20041 -1.962687,-0.0464 -0.753594,0.3768 -0.952913,1.60988 -0.613902,2.31001 0.265033,0.54733 1.280935,-0.21633 1.490236,-0.42564 0.293727,-0.29372 0.750613,-0.9411 0.483502,-1.28882 -0.03171,-0.0413 -0.247234,-0.0638 -0.311488,-0.0962 -0.403643,-0.20345 -0.895078,0.0939 -1.084472,0.37797 -0.154633,0.23196 -0.28348,0.25154 -0.28348,0.53824 0,0.0393 0,0.15736 0,0.11802 0,-0.0356 -0.01333,0.12546 0.135269,0.2018 0.100007,0.0514 0.678113,0.0445 0.770059,0 0.339188,-0.16409 0.139353,-0.86741 0.20551,-0.86741 0.05865,0 -0.417362,0.0601 -0.606579,0.34445"
                     id="path1391" />
                  <path
                     id="path1393"
                     d="m 79.877268,126.29287 c 0.550153,-0.51991 0.990374,-1.09934 1.468391,-1.6522 0.791399,-0.91532 0.500854,-1.67831 0.216993,-2.66555 -0.06419,-0.22322 -0.176711,-0.60968 -0.348764,-0.77707 -0.477928,-0.46499 -1.485495,-0.0215 -1.66473,0.54189 -0.183065,0.57542 -0.165798,1.13648 -0.230044,1.71481 -0.04877,0.43906 -0.160789,1.40315 0.396057,1.70967 0.311516,0.17147 1.561841,-0.58227 1.764588,-0.86054 0.496228,-0.68091 0.10673,-1.86772 -0.516053,-2.33382 -0.486873,-0.36437 -1.038342,0.78067 -1.128078,1.06274 -0.125941,0.39584 -0.234314,1.18076 0.162694,1.36688 0.04714,0.0221 0.248907,-0.0569 0.320864,-0.0577 0.451993,-0.005 0.751872,-0.49464 0.789578,-0.83397 0.03077,-0.27707 0.136219,-0.35366 0.0045,-0.60831 -0.01806,-0.0349 -0.0723,-0.13977 -0.05422,-0.10483 0.01636,0.0316 -0.0458,-0.11755 -0.212863,-0.11709 -0.112442,3e-4 -0.622749,0.27203 -0.68397,0.3538 -0.225879,0.30159 0.274753,0.83447 0.215992,0.86486 -0.05209,0.0269 0.343091,-0.24513 0.380511,-0.58463"
                     style="fill:none;stroke:#fe5d90;stroke-width:0.264583px;stroke-linecap:butt;stroke-linejoin:miter;stroke-opacity:1" />
                  <path
                     style="fill:none;stroke:#fe5d90;stroke-width:0.264583px;stroke-linecap:butt;stroke-linejoin:miter;stroke-opacity:1"
                     d="m 81.07492,127.35386 c 0.753312,0.0741 1.479426,0.0263 2.210282,0.0243 1.210005,-0.003 1.595245,-0.72303 2.154116,-1.58494 0.126359,-0.19489 0.344212,-0.53334 0.357671,-0.77301 0.0374,-0.66576 -0.958317,-1.13525 -1.501108,-0.90091 -0.554382,0.23933 -0.966501,0.62044 -1.445129,0.95136 -0.363366,0.25123 -1.164478,0.79917 -1.030503,1.42053 0.07495,0.3476 1.464084,0.79677 1.807112,0.76723 0.839446,-0.0722 1.479636,-1.14475 1.422843,-1.92056 -0.04441,-0.6065 -1.270386,-0.27151 -1.542142,-0.15419 -0.381373,0.16464 -1.044869,0.59778 -0.924886,1.01952 0.01425,0.0501 0.206237,0.15053 0.254048,0.20431 0.300299,0.33785 0.866575,0.24295 1.147413,0.0488 0.229299,-0.15855 0.356282,-0.12921 0.46206,-0.39568 0.01449,-0.0365 0.05806,-0.14626 0.04355,-0.1097 -0.01312,0.0331 0.05867,-0.11168 -0.05128,-0.23747 -0.07399,-0.0847 -0.613856,-0.29154 -0.715734,-0.2841 -0.375803,0.0274 -0.449547,0.75481 -0.511032,0.7304 -0.05448,-0.0217 0.410087,0.0981 0.690866,-0.0964"
                     id="path1395" />
                  <path
                     id="path1397"
                     d="m 79.594716,128.36681 c 0.36552,0.66285 0.816108,1.23424 1.231634,1.83549 0.687687,0.99559 1.499297,0.90536 2.526172,0.8779 0.232185,-0.006 0.634506,-0.0183 0.839665,-0.14296 0.569902,-0.34619 0.392993,-1.43273 -0.107528,-1.7474 -0.511199,-0.32139 -1.058691,-0.44524 -1.60248,-0.65233 -0.412835,-0.15722 -1.318113,-0.50721 -1.754373,-0.0449 -0.24405,0.25862 0.172395,1.65791 0.390996,1.92391 0.534877,0.65099 1.781413,0.57126 2.388679,0.0851 0.474731,-0.38006 -0.495628,-1.20081 -0.746217,-1.35836 -0.351665,-0.2211 -1.084393,-0.52267 -1.364048,-0.18495 -0.03322,0.0401 -0.0073,0.25522 -0.02453,0.32509 -0.108402,0.43882 0.290492,0.85181 0.609547,0.97333 0.260528,0.0992 0.308255,0.22048 0.587782,0.15677 0.03829,-0.009 0.153427,-0.035 0.115078,-0.0262 -0.03471,0.008 0.125271,-0.0149 0.166684,-0.17674 0.02791,-0.10895 -0.107332,-0.67104 -0.171156,-0.7508 -0.235397,-0.29422 -0.876693,0.0569 -0.891393,-0.008 -0.01297,-0.0572 0.151374,0.39355 0.470685,0.51483"
                     style="fill:none;stroke:#fe5d90;stroke-width:0.264583px;stroke-linecap:butt;stroke-linejoin:miter;stroke-opacity:1" />
                </g>
                <g
                   id="g1413"
                   transform="rotate(66.226618,78.026904,159.13744)">
                  <path
                     style="fill:none;stroke:#fe5d90;stroke-width:0.264583px;stroke-linecap:butt;stroke-linejoin:miter;stroke-opacity:1"
                     d="m 78.658396,127.04151 c -0.727519,-0.20902 -1.384739,-0.52141 -2.063326,-0.79284 -1.123466,-0.44939 -1.215954,-1.26057 -1.41741,-2.26786 -0.04555,-0.22776 -0.123159,-0.62271 -0.04725,-0.85044 0.21086,-0.63259 1.309568,-0.70156 1.727594,-0.28354 0.426972,0.42698 0.669412,0.93325 0.992188,1.41741 0.245044,0.36757 0.787484,1.17241 0.433718,1.7005 -0.197906,0.29543 -1.654755,0.20041 -1.962687,0.0464 -0.753594,-0.3768 -0.952913,-1.60988 -0.613902,-2.31001 0.265033,-0.54733 1.280935,0.21633 1.490236,0.42564 0.293727,0.29372 0.750613,0.9411 0.483502,1.28882 -0.03171,0.0413 -0.247234,0.0638 -0.311488,0.0962 -0.403643,0.20345 -0.895078,-0.0939 -1.084472,-0.37797 -0.154633,-0.23196 -0.28348,-0.25154 -0.28348,-0.53824 0,-0.0393 0,-0.15736 0,-0.11802 0,0.0356 -0.01333,-0.12546 0.135269,-0.2018 0.100007,-0.0514 0.678113,-0.0445 0.770059,0 0.339188,0.16409 0.139353,0.86741 0.20551,0.86741 0.05865,0 -0.417362,-0.0601 -0.606579,-0.34445"
                     id="path1401" />
                  <path
                     style="fill:none;stroke:#f7ff07;stroke-width:0.1;stroke-linecap:butt;stroke-linejoin:miter;stroke-miterlimit:4;stroke-dasharray:none;stroke-opacity:1"
                     d="m 79.877268,126.29287 c -0.802814,-0.77955 -1.168598,0.96058 -1.039437,1.60639 0.132908,0.66454 3.02572,0.75977 1.937129,-1.41741 -0.1938,-0.3876 -1.21946,-0.16984 -1.464657,-0.0472 -0.299974,0.14999 -0.425222,0.86361 -0.425222,1.18118 0,0.0225 -0.02455,0.35342 0,0.37798 0.223755,0.22375 2.031621,0.0263 2.031621,-0.85045 0,-0.0701 0.03734,-0.27376 0,-0.33073 -0.255746,-0.39012 -1.306761,0.0538 -1.557615,0.13798 -0.204928,0.0688 -0.197435,0.41177 -0.236236,0.56697 -0.02768,0.11072 -0.182472,0.38582 -0.09449,0.51972 0.09347,0.14225 0.22153,0.0945 0.373893,0.0945 0.930481,0 1.181174,-0.29729 1.181174,-1.18118 0,-0.45532 -0.708705,0.0746 -0.708705,0.61422 0,0.23146 0.326033,0.40223 0.467347,0.1399 0.126923,-0.23562 -1.053015,-0.69118 -0.748549,0.24879 0.110078,0.33984 1.875894,-0.0708 1.414169,-0.99427 -0.08246,-0.16492 -1.234083,-0.14033 -1.417412,-0.0945 -0.263576,0.0659 -0.59313,1.14651 -0.442931,1.21072 0.146711,0.0627 0.451948,0 0.611576,0 1.517949,0 0.132646,-1.948 -0.0945,-1.03944 -0.225269,0.90108 0.828088,0.45339 0.572688,-0.3128 -0.247737,-0.74321 -1.491689,0.51271 -1.086681,0.94494 0.01921,0.0205 0.402088,0 0.416793,0 0.246089,0 0.762622,0.0918 0.992188,0 0.431146,-0.17246 0.475667,-1.51191 3.7e-5,-1.51191 -0.644531,0 -1.046859,0.0732 -1.228424,0.70871 -0.06934,0.24269 -0.09449,0.50326 -0.09449,0.75595 0,0.0473 0.03204,0.17647 0,0.14174 -0.208912,-0.22643 -0.385424,-0.48073 -0.578136,-0.7211"
                     id="path1403" />
                  <path
                     id="path1405"
                     d="m 78.658398,127.04157 c -0.727519,0.20902 -1.384739,0.52141 -2.063326,0.79284 -1.123466,0.44939 -1.215954,1.26057 -1.41741,2.26786 -0.04555,0.22776 -0.123159,0.62271 -0.04725,0.85044 0.21086,0.63259 1.309568,0.70156 1.727594,0.28354 0.426972,-0.42698 0.669412,-0.93325 0.992188,-1.41741 0.245044,-0.36757 0.787484,-1.17241 0.433718,-1.7005 -0.197906,-0.29543 -1.654755,-0.20041 -1.962687,-0.0464 -0.753594,0.3768 -0.952913,1.60988 -0.613902,2.31001 0.265033,0.54733 1.280935,-0.21633 1.490236,-0.42564 0.293727,-0.29372 0.750613,-0.9411 0.483502,-1.28882 -0.03171,-0.0413 -0.247234,-0.0638 -0.311488,-0.0962 -0.403643,-0.20345 -0.895078,0.0939 -1.084472,0.37797 -0.154633,0.23196 -0.28348,0.25154 -0.28348,0.53824 0,0.0393 0,0.15736 0,0.11802 0,-0.0356 -0.01333,0.12546 0.135269,0.2018 0.100007,0.0514 0.678113,0.0445 0.770059,0 0.339188,-0.16409 0.139353,-0.86741 0.20551,-0.86741 0.05865,0 -0.417362,0.0601 -0.606579,0.34445"
                     style="fill:none;stroke:#fe5d90;stroke-width:0.264583px;stroke-linecap:butt;stroke-linejoin:miter;stroke-opacity:1" />
                  <path
                     style="fill:none;stroke:#fe5d90;stroke-width:0.264583px;stroke-linecap:butt;stroke-linejoin:miter;stroke-opacity:1"
                     d="m 79.877268,126.29287 c 0.550153,-0.51991 0.990374,-1.09934 1.468391,-1.6522 0.791399,-0.91532 0.500854,-1.67831 0.216993,-2.66555 -0.06419,-0.22322 -0.176711,-0.60968 -0.348764,-0.77707 -0.477928,-0.46499 -1.485495,-0.0215 -1.66473,0.54189 -0.183065,0.57542 -0.165798,1.13648 -0.230044,1.71481 -0.04877,0.43906 -0.160789,1.40315 0.396057,1.70967 0.311516,0.17147 1.561841,-0.58227 1.764588,-0.86054 0.496228,-0.68091 0.10673,-1.86772 -0.516053,-2.33382 -0.486873,-0.36437 -1.038342,0.78067 -1.128078,1.06274 -0.125941,0.39584 -0.234314,1.18076 0.162694,1.36688 0.04714,0.0221 0.248907,-0.0569 0.320864,-0.0577 0.451993,-0.005 0.751872,-0.49464 0.789578,-0.83397 0.03077,-0.27707 0.136219,-0.35366 0.0045,-0.60831 -0.01806,-0.0349 -0.0723,-0.13977 -0.05422,-0.10483 0.01636,0.0316 -0.0458,-0.11755 -0.212863,-0.11709 -0.112442,3e-4 -0.622749,0.27203 -0.68397,0.3538 -0.225879,0.30159 0.274753,0.83447 0.215992,0.86486 -0.05209,0.0269 0.343091,-0.24513 0.380511,-0.58463"
                     id="path1407" />
                  <path
                     id="path1409"
                     d="m 81.07492,127.35386 c 0.753312,0.0741 1.479426,0.0263 2.210282,0.0243 1.210005,-0.003 1.595245,-0.72303 2.154116,-1.58494 0.126359,-0.19489 0.344212,-0.53334 0.357671,-0.77301 0.0374,-0.66576 -0.958317,-1.13525 -1.501108,-0.90091 -0.554382,0.23933 -0.966501,0.62044 -1.445129,0.95136 -0.363366,0.25123 -1.164478,0.79917 -1.030503,1.42053 0.07495,0.3476 1.464084,0.79677 1.807112,0.76723 0.839446,-0.0722 1.479636,-1.14475 1.422843,-1.92056 -0.04441,-0.6065 -1.270386,-0.27151 -1.542142,-0.15419 -0.381373,0.16464 -1.044869,0.59778 -0.924886,1.01952 0.01425,0.0501 0.206237,0.15053 0.254048,0.20431 0.300299,0.33785 0.866575,0.24295 1.147413,0.0488 0.229299,-0.15855 0.356282,-0.12921 0.46206,-0.39568 0.01449,-0.0365 0.05806,-0.14626 0.04355,-0.1097 -0.01312,0.0331 0.05867,-0.11168 -0.05128,-0.23747 -0.07399,-0.0847 -0.613856,-0.29154 -0.715734,-0.2841 -0.375803,0.0274 -0.449547,0.75481 -0.511032,0.7304 -0.05448,-0.0217 0.410087,0.0981 0.690866,-0.0964"
                     style="fill:none;stroke:#fe5d90;stroke-width:0.264583px;stroke-linecap:butt;stroke-linejoin:miter;stroke-opacity:1" />
                  <path
                     style="fill:none;stroke:#fe5d90;stroke-width:0.264583px;stroke-linecap:butt;stroke-linejoin:miter;stroke-opacity:1"
                     d="m 79.594716,128.36681 c 0.36552,0.66285 0.816108,1.23424 1.231634,1.83549 0.687687,0.99559 1.499297,0.90536 2.526172,0.8779 0.232185,-0.006 0.634506,-0.0183 0.839665,-0.14296 0.569902,-0.34619 0.392993,-1.43273 -0.107528,-1.7474 -0.511199,-0.32139 -1.058691,-0.44524 -1.60248,-0.65233 -0.412835,-0.15722 -1.318113,-0.50721 -1.754373,-0.0449 -0.24405,0.25862 0.172395,1.65791 0.390996,1.92391 0.534877,0.65099 1.781413,0.57126 2.388679,0.0851 0.474731,-0.38006 -0.495628,-1.20081 -0.746217,-1.35836 -0.351665,-0.2211 -1.084393,-0.52267 -1.364048,-0.18495 -0.03322,0.0401 -0.0073,0.25522 -0.02453,0.32509 -0.108402,0.43882 0.290492,0.85181 0.609547,0.97333 0.260528,0.0992 0.308255,0.22048 0.587782,0.15677 0.03829,-0.009 0.153427,-0.035 0.115078,-0.0262 -0.03471,0.008 0.125271,-0.0149 0.166684,-0.17674 0.02791,-0.10895 -0.107332,-0.67104 -0.171156,-0.7508 -0.235397,-0.29422 -0.876693,0.0569 -0.891393,-0.008 -0.01297,-0.0572 0.151374,0.39355 0.470685,0.51483"
                     id="path1411" />
                </g>
              </g>
            </g>
          </g>
        </g>
      </g>
      <g
         id="g193"
         transform="translate(67.541613,-129.43308)">
        <g
           style="display:inline"
           transform="translate(-165.19352,186.04151)"
           id="layer1-3"
           inkscape:label="sans">
          <g
             id="g1226"
             transform="translate(5.1321576,210.57431)">
            <g
               id="g1308"
               transform="rotate(18.060837,188.80221,-172.71013)">
              <path
                 sodipodi:nodetypes="ccccccccc"
                 inkscape:original-d="m 168.18275,-169.67097 c 3.21852,-3.51937 6.43687,-7.03852 9.65504,-10.55741 3.19977,-2.49033 6.39936,-4.98043 9.59876,-7.47027 4.1183,1.80458 8.23643,3.60941 12.35436,5.41449 3.00101,2.58763 6.00183,5.17549 9.00249,7.7636 -2.53325,2.91585 -5.06656,5.83181 -7.60011,8.74808 -3.43356,2.75298 -6.86714,5.50609 -10.30117,8.25966 -4.01491,-1.97466 -8.02952,-3.94884 -12.04481,-5.92304 -3.55484,-2.0787 -7.10953,-4.15697 -10.66456,-6.23511 z"
                 inkscape:path-effect="#path-effect1126"
                 inkscape:connector-curvature="0"
                 id="path1124"
                 d="m 171.56946,-170.39145 c -0.16817,-2.79887 3.05019,-6.31802 6.25917,-9.32261 3.20898,-3.00459 6.40857,-5.49468 10.06733,-5.83721 3.65877,-0.34252 7.7769,1.46231 11.33633,3.65864 3.55944,2.19632 6.56026,4.78418 6.79407,7.53606 0.23381,2.75188 -2.2995,5.66784 -5.28304,8.50249 -2.98354,2.83465 -6.41712,5.58775 -10.14168,5.97731 -3.72456,0.38955 -7.73917,-1.58463 -11.52424,-3.61109 -3.78508,-2.02645 -7.33977,-4.10472 -7.50794,-6.90359 z"
                 style="fill:#ffffff;fill-opacity:1;stroke:#0e1111;stroke-width:0.761;stroke-linecap:butt;stroke-linejoin:miter;stroke-miterlimit:4;stroke-dasharray:none;stroke-opacity:1" />
              <path
                 sodipodi:open="true"
                 sodipodi:end="6.2820683"
                 sodipodi:start="0"
                 sodipodi:ry="5.6311779"
                 sodipodi:rx="6.3931565"
                 sodipodi:cy="-149.89081"
                 sodipodi:cx="206.5632"
                 sodipodi:type="arc"
                 id="path1128"
                 style="fill:none;fill-opacity:1;stroke:#0e1111;stroke-width:0.261;stroke-linecap:round;stroke-linejoin:miter;stroke-miterlimit:4;stroke-dasharray:none;stroke-dashoffset:0;stroke-opacity:1;paint-order:stroke fill markers"
                 transform="rotate(-6.3698953)"
                 sodipodi:arc-type="arc"
                 d="m 212.95636,-149.89081 a 6.3931565,5.6311779 0 0 1 -6.39137,5.63118 6.3931565,5.6311779 0 0 1 -6.39494,-5.62803 6.3931565,5.6311779 0 0 1 6.3878,-5.63432 6.3931565,5.6311779 0 0 1 6.3985,5.62488" />
              <path
                 inkscape:connector-curvature="0"
                 id="path1130"
                 d="m 178.32516,-174.7208 c 0,0 -0.84402,-1.91699 -0.39946,-2.77109 0.44467,-0.85413 2.64848,-0.99959 2.64848,-0.99959 l 7.76903,6.97639 z"
                 style="fill:#712514;fill-opacity:1;stroke:#0e1111;stroke-width:0.261;stroke-linecap:butt;stroke-linejoin:miter;stroke-miterlimit:4;stroke-dasharray:none;stroke-opacity:1" />
              <path
                 sodipodi:nodetypes="ccccc"
                 style="fill:#3a44bf;fill-opacity:1;stroke:#0e1111;stroke-width:0.261;stroke-linecap:butt;stroke-linejoin:miter;stroke-miterlimit:4;stroke-dasharray:none;stroke-opacity:1"
                 d="m 198.38583,-177.77659 c 0,0 -0.40399,-3.17992 -1.10268,-4.27091 -0.6987,-1.09099 -2.82066,-1.54839 -2.82066,-1.54839 l -6.11928,12.0808 z"
                 id="path1132"
                 inkscape:connector-curvature="0" />
              <path
                 sodipodi:nodetypes="ccccc"
                 inkscape:connector-curvature="0"
                 id="path1134"
                 d="m 182.69008,-165.56537 c 0,0 0.22822,1.50082 0.64411,2.42621 0.41601,0.92539 2.05569,1.42905 2.05569,1.42905 l 2.95335,-9.80499 z"
                 style="fill:#3a4475;fill-opacity:1;stroke:#0e1111;stroke-width:0.261;stroke-linecap:butt;stroke-linejoin:miter;stroke-miterlimit:4;stroke-dasharray:none;stroke-opacity:1" />
              <path
                 sodipodi:nodetypes="ccccc"
                 style="fill:#3bb477;fill-opacity:1;stroke:#0e1111;stroke-width:0.261;stroke-linecap:butt;stroke-linejoin:miter;stroke-miterlimit:4;stroke-dasharray:none;stroke-opacity:1"
                 d="m 187.37162,-177.3696 c 0,0 0.19507,-1.57802 1.45558,-1.66805 1.74992,-0.17563 2.20129,2.15486 2.20129,2.15486 l -2.68522,5.36769 z"
                 id="path1136"
                 inkscape:connector-curvature="0" />
              <path
                 inkscape:connector-curvature="0"
                 id="path1138"
                 d="m 192.25833,-166.37993 c 0.42054,0.60947 1.97269,-1.02482 2.03346,-1.60786 0.14263,-2.17 -0.32015,-2.66561 -0.32015,-2.66561 l -5.62837,-0.8617 z"
                 style="fill:#302514;fill-opacity:1;stroke:#0e1111;stroke-width:0.261;stroke-linecap:butt;stroke-linejoin:miter;stroke-miterlimit:4;stroke-dasharray:none;stroke-opacity:1"
                 sodipodi:nodetypes="ccccc" />
              <path
                 sodipodi:nodetypes="ccccc"
                 style="fill:#3b7682;fill-opacity:1;stroke:#0e1111;stroke-width:0.261;stroke-linecap:butt;stroke-linejoin:miter;stroke-miterlimit:4;stroke-dasharray:none;stroke-opacity:1"
                 d="m 188.80979,-164.05948 c 0,0 0.63771,1.8882 2.07383,1.66407 2.00715,-0.24893 1.8938,-3.23393 1.8938,-3.23393 l -4.43415,-5.88576 z"
                 id="path1140"
                 inkscape:connector-curvature="0" />
            </g>
            <path
               style="fill:none;stroke:#0e1111;stroke-width:0.761;stroke-linecap:butt;stroke-linejoin:miter;stroke-miterlimit:4;stroke-dasharray:none;stroke-opacity:1"
               d="m 188.91589,-152.40502 c 0,0 0.0363,-2.35168 -0.3719,-2.68541 -2.38872,-5.84598 -5.76726,-2.15 -6.01177,2.28866"
               id="path885"
               inkscape:connector-curvature="0"
               sodipodi:nodetypes="ccc" />
            <path
               sodipodi:nodetypes="ccc"
               inkscape:connector-curvature="0"
               id="path433"
               d="m 188.91589,-152.40502 c 0,0 -0.0363,-2.35168 0.3719,-2.68541 2.38872,-5.84598 6.80373,-1.68707 7.04824,2.75159"
               style="fill:none;stroke:#0e1111;stroke-width:0.761;stroke-linecap:butt;stroke-linejoin:miter;stroke-miterlimit:4;stroke-dasharray:none;stroke-opacity:1" />
            <path
               style="fill:none;stroke:#0e1111;stroke-width:0.761;stroke-linecap:butt;stroke-linejoin:miter;stroke-miterlimit:4;stroke-dasharray:none;stroke-opacity:1"
               d="m 188.87075,-155.01906 0.15483,-4.89195"
               id="path435"
               sodipodi:nodetypes="cc" />
            <path
               style="fill:none;stroke:#000000;stroke-width:0.761;stroke-linecap:butt;stroke-linejoin:miter;stroke-miterlimit:4;stroke-dasharray:none;stroke-opacity:1"
               d="m 179.61419,-152.93796 c -0.075,-1.3557 -2.17193,-2.38392 -3.61183,1.86759"
               id="path1278"
               sodipodi:nodetypes="cc" />
            <path
               sodipodi:nodetypes="cc"
               id="path1280"
               d="m 199.88969,-152.25088 c -0.0361,-0.94044 2.10571,-2.21924 2.85904,1.67549"
               style="fill:none;stroke:#000000;stroke-width:0.761;stroke-linecap:butt;stroke-linejoin:miter;stroke-miterlimit:4;stroke-dasharray:none;stroke-opacity:1" />
          </g>
          <flowRoot
             style="font-style:normal;font-variant:normal;font-weight:normal;font-stretch:normal;font-size:15.4px;line-height:1.25;font-family:Dyuthi;-inkscape-font-specification:Dyuthi;text-align:center;letter-spacing:0px;word-spacing:0px;text-anchor:middle;fill:#000000;fill-opacity:1;stroke:none"
             id="flowRoot1294"
             xml:space="preserve"><flowRegion
               id="flowRegion1296"><rect
                 y="-94.339256"
                 x="-19.192898"
                 height="383.85797"
                 width="410.12195"
                 id="rect1298" /></flowRegion><flowPara
               id="flowPara1300" /></flowRoot>
        </g>
        <g
           style="display:inline"
           transform="translate(-165.19352,186.04151)"
           inkscape:label="true"
           id="layer2" />
      </g>
    </g>
  </g>
</svg>
